<svg width="146" height="39" viewBox="0 0 146 39" fill="none" xmlns="http://www.w3.org/2000/svg">
<rect width="145.331" height="38.1176" rx="19.0588" fill="#333333"/>
<path d="M39.1088 12.4207H41.7188L45.1928 22.0507L48.7748 12.4207H51.2228L46.0748 25.1647H44.1128L39.1088 12.4207ZM53.1363 21.6007C53.2083 22.2487 53.4603 22.7527 53.8923 23.1127C54.3243 23.4727 54.8463 23.6527 55.4583 23.6527C55.9983 23.6527 56.4483 23.5447 56.8083 23.3287C57.1803 23.1007 57.5043 22.8187 57.7803 22.4827L59.3283 23.6527C58.8243 24.2767 58.2603 24.7207 57.6363 24.9847C57.0123 25.2487 56.3583 25.3807 55.6743 25.3807C55.0263 25.3807 54.4143 25.2727 53.8383 25.0567C53.2623 24.8407 52.7643 24.5347 52.3443 24.1387C51.9243 23.7427 51.5883 23.2687 51.3363 22.7167C51.0963 22.1527 50.9763 21.5287 50.9763 20.8447C50.9763 20.1607 51.0963 19.5427 51.3363 18.9907C51.5883 18.4267 51.9243 17.9467 52.3443 17.5507C52.7643 17.1547 53.2623 16.8487 53.8383 16.6327C54.4143 16.4167 55.0263 16.3087 55.6743 16.3087C56.2743 16.3087 56.8203 16.4167 57.3123 16.6327C57.8163 16.8367 58.2423 17.1367 58.5903 17.5327C58.9503 17.9287 59.2263 18.4207 59.4183 19.0087C59.6223 19.5847 59.7243 20.2507 59.7243 21.0067V21.6007H53.1363ZM57.5643 19.9807C57.5523 19.3447 57.3543 18.8467 56.9703 18.4867C56.5863 18.1147 56.0523 17.9287 55.3683 17.9287C54.7203 17.9287 54.2043 18.1147 53.8203 18.4867C53.4483 18.8587 53.2203 19.3567 53.1363 19.9807H57.5643ZM61.7442 16.5247H63.9042V17.8927H63.9402C64.1802 17.3887 64.5222 16.9987 64.9662 16.7227C65.4102 16.4467 65.9202 16.3087 66.4962 16.3087C66.6282 16.3087 66.7542 16.3207 66.8742 16.3447C67.0062 16.3687 67.1382 16.3987 67.2702 16.4347V18.5227C67.0902 18.4747 66.9102 18.4387 66.7302 18.4147C66.5622 18.3787 66.3942 18.3607 66.2262 18.3607C65.7222 18.3607 65.3142 18.4567 65.0022 18.6487C64.7022 18.8287 64.4682 19.0387 64.3002 19.2787C64.1442 19.5187 64.0362 19.7587 63.9762 19.9987C63.9282 20.2387 63.9042 20.4187 63.9042 20.5387V25.1647H61.7442V16.5247ZM73.9765 16.5247H76.0285V17.8747H76.0645C76.2565 17.4667 76.5625 17.1067 76.9825 16.7947C77.4145 16.4707 77.9905 16.3087 78.7105 16.3087C80.0665 16.3087 80.9665 16.8427 81.4105 17.9107C81.7225 17.3587 82.1125 16.9567 82.5805 16.7047C83.0485 16.4407 83.6065 16.3087 84.2545 16.3087C84.8305 16.3087 85.3165 16.4047 85.7125 16.5967C86.1085 16.7887 86.4265 17.0527 86.6665 17.3887C86.9185 17.7247 87.0985 18.1207 87.2065 18.5767C87.3145 19.0207 87.3685 19.5007 87.3685 20.0167V25.1647H85.2085V20.2687C85.2085 20.0047 85.1845 19.7527 85.1365 19.5127C85.0885 19.2607 85.0045 19.0447 84.8845 18.8647C84.7645 18.6727 84.6025 18.5227 84.3985 18.4147C84.1945 18.3067 83.9305 18.2527 83.6065 18.2527C83.2705 18.2527 82.9825 18.3187 82.7425 18.4507C82.5145 18.5707 82.3225 18.7387 82.1665 18.9547C82.0225 19.1587 81.9145 19.3987 81.8425 19.6747C81.7825 19.9387 81.7525 20.2087 81.7525 20.4847V25.1647H79.5925V20.0167C79.5925 19.4767 79.4785 19.0507 79.2505 18.7387C79.0225 18.4147 78.6445 18.2527 78.1165 18.2527C77.7565 18.2527 77.4505 18.3127 77.1985 18.4327C76.9585 18.5527 76.7545 18.7147 76.5865 18.9187C76.4305 19.1227 76.3165 19.3567 76.2445 19.6207C76.1725 19.8847 76.1365 20.1607 76.1365 20.4487V25.1647H73.9765V16.5247ZM95.1286 23.9767H95.0746C94.7626 24.4687 94.3666 24.8287 93.8866 25.0567C93.4066 25.2727 92.8786 25.3807 92.3026 25.3807C91.9066 25.3807 91.5166 25.3267 91.1326 25.2187C90.7606 25.1107 90.4246 24.9487 90.1246 24.7327C89.8366 24.5167 89.6026 24.2467 89.4226 23.9227C89.2426 23.5987 89.1526 23.2207 89.1526 22.7887C89.1526 22.3207 89.2366 21.9247 89.4046 21.6007C89.5726 21.2647 89.7946 20.9887 90.0706 20.7727C90.3586 20.5447 90.6886 20.3647 91.0606 20.2327C91.4326 20.1007 91.8166 20.0047 92.2126 19.9447C92.6206 19.8727 93.0286 19.8307 93.4366 19.8187C93.8446 19.7947 94.2286 19.7827 94.5886 19.7827H95.1286V19.5487C95.1286 19.0087 94.9426 18.6067 94.5706 18.3427C94.1986 18.0667 93.7246 17.9287 93.1486 17.9287C92.6926 17.9287 92.2666 18.0127 91.8706 18.1807C91.4746 18.3367 91.1326 18.5527 90.8446 18.8287L89.7106 17.6947C90.1906 17.2027 90.7486 16.8487 91.3846 16.6327C92.0326 16.4167 92.6986 16.3087 93.3826 16.3087C93.9946 16.3087 94.5106 16.3807 94.9306 16.5247C95.3506 16.6567 95.6986 16.8307 95.9746 17.0467C96.2506 17.2627 96.4606 17.5147 96.6046 17.8027C96.7606 18.0787 96.8686 18.3607 96.9286 18.6487C97.0006 18.9367 97.0426 19.2187 97.0546 19.4947C97.0666 19.7587 97.0726 19.9927 97.0726 20.1967V25.1647H95.1286V23.9767ZM95.0026 21.2947H94.5526C94.2526 21.2947 93.9166 21.3067 93.5446 21.3307C93.1726 21.3547 92.8186 21.4147 92.4826 21.5107C92.1586 21.5947 91.8826 21.7267 91.6546 21.9067C91.4266 22.0747 91.3126 22.3147 91.3126 22.6267C91.3126 22.8307 91.3546 23.0047 91.4386 23.1487C91.5346 23.2807 91.6546 23.3947 91.7986 23.4907C91.9426 23.5867 92.1046 23.6587 92.2846 23.7067C92.4646 23.7427 92.6446 23.7607 92.8246 23.7607C93.5686 23.7607 94.1146 23.5867 94.4626 23.2387C94.8226 22.8787 95.0026 22.3927 95.0026 21.7807V21.2947ZM94.2826 12.4207H96.7306L94.1926 15.0127H92.5006L94.2826 12.4207ZM104.005 18.9187C103.585 18.3307 103.021 18.0367 102.313 18.0367C102.025 18.0367 101.743 18.1087 101.467 18.2527C101.191 18.3967 101.053 18.6307 101.053 18.9547C101.053 19.2187 101.167 19.4107 101.395 19.5307C101.623 19.6507 101.911 19.7527 102.259 19.8367C102.607 19.9207 102.979 20.0107 103.375 20.1067C103.783 20.1907 104.161 20.3287 104.509 20.5207C104.857 20.7007 105.145 20.9527 105.373 21.2767C105.601 21.6007 105.715 22.0447 105.715 22.6087C105.715 23.1247 105.601 23.5627 105.373 23.9227C105.157 24.2707 104.869 24.5527 104.509 24.7687C104.161 24.9847 103.765 25.1407 103.321 25.2367C102.877 25.3327 102.433 25.3807 101.989 25.3807C101.317 25.3807 100.699 25.2847 100.135 25.0927C99.5706 24.9007 99.0666 24.5527 98.6226 24.0487L100.063 22.6987C100.339 23.0107 100.633 23.2687 100.945 23.4727C101.269 23.6647 101.659 23.7607 102.115 23.7607C102.271 23.7607 102.433 23.7427 102.601 23.7067C102.769 23.6707 102.925 23.6107 103.069 23.5267C103.213 23.4427 103.327 23.3407 103.411 23.2207C103.507 23.0887 103.555 22.9387 103.555 22.7707C103.555 22.4707 103.441 22.2487 103.213 22.1047C102.985 21.9607 102.697 21.8467 102.349 21.7627C102.001 21.6667 101.623 21.5827 101.215 21.5107C100.819 21.4267 100.447 21.3007 100.099 21.1327C99.7506 20.9527 99.4626 20.7067 99.2346 20.3947C99.0066 20.0827 98.8926 19.6507 98.8926 19.0987C98.8926 18.6187 98.9886 18.2047 99.1806 17.8567C99.3846 17.4967 99.6486 17.2027 99.9726 16.9747C100.297 16.7467 100.669 16.5787 101.089 16.4707C101.509 16.3627 101.935 16.3087 102.367 16.3087C102.943 16.3087 103.513 16.4107 104.077 16.6147C104.641 16.8067 105.097 17.1427 105.445 17.6227L104.005 18.9187Z" fill="white"/>
</svg>
