<svg width="82" height="20" viewBox="0 0 82 20" fill="none" xmlns="http://www.w3.org/2000/svg">
<path d="M0.952 3.672H3.272L6.36 12.232L9.544 3.672H11.72L7.144 15H5.4L0.952 3.672ZM13.5009 11.832C13.5649 12.408 13.7889 12.856 14.1729 13.176C14.5569 13.496 15.0209 13.656 15.5649 13.656C16.0449 13.656 16.4449 13.56 16.7649 13.368C17.0955 13.1653 17.3835 12.9147 17.6289 12.616L19.0049 13.656C18.5569 14.2107 18.0555 14.6053 17.5009 14.84C16.9462 15.0747 16.3649 15.192 15.7569 15.192C15.1809 15.192 14.6369 15.096 14.1249 14.904C13.6129 14.712 13.1702 14.44 12.7969 14.088C12.4235 13.736 12.1249 13.3147 11.9009 12.824C11.6875 12.3227 11.5809 11.768 11.5809 11.16C11.5809 10.552 11.6875 10.0027 11.9009 9.512C12.1249 9.01067 12.4235 8.584 12.7969 8.232C13.1702 7.88 13.6129 7.608 14.1249 7.416C14.6369 7.224 15.1809 7.128 15.7569 7.128C16.2902 7.128 16.7755 7.224 17.2129 7.416C17.6609 7.59733 18.0395 7.864 18.3489 8.216C18.6689 8.568 18.9142 9.00533 19.0849 9.528C19.2662 10.04 19.3569 10.632 19.3569 11.304V11.832H13.5009ZM17.4369 10.392C17.4262 9.82667 17.2502 9.384 16.9089 9.064C16.5675 8.73333 16.0929 8.568 15.4849 8.568C14.9089 8.568 14.4502 8.73333 14.1089 9.064C13.7782 9.39467 13.5755 9.83733 13.5009 10.392H17.4369ZM21.2324 7.32H23.1524V8.536H23.1844C23.3977 8.088 23.7017 7.74133 24.0964 7.496C24.491 7.25067 24.9444 7.128 25.4564 7.128C25.5737 7.128 25.6857 7.13867 25.7924 7.16C25.9097 7.18133 26.027 7.208 26.1444 7.24V9.096C25.9844 9.05333 25.8244 9.02133 25.6644 9C25.515 8.968 25.3657 8.952 25.2164 8.952C24.7684 8.952 24.4057 9.03733 24.1284 9.208C23.8617 9.368 23.6537 9.55467 23.5044 9.768C23.3657 9.98133 23.2697 10.1947 23.2164 10.408C23.1737 10.6213 23.1524 10.7813 23.1524 10.888V15H21.2324V7.32ZM32.2655 7.32H34.0895V8.52H34.1215C34.2922 8.15733 34.5642 7.83733 34.9375 7.56C35.3215 7.272 35.8335 7.128 36.4735 7.128C37.6788 7.128 38.4788 7.60267 38.8735 8.552C39.1508 8.06133 39.4975 7.704 39.9135 7.48C40.3295 7.24533 40.8255 7.128 41.4015 7.128C41.9135 7.128 42.3455 7.21333 42.6975 7.384C43.0495 7.55467 43.3322 7.78933 43.5455 8.088C43.7695 8.38667 43.9295 8.73867 44.0255 9.144C44.1215 9.53867 44.1695 9.96533 44.1695 10.424V15H42.2495V10.648C42.2495 10.4133 42.2282 10.1893 42.1855 9.976C42.1428 9.752 42.0682 9.56 41.9615 9.4C41.8548 9.22933 41.7108 9.096 41.5295 9C41.3482 8.904 41.1135 8.856 40.8255 8.856C40.5268 8.856 40.2708 8.91467 40.0575 9.032C39.8548 9.13867 39.6842 9.288 39.5455 9.48C39.4175 9.66133 39.3215 9.87467 39.2575 10.12C39.2042 10.3547 39.1775 10.5947 39.1775 10.84V15H37.2575V10.424C37.2575 9.944 37.1562 9.56533 36.9535 9.288C36.7508 9 36.4148 8.856 35.9455 8.856C35.6255 8.856 35.3535 8.90933 35.1295 9.016C34.9162 9.12267 34.7348 9.26667 34.5855 9.448C34.4468 9.62933 34.3455 9.83733 34.2815 10.072C34.2175 10.3067 34.1855 10.552 34.1855 10.808V15H32.2655V7.32ZM51.1474 13.944H51.0994C50.822 14.3813 50.47 14.7013 50.0434 14.904C49.6167 15.096 49.1474 15.192 48.6354 15.192C48.2834 15.192 47.9367 15.144 47.5954 15.048C47.2647 14.952 46.966 14.808 46.6994 14.616C46.4434 14.424 46.2354 14.184 46.0754 13.896C45.9154 13.608 45.8354 13.272 45.8354 12.888C45.8354 12.472 45.91 12.12 46.0594 11.832C46.2087 11.5333 46.406 11.288 46.6514 11.096C46.9074 10.8933 47.2007 10.7333 47.5314 10.616C47.862 10.4987 48.2034 10.4133 48.5554 10.36C48.918 10.296 49.2807 10.2587 49.6434 10.248C50.006 10.2267 50.3474 10.216 50.6674 10.216H51.1474V10.008C51.1474 9.528 50.982 9.17067 50.6514 8.936C50.3207 8.69067 49.8994 8.568 49.3874 8.568C48.982 8.568 48.6034 8.64267 48.2514 8.792C47.8994 8.93067 47.5954 9.12267 47.3394 9.368L46.3314 8.36C46.758 7.92267 47.254 7.608 47.8194 7.416C48.3954 7.224 48.9874 7.128 49.5954 7.128C50.1394 7.128 50.598 7.192 50.9714 7.32C51.3447 7.43733 51.654 7.592 51.8994 7.784C52.1447 7.976 52.3314 8.2 52.4594 8.456C52.598 8.70133 52.694 8.952 52.7474 9.208C52.8114 9.464 52.8487 9.71467 52.8594 9.96C52.87 10.1947 52.8754 10.4027 52.8754 10.584V15H51.1474V13.944ZM51.0354 11.56H50.6354C50.3687 11.56 50.07 11.5707 49.7394 11.592C49.4087 11.6133 49.094 11.6667 48.7954 11.752C48.5074 11.8267 48.262 11.944 48.0594 12.104C47.8567 12.2533 47.7554 12.4667 47.7554 12.744C47.7554 12.9253 47.7927 13.08 47.8674 13.208C47.9527 13.3253 48.0594 13.4267 48.1874 13.512C48.3154 13.5973 48.4594 13.6613 48.6194 13.704C48.7794 13.736 48.9394 13.752 49.0994 13.752C49.7607 13.752 50.246 13.5973 50.5554 13.288C50.8754 12.968 51.0354 12.536 51.0354 11.992V11.56ZM50.3954 3.672H52.5714L50.3154 5.976H48.8114L50.3954 3.672ZM59.1171 9.448C58.7438 8.92533 58.2425 8.664 57.6131 8.664C57.3571 8.664 57.1065 8.728 56.8611 8.856C56.6158 8.984 56.4931 9.192 56.4931 9.48C56.4931 9.71467 56.5945 9.88533 56.7971 9.992C56.9998 10.0987 57.2558 10.1893 57.5651 10.264C57.8745 10.3387 58.2051 10.4187 58.5571 10.504C58.9198 10.5787 59.2558 10.7013 59.5651 10.872C59.8745 11.032 60.1305 11.256 60.3331 11.544C60.5358 11.832 60.6371 12.2267 60.6371 12.728C60.6371 13.1867 60.5358 13.576 60.3331 13.896C60.1411 14.2053 59.8851 14.456 59.5651 14.648C59.2558 14.84 58.9038 14.9787 58.5091 15.064C58.1145 15.1493 57.7198 15.192 57.3251 15.192C56.7278 15.192 56.1785 15.1067 55.6771 14.936C55.1758 14.7653 54.7278 14.456 54.3331 14.008L55.6131 12.808C55.8585 13.0853 56.1198 13.3147 56.3971 13.496C56.6851 13.6667 57.0318 13.752 57.4371 13.752C57.5758 13.752 57.7198 13.736 57.8691 13.704C58.0185 13.672 58.1571 13.6187 58.2851 13.544C58.4131 13.4693 58.5145 13.3787 58.5891 13.272C58.6745 13.1547 58.7171 13.0213 58.7171 12.872C58.7171 12.6053 58.6158 12.408 58.4131 12.28C58.2105 12.152 57.9545 12.0507 57.6451 11.976C57.3358 11.8907 56.9998 11.816 56.6371 11.752C56.2851 11.6773 55.9545 11.5653 55.6451 11.416C55.3358 11.256 55.0798 11.0373 54.8771 10.76C54.6745 10.4827 54.5731 10.0987 54.5731 9.608C54.5731 9.18133 54.6585 8.81333 54.8291 8.504C55.0105 8.184 55.2451 7.92267 55.5331 7.72C55.8211 7.51733 56.1518 7.368 56.5251 7.272C56.8985 7.176 57.2771 7.128 57.6611 7.128C58.1731 7.128 58.6798 7.21867 59.1811 7.4C59.6825 7.57067 60.0878 7.86933 60.3971 8.296L59.1171 9.448Z" fill="white"/>
<path d="M76.273 14.2464L80.3535 9.12941L76.273 4.01245" stroke="white" stroke-width="2" stroke-linecap="round" stroke-linejoin="round"/>
<path d="M80.3536 9.12939H66.752" stroke="white" stroke-width="2" stroke-linecap="round" stroke-linejoin="round"/>
</svg>
