<svg width="316" height="43" viewBox="0 0 316 43" fill="none" xmlns="http://www.w3.org/2000/svg">
<rect x="0.5" y="0.5" width="315" height="42" rx="17.5" fill="#C4C4C4" fill-opacity="0.5" stroke="#860909"/>
<path d="M30.0625 18.125C30.0625 19.3351 29.5818 20.4955 28.7262 21.3512C27.8705 22.2068 26.7101 22.6875 25.5 22.6875C24.2899 22.6875 23.1295 22.2068 22.2738 21.3512C21.4182 20.4955 20.9375 19.3351 20.9375 18.125C20.9375 16.9149 21.4182 15.7545 22.2738 14.8988C23.1295 14.0432 24.2899 13.5625 25.5 13.5625C26.7101 13.5625 27.8705 14.0432 28.7262 14.8988C29.5818 15.7545 30.0625 16.9149 30.0625 18.125Z" fill="white" fill-opacity="0.8" stroke="#880000"/>
<path d="M15.8822 29.1865L16.3242 29.7397L16.6976 29.138C17.7909 27.3764 20.2539 25.375 25.5 25.375C30.7461 25.375 33.2075 27.3747 34.3025 29.1381L34.6759 29.7395L35.1178 29.1865C36.5654 27.3752 37.472 25.1919 37.7334 22.8881C37.9948 20.5842 37.6003 18.2533 36.5954 16.1638C35.5905 14.0742 34.016 12.3108 32.0531 11.0766C30.0902 9.84246 27.8187 9.18762 25.5 9.1875L25.5 9.6875L25.5 9.1875C23.1813 9.18762 20.9098 9.84246 18.9469 11.0766C16.984 12.3108 15.4095 14.0742 14.4046 16.1638C13.3997 18.2533 13.0052 20.5842 13.2666 22.8881C13.528 25.1919 14.4346 27.3752 15.8822 29.1865ZM12.5 21.5C12.5 18.0522 13.8696 14.7456 16.3076 12.3076C18.7456 9.86964 22.0522 8.5 25.5 8.5C28.9478 8.5 32.2544 9.86964 34.6924 12.3076C37.1304 14.7456 38.5 18.0522 38.5 21.5C38.5 24.9478 37.1304 28.2544 34.6924 30.6924C32.2544 33.1304 28.9478 34.5 25.5 34.5C22.0522 34.5 18.7456 33.1304 16.3076 30.6924C13.8696 28.2544 12.5 24.9478 12.5 21.5Z" fill="white" fill-opacity="0.8" stroke="#880000"/>
</svg>
