<svg width="316" height="43" viewBox="0 0 316 43" fill="none" xmlns="http://www.w3.org/2000/svg">
<rect x="0.5" y="0.5" width="315" height="42" rx="17.5" fill="#C4C4C4" fill-opacity="0.5" stroke="#800000"/>
<path d="M13.5189 10.1H16.3939V12.3C16.3939 12.9477 16.6348 13.5748 17.0728 14.042C17.5118 14.5103 18.1144 14.78 18.7501 14.78C19.3858 14.78 19.9884 14.5103 20.4274 14.042C20.8654 13.5748 21.1063 12.9477 21.1063 12.3V10.1H29.9359V12.3C29.9359 12.6213 29.9952 12.9402 30.1111 13.2387C30.227 13.5372 30.3976 13.8104 30.6148 14.042C30.8319 14.2737 31.0916 14.4593 31.3797 14.5866C31.6679 14.7139 31.978 14.78 32.2921 14.78C32.6061 14.78 32.9163 14.7139 33.2045 14.5866C33.4926 14.4593 33.7522 14.2737 33.9694 14.042C34.1865 13.8104 34.3572 13.5372 34.4731 13.2387C34.589 12.9402 34.6483 12.6213 34.6483 12.3V10.1H37.5183C37.6439 10.1028 37.7687 10.1316 37.886 10.1859C38.0047 10.2409 38.1142 10.3212 38.2074 10.424C38.3007 10.5269 38.3755 10.6501 38.4263 10.7873C38.477 10.9245 38.5022 11.072 38.4998 11.221L38.4998 11.221V11.229V31.371H38.4997L38.4998 31.3789C38.5022 31.528 38.477 31.6755 38.4263 31.8127C38.3755 31.9499 38.3007 32.0731 38.2074 32.1759C38.1142 32.2788 38.0047 32.3591 37.886 32.414C37.7687 32.4683 37.6439 32.4972 37.5182 32.5H13.4818C13.3561 32.4972 13.2313 32.4683 13.114 32.414C12.9953 32.3591 12.8858 32.2788 12.7926 32.1759C12.6993 32.0731 12.6245 31.9499 12.5737 31.8127C12.523 31.6755 12.4978 31.528 12.5002 31.3789L12.5002 31.3789V31.371V11.229H12.5003L12.5002 11.221C12.4977 11.0693 12.5239 10.9193 12.5765 10.78C12.6291 10.6408 12.7065 10.5163 12.8027 10.4132C12.8988 10.3101 13.0115 10.2305 13.1331 10.1774C13.2547 10.1244 13.3837 10.0984 13.5129 10.0999L13.5129 10.1H13.5189ZM18.7501 28.1H19.2501V27.6V25.8V25.3H18.7501H17.0626H16.5626V25.8V27.6V28.1H17.0626H18.7501ZM18.7501 23.6H19.2501V23.1V21.3V20.8H18.7501H17.0626H16.5626V21.3V23.1V23.6H17.0626H18.7501ZM18.7501 19.1H19.2501V18.6V16.8V16.3H18.7501H17.0626H16.5626V16.8V18.6V19.1H17.0626H18.7501ZM23.8125 28.1H24.3125V27.6V25.8V25.3H23.8125H22.1251H21.6251V25.8V27.6V28.1H22.1251H23.8125ZM23.8125 23.6H24.3125V23.1V21.3V20.8H23.8125H22.1251H21.6251V21.3V23.1V23.6H22.1251H23.8125ZM23.8125 19.1H24.3125V18.6V16.8V16.3H23.8125H22.1251H21.6251V16.8V18.6V19.1H22.1251H23.8125ZM28.8749 28.1H29.3749V27.6V25.8V25.3H28.8749H27.1875H26.6875V25.8V27.6V28.1H27.1875H28.8749ZM28.8749 23.6H29.3749V23.1V21.3V20.8H28.8749H27.1875H26.6875V21.3V23.1V23.6H27.1875H28.8749ZM28.8749 19.1H29.3749V18.6V16.8V16.3H28.8749H27.1875H26.6875V16.8V18.6V19.1H27.1875H28.8749ZM33.9374 28.1H34.4374V27.6V25.8V25.3H33.9374H32.2499H31.7499V25.8V27.6V28.1H32.2499H33.9374ZM33.9374 23.6H34.4374V23.1V21.3V20.8H33.9374H32.2499H31.7499V21.3V23.1V23.6H32.2499H33.9374ZM33.9374 19.1H34.4374V18.6V16.8V16.3H33.9374H32.2499H31.7499V16.8V18.6V19.1H32.2499H33.9374Z" fill="white" fill-opacity="0.8" stroke="#880000"/>
<path d="M18.9819 12.5944C18.9146 12.6662 18.8305 12.7 18.7501 12.7C18.6697 12.7 18.5856 12.6662 18.5183 12.5944C18.4499 12.5215 18.4064 12.4161 18.4064 12.3V6.9C18.4064 6.78387 18.4499 6.67848 18.5183 6.60557C18.5856 6.53376 18.6697 6.5 18.7501 6.5C18.8305 6.5 18.9146 6.53376 18.9819 6.60557C19.0503 6.67848 19.0938 6.78387 19.0938 6.9V12.3C19.0938 12.4161 19.0503 12.5215 18.9819 12.5944Z" fill="white" fill-opacity="0.8" stroke="#880000"/>
<path d="M32.4817 12.5944C32.4144 12.6662 32.3303 12.7 32.2499 12.7C32.1695 12.7 32.0854 12.6662 32.0181 12.5944C31.9497 12.5215 31.9062 12.4161 31.9062 12.3V6.9C31.9062 6.78387 31.9497 6.67848 32.0181 6.60557C32.0854 6.53376 32.1695 6.5 32.2499 6.5C32.3303 6.5 32.4144 6.53376 32.4817 6.60557C32.5501 6.67848 32.5936 6.78387 32.5936 6.9V12.3C32.5936 12.4161 32.5501 12.5215 32.4817 12.5944Z" fill="white" fill-opacity="0.8" stroke="#880000"/>
</svg>
