<svg width="57" height="58" viewBox="0 0 57 58" fill="none" xmlns="http://www.w3.org/2000/svg">
<path d="M49.95 25.1365C52.9437 25.1566 53.9131 24.3087 54.2863 23.7583C55.6757 21.94 53.4997 18.4549 48.398 15.811C50.3767 12.0696 51.7527 8.716 52.4468 6.30718C52.8234 4.98913 52.5683 4.19028 52.497 4.05101C52.3053 5.2231 50.731 9.45023 47.1267 15.1982C44.3413 13.9481 40.8295 12.9587 36.6792 12.5465C35.6832 10.6591 32.7931 5.43145 29.9408 2.63825C28.0646 0.794315 26.5627 0.118019 25.3906 0.0233153H25.385C23.8441 -0.14938 22.8592 0.675099 22.3322 1.24889C20.4159 3.31343 19.6215 6.6938 19.5468 10.6156C18.7402 9.23965 17.6338 7.87146 16.3715 7.72662H16.3514C14.0496 7.3389 12.0741 10.9822 12.3404 16.7836C8.06651 16.9374 4.4299 17.4243 1.97875 18.0348C0.875729 18.3078 0.171581 18.8448 0 19.1178C0.111416 19.0755 2.49572 18.0905 12.4296 18.0905C13.0112 23.9956 15.7442 29.4349 15.3264 28.4734C14.2423 30.1892 11.0658 35.4213 10.0553 39.3588C9.40128 41.908 9.5684 43.5491 10.072 44.6109C10.6926 46.0315 11.9003 46.4738 12.6569 46.6454C15.4422 47.2816 18.8271 46.2409 22.3166 44.29C21.4777 45.7206 20.7679 47.4665 21.3072 48.6731C22.1216 50.8625 26.2641 50.7522 31.1608 47.6203C33.4092 51.2056 35.6252 54.0757 37.3667 55.8784C37.6525 56.1866 37.9808 56.4526 38.3416 56.6684C38.9142 57.026 39.2975 57.0438 39.2975 57.0438C38.3794 56.2918 35.5094 52.81 32.3296 46.8181C34.8052 45.0354 37.4157 42.4873 39.8468 39.1003C53.5309 39.6128 55.8116 36.3416 56.3364 35.5751C57.9708 33.3601 56.7185 29.1753 49.95 25.1365V25.1365ZM41.2763 36.9711C43.9291 32.7696 44.6566 29.4204 44.5575 26.6841C47.6615 28.6416 49.8141 30.8711 50.0235 33.2387C50.1505 34.6793 49.1211 36.4831 41.2763 36.9711ZM24.1338 43.1937C25.2212 42.4996 26.3098 41.7319 27.3872 40.9108C28.1314 42.396 28.9024 43.8187 29.6823 45.1658C25.1588 47.6013 22.0124 46.5874 24.1338 43.1937V43.1937ZM48.0882 24.1026C46.9418 23.5076 45.7307 22.9505 44.4806 22.4257C45.366 21.081 46.211 19.7099 47.0142 18.3145C51.3661 20.9996 52.1282 24.2396 48.0882 24.1026V24.1026ZM31.0728 44.3424C30.4589 43.0778 29.8472 41.7241 29.2344 40.2824C34.0532 40.4239 36.189 38.1956 36.2848 38.0084C36.2848 38.0162 33.4994 39.7509 29.318 39.3732C32.7314 36.5222 35.9014 33.3917 38.795 30.0143C39.7651 28.8771 40.691 27.7217 41.5726 26.5481C41.5325 26.5158 41.401 26.2139 39.7332 25.2111C33.9729 31.9262 28.3308 36.1299 24.9427 38.1265C22.6486 36.8809 20.3925 34.5857 18.7357 31.2755C16.5074 26.8278 15.3932 22.096 15.2183 18.3435C16.5887 18.4448 18.0338 18.5852 19.5468 18.7758C17.0634 22.8759 17.9435 25.795 18.046 25.932C18.046 25.9242 17.9402 22.682 20.29 19.295C21.2913 25.1431 22.9612 30.8569 25.2669 36.3238C25.3705 36.2814 25.4719 36.4218 27.347 35.4046C24.4135 27.1074 23.5856 20.0102 23.5589 16.0817C25.7872 14.6979 28.9269 13.8757 32.6538 14.0974C37.6196 14.3949 42.2757 15.7965 45.6137 17.519C44.8197 18.6822 43.9532 19.8881 43.0143 21.1367C40.7047 16.934 37.7488 16.2477 37.5706 16.2656C37.5828 16.2656 40.4562 17.8332 42.1966 21.5266C38.0188 19.9934 33.7203 18.8116 29.3458 17.9936C27.8902 17.7239 26.4266 17.4991 24.9572 17.3195C24.9494 17.3697 24.7555 17.5257 24.7165 19.5846C33.3925 21.1991 39.9415 24.029 43.3486 25.9587C43.431 28.5826 42.5743 31.7089 40.5175 34.8241C37.7767 38.9811 34.2348 42.3146 31.0728 44.3424ZM34.1256 12.366C29.1609 12.181 25.9276 13.1938 23.5756 14.669C23.7984 8.8419 25.9499 6.159 27.8328 6.28156C29.7157 5.80915 33.9495 12.093 34.1256 12.366ZM19.5691 12.7114C19.6226 14.0606 19.7462 15.4544 19.9267 16.865C18.3056 16.7703 16.7246 16.7257 15.2027 16.7246C15.1938 17.0856 15.1893 11.0424 17.9513 11.1995H17.9614C18.6031 11.3209 19.1457 11.966 19.5691 12.7114ZM16.4428 30.7608C18.7558 35.184 21.2671 37.5093 23.7127 38.8173C18.4995 41.5759 15.0746 41.0456 14.2512 39.3198C14.2289 39.2964 13.0112 37.6151 16.4428 30.7619V30.7608Z" fill="white"/>
</svg>
