<svg width="86" height="86" viewBox="0 0 86 86" fill="none" xmlns="http://www.w3.org/2000/svg">
<g filter="url(#filter0_d)">
<rect x="1" y="1" width="78" height="78" rx="22" fill="#000056" stroke="#777777"/>
<g filter="url(#filter1_d)">
<path d="M29.6016 40.9141V36.5312H39.3516V26.7812H43.7344V36.5312H53.4844V40.9141H43.7344V50.6875H39.3516V40.9141H29.6016Z" fill="white" fill-opacity="0.9"/>
<path d="M29.6016 40.9141H29.1016V41.4141H29.6016V40.9141ZM29.6016 36.5312V36.0312H29.1016V36.5312H29.6016ZM39.3516 36.5312V37.0312H39.8516V36.5312H39.3516ZM39.3516 26.7812V26.2812H38.8516V26.7812H39.3516ZM43.7344 26.7812H44.2344V26.2812H43.7344V26.7812ZM43.7344 36.5312H43.2344V37.0312H43.7344V36.5312ZM53.4844 36.5312H53.9844V36.0312H53.4844V36.5312ZM53.4844 40.9141V41.4141H53.9844V40.9141H53.4844ZM43.7344 40.9141V40.4141H43.2344V40.9141H43.7344ZM43.7344 50.6875V51.1875H44.2344V50.6875H43.7344ZM39.3516 50.6875H38.8516V51.1875H39.3516V50.6875ZM39.3516 40.9141H39.8516V40.4141H39.3516V40.9141ZM30.1016 40.9141V36.5312H29.1016V40.9141H30.1016ZM29.6016 37.0312H39.3516V36.0312H29.6016V37.0312ZM39.8516 36.5312V26.7812H38.8516V36.5312H39.8516ZM39.3516 27.2812H43.7344V26.2812H39.3516V27.2812ZM43.2344 26.7812V36.5312H44.2344V26.7812H43.2344ZM43.7344 37.0312H53.4844V36.0312H43.7344V37.0312ZM52.9844 36.5312V40.9141H53.9844V36.5312H52.9844ZM53.4844 40.4141H43.7344V41.4141H53.4844V40.4141ZM43.2344 40.9141V50.6875H44.2344V40.9141H43.2344ZM43.7344 50.1875H39.3516V51.1875H43.7344V50.1875ZM39.8516 50.6875V40.9141H38.8516V50.6875H39.8516ZM39.3516 40.4141H29.6016V41.4141H39.3516V40.4141Z" fill="#777777"/>
</g>
</g>
<defs>
<filter id="filter0_d" x="0.5" y="0.5" width="85" height="85" filterUnits="userSpaceOnUse" color-interpolation-filters="sRGB">
<feFlood flood-opacity="0" result="BackgroundImageFix"/>
<feColorMatrix in="SourceAlpha" type="matrix" values="0 0 0 0 0 0 0 0 0 0 0 0 0 0 0 0 0 0 127 0"/>
<feOffset dx="4" dy="4"/>
<feGaussianBlur stdDeviation="1"/>
<feColorMatrix type="matrix" values="0 0 0 0 0 0 0 0 0 0 0 0 0 0 0 0 0 0 0.5 0"/>
<feBlend mode="normal" in2="BackgroundImageFix" result="effect1_dropShadow"/>
<feBlend mode="normal" in="SourceGraphic" in2="effect1_dropShadow" result="shape"/>
</filter>
<filter id="filter1_d" x="29.1016" y="26.2812" width="28.8828" height="30.9062" filterUnits="userSpaceOnUse" color-interpolation-filters="sRGB">
<feFlood flood-opacity="0" result="BackgroundImageFix"/>
<feColorMatrix in="SourceAlpha" type="matrix" values="0 0 0 0 0 0 0 0 0 0 0 0 0 0 0 0 0 0 127 0"/>
<feOffset dx="2" dy="4"/>
<feGaussianBlur stdDeviation="1"/>
<feColorMatrix type="matrix" values="0 0 0 0 0 0 0 0 0 0 0 0 0 0 0 0 0 0 1 0"/>
<feBlend mode="normal" in2="BackgroundImageFix" result="effect1_dropShadow"/>
<feBlend mode="normal" in="SourceGraphic" in2="effect1_dropShadow" result="shape"/>
</filter>
</defs>
</svg>
