<svg width="60" height="40" viewBox="0 0 60 40" fill="none" xmlns="http://www.w3.org/2000/svg">
<path opacity="0.7" d="M0 0H48C54.6274 0 60 5.37258 60 12V28C60 34.6274 54.6274 40 48 40H0V0Z" fill="#F8F8F8"/>
<path d="M41.9419 25.1181C42.2252 24.4431 41.4155 23.8681 40.7363 24.1681C39.3788 24.764 37.912 25.0705 36.4294 25.0681C30.6168 25.0681 25.9056 20.4514 25.9056 14.7556C25.9035 12.8325 26.4499 10.9486 27.4807 9.32508C27.8751 8.70286 27.4015 7.84175 26.6793 8.02508C21.1112 9.44591 17 14.407 17 20.3084C17 27.3181 22.7987 33 29.9529 33C35.3696 33 40.0086 29.7431 41.9419 25.1181Z" stroke="black" stroke-opacity="0.66" stroke-width="2"/>
<path d="M34.5155 8.14304C33.7793 7.65138 32.9016 8.52915 33.3918 9.26526L34.2669 10.5778C34.6218 11.1099 34.8112 11.7353 34.8112 12.375C34.8112 13.0147 34.6218 13.64 34.2669 14.1722L33.3918 15.4847C32.9016 16.2208 33.7807 17.0986 34.5169 16.6069L35.828 15.7319C36.3602 15.377 36.9855 15.1875 37.6252 15.1875C38.2649 15.1875 38.8903 15.377 39.4225 15.7319L40.735 16.6069C41.4711 17.0986 42.3489 16.2208 41.8572 15.4847L40.9822 14.1722C40.6272 13.64 40.4378 13.0147 40.4378 12.375C40.4378 11.7353 40.6272 11.1099 40.9822 10.5778L41.8572 9.26526C42.3489 8.52915 41.4711 7.65138 40.7336 8.14304L39.4225 9.01804C38.8903 9.37299 38.2649 9.56242 37.6252 9.56242C36.9855 9.56242 36.3602 9.37299 35.828 9.01804L34.5155 8.14304V8.14304Z" stroke="black" stroke-opacity="0.66" stroke-width="2"/>
</svg>
