<svg width="60" height="40" viewBox="0 0 60 40" fill="none" xmlns="http://www.w3.org/2000/svg">
<path opacity="0.7" d="M0 12C0 5.37258 5.37258 0 12 0H60V40H12C5.37258 40 0 34.6274 0 28V12Z" fill="#505050"/>
<path d="M35 5C35.3978 5 35.7794 5.15804 36.0607 5.43934C36.342 5.72064 36.5 6.10218 36.5 6.5V8C36.5 8.39782 36.342 8.77936 36.0607 9.06066C35.7794 9.34196 35.3978 9.5 35 9.5C34.6022 9.5 34.2206 9.34196 33.9393 9.06066C33.658 8.77936 33.5 8.39782 33.5 8V6.5C33.5 6.10218 33.658 5.72064 33.9393 5.43934C34.2206 5.15804 34.6022 5 35 5ZM45.6065 9.3935C45.8877 9.67479 46.0457 10.0563 46.0457 10.454C46.0457 10.8517 45.8877 11.2332 45.6065 11.5145L44.546 12.575C44.4076 12.7183 44.2421 12.8325 44.0591 12.9112C43.8761 12.9898 43.6793 13.0311 43.4801 13.0329C43.2809 13.0346 43.0834 12.9967 42.8991 12.9212C42.7147 12.8458 42.5472 12.7344 42.4064 12.5936C42.2656 12.4528 42.1542 12.2853 42.0788 12.1009C42.0033 11.9166 41.9654 11.7191 41.9671 11.5199C41.9689 11.3207 42.0102 11.1239 42.0888 10.9409C42.1675 10.7579 42.2817 10.5924 42.425 10.454L43.4855 9.3935C43.7668 9.11229 44.1483 8.95432 44.546 8.95432C44.9437 8.95432 45.3252 9.11229 45.6065 9.3935ZM24.3935 9.3935C24.6748 9.11229 25.0563 8.95432 25.454 8.95432C25.8517 8.95432 26.2332 9.11229 26.5145 9.3935L27.575 10.454C27.8482 10.7369 27.9994 11.1158 27.996 11.5091C27.9926 11.9024 27.8348 12.2786 27.5567 12.5567C27.2786 12.8348 26.9024 12.9926 26.5091 12.996C26.1158 12.9994 25.7369 12.8482 25.454 12.575L24.3935 11.5145C24.1123 11.2332 23.9543 10.8517 23.9543 10.454C23.9543 10.0563 24.1123 9.67479 24.3935 9.3935ZM35 14C33.4087 14 31.8826 14.6321 30.7574 15.7574C29.6321 16.8826 29 18.4087 29 20C29 21.5913 29.6321 23.1174 30.7574 24.2426C31.8826 25.3679 33.4087 26 35 26C36.5913 26 38.1174 25.3679 39.2426 24.2426C40.3679 23.1174 41 21.5913 41 20C41 18.4087 40.3679 16.8826 39.2426 15.7574C38.1174 14.6321 36.5913 14 35 14ZM26 20C26 17.6131 26.9482 15.3239 28.636 13.636C30.3239 11.9482 32.6131 11 35 11C37.3869 11 39.6761 11.9482 41.364 13.636C43.0518 15.3239 44 17.6131 44 20C44 22.3869 43.0518 24.6761 41.364 26.364C39.6761 28.0518 37.3869 29 35 29C32.6131 29 30.3239 28.0518 28.636 26.364C26.9482 24.6761 26 22.3869 26 20ZM20 20C20 19.6022 20.158 19.2206 20.4393 18.9393C20.7206 18.658 21.1022 18.5 21.5 18.5H23C23.3978 18.5 23.7794 18.658 24.0607 18.9393C24.342 19.2206 24.5 19.6022 24.5 20C24.5 20.3978 24.342 20.7794 24.0607 21.0607C23.7794 21.342 23.3978 21.5 23 21.5H21.5C21.1022 21.5 20.7206 21.342 20.4393 21.0607C20.158 20.7794 20 20.3978 20 20ZM45.5 20C45.5 19.6022 45.658 19.2206 45.9393 18.9393C46.2206 18.658 46.6022 18.5 47 18.5H48.5C48.8978 18.5 49.2794 18.658 49.5607 18.9393C49.842 19.2206 50 19.6022 50 20C50 20.3978 49.842 20.7794 49.5607 21.0607C49.2794 21.342 48.8978 21.5 48.5 21.5H47C46.6022 21.5 46.2206 21.342 45.9393 21.0607C45.658 20.7794 45.5 20.3978 45.5 20ZM25.454 27.425C25.7369 27.1518 26.1158 27.0006 26.5091 27.004C26.9024 27.0074 27.2786 27.1652 27.5567 27.4433C27.8348 27.7214 27.9926 28.0976 27.996 28.4909C27.9994 28.8842 27.8482 29.2631 27.575 29.546L26.5145 30.6065C26.2316 30.8797 25.8527 31.0309 25.4594 31.0275C25.0661 31.0241 24.6899 30.8663 24.4118 30.5882C24.1337 30.3101 23.9759 29.9339 23.9725 29.5406C23.9691 29.1473 24.1203 28.7684 24.3935 28.4855L25.454 27.425ZM42.425 29.546C42.1518 29.2631 42.0006 28.8842 42.004 28.4909C42.0074 28.0976 42.1652 27.7214 42.4433 27.4433C42.7214 27.1652 43.0976 27.0074 43.4909 27.004C43.8842 27.0006 44.2631 27.1518 44.546 27.425L45.6065 28.4855C45.8797 28.7684 46.0309 29.1473 46.0275 29.5406C46.0241 29.9339 45.8663 30.3101 45.5882 30.5882C45.3101 30.8663 44.9339 31.0241 44.5406 31.0275C44.1473 31.0309 43.7684 30.8797 43.4855 30.6065L42.425 29.546ZM35 30.5C35.3978 30.5 35.7794 30.658 36.0607 30.9393C36.342 31.2206 36.5 31.6022 36.5 32V33.5C36.5 33.8978 36.342 34.2794 36.0607 34.5607C35.7794 34.842 35.3978 35 35 35C34.6022 35 34.2206 34.842 33.9393 34.5607C33.658 34.2794 33.5 33.8978 33.5 33.5V32C33.5 31.6022 33.658 31.2206 33.9393 30.9393C34.2206 30.658 34.6022 30.5 35 30.5Z" fill="white" fill-opacity="0.66"/>
</svg>
