<svg width="86" height="86" viewBox="0 0 86 86" fill="none" xmlns="http://www.w3.org/2000/svg">
<g filter="url(#filter0_d)">
<rect x="1" y="1" width="78" height="78" rx="39" fill="#041179" stroke="#777777"/>
<g filter="url(#filter1_d)">
<path d="M30.2891 39.2266C30.2891 34.6953 30.7344 31.25 31.625 28.8906C32.5312 26.5156 33.8281 24.75 35.5156 23.5938C37.2188 22.4219 39.2344 21.8359 41.5625 21.8359C43.8594 21.8359 45.7422 22.3359 47.2109 23.3359C48.6797 24.3359 49.7969 25.9062 50.5625 28.0469C51.3281 30.1875 51.7109 33.4609 51.7109 37.8672C51.7109 42.4141 51.25 45.9297 50.3281 48.4141C49.4062 50.8828 48.1328 52.7031 46.5078 53.875C44.8828 55.0469 42.9297 55.6328 40.6484 55.6328C38.4453 55.6328 36.5469 55.0859 34.9531 53.9922C33.3594 52.8984 32.1797 51.3047 31.4141 49.2109C30.6641 47.1172 30.2891 43.7891 30.2891 39.2266ZM36.1016 36.1562C36.1016 41.125 36.3281 44.8047 36.7812 47.1953C37.2344 49.5859 37.8906 51.2188 38.75 52.0938C39.4062 52.75 40.2188 53.0781 41.1875 53.0781C42.6719 53.0781 43.7812 52.3906 44.5156 51.0156C45.4375 49.3281 45.8984 46.0312 45.8984 41.125C45.8984 35.1406 45.4609 30.6953 44.5859 27.7891C43.9141 25.5078 42.6562 24.3672 40.8125 24.3672C39.3281 24.3672 38.1719 25.1172 37.3438 26.6172C36.5156 28.1016 36.1016 31.2812 36.1016 36.1562Z" fill="white" fill-opacity="0.9"/>
<path d="M31.625 28.8906L31.1579 28.7124L31.1572 28.714L31.625 28.8906ZM35.5156 23.5938L35.7982 24.0062L35.799 24.0057L35.5156 23.5938ZM50.3281 48.4141L50.7965 48.589L50.7969 48.588L50.3281 48.4141ZM31.4141 49.2109L30.9433 49.3796L30.9445 49.3827L31.4141 49.2109ZM38.75 52.0938L38.3933 52.4441L38.3964 52.4473L38.75 52.0938ZM44.5156 51.0156L44.0768 50.7759L44.0746 50.7801L44.5156 51.0156ZM44.5859 27.7891L44.1063 27.9303L44.1072 27.9332L44.5859 27.7891ZM37.3438 26.6172L37.7804 26.8608L37.7815 26.8588L37.3438 26.6172ZM30.7891 39.2266C30.7891 34.7154 31.2341 31.3419 32.0928 29.0672L31.1572 28.714C30.2346 31.1581 29.7891 34.6752 29.7891 39.2266H30.7891ZM32.0921 29.0689C32.971 26.7657 34.2131 25.0924 35.7982 24.0062L35.233 23.1813C33.4432 24.4076 32.0915 26.2656 31.1579 28.7124L32.0921 29.0689ZM35.799 24.0057C37.4085 22.8982 39.3223 22.3359 41.5625 22.3359V21.3359C39.1464 21.3359 37.029 21.9455 35.2322 23.1818L35.799 24.0057ZM41.5625 22.3359C43.7882 22.3359 45.565 22.8202 46.9295 23.7492L47.4923 22.9226C45.9194 21.8517 43.9306 21.3359 41.5625 21.3359V22.3359ZM46.9295 23.7492C48.2891 24.6749 49.3517 26.1463 50.0917 28.2153L51.0333 27.8785C50.242 25.6662 49.0702 23.997 47.4923 22.9226L46.9295 23.7492ZM50.0917 28.2153C50.8274 30.2722 51.2109 33.4749 51.2109 37.8672H52.2109C52.2109 33.4469 51.8288 30.1028 51.0333 27.8785L50.0917 28.2153ZM51.2109 37.8672C51.2109 42.3909 50.7509 45.8375 49.8594 48.2401L50.7969 48.588C51.7491 46.0219 52.2109 42.4372 52.2109 37.8672H51.2109ZM49.8597 48.2392C48.9617 50.6441 47.7385 52.371 46.2154 53.4695L46.8003 54.2805C48.5271 53.0352 49.8508 51.1215 50.7965 48.589L49.8597 48.2392ZM46.2154 53.4695C44.687 54.5716 42.8398 55.1328 40.6484 55.1328V56.1328C43.0195 56.1328 45.0786 55.5221 46.8003 54.2805L46.2154 53.4695ZM40.6484 55.1328C38.5317 55.1328 36.7352 54.6088 35.236 53.5799L34.6702 54.4044C36.3585 55.5631 38.3589 56.1328 40.6484 56.1328V55.1328ZM35.236 53.5799C33.7407 52.5537 32.6192 51.0508 31.8837 49.0392L30.9445 49.3827C31.7401 51.5585 32.9781 53.2432 34.6702 54.4044L35.236 53.5799ZM31.8848 49.0423C31.1654 47.0342 30.7891 43.779 30.7891 39.2266H29.7891C29.7891 43.7991 30.1627 47.2002 30.9434 49.3796L31.8848 49.0423ZM35.6016 36.1562C35.6016 41.131 35.8277 44.8496 36.29 47.2884L37.2725 47.1022C36.8285 44.7598 36.6016 41.119 36.6016 36.1562H35.6016ZM36.29 47.2884C36.7465 49.6969 37.424 51.4572 38.3933 52.4441L39.1067 51.7434C38.3572 50.9803 37.7222 49.475 37.2725 47.1022L36.29 47.2884ZM38.3964 52.4473C39.1509 53.2018 40.0926 53.5781 41.1875 53.5781V52.5781C40.3449 52.5781 39.6616 52.2982 39.1036 51.7402L38.3964 52.4473ZM41.1875 53.5781C42.0097 53.5781 42.752 53.3867 43.3962 52.9875C44.0391 52.5891 44.5561 52.0012 44.9567 51.2512L44.0746 50.7801C43.7408 51.405 43.3359 51.8484 42.8694 52.1375C42.4043 52.4258 41.8497 52.5781 41.1875 52.5781V53.5781ZM44.9544 51.2553C45.458 50.3335 45.8143 49.0176 46.0479 47.3466C46.2827 45.6672 46.3984 43.5915 46.3984 41.125H45.3984C45.3984 43.5647 45.2837 45.5906 45.0576 47.2081C44.8302 48.8339 44.4951 50.0103 44.0768 50.7759L44.9544 51.2553ZM46.3984 41.125C46.3984 35.1295 45.9616 30.6239 45.0647 27.6449L44.1072 27.9332C44.9603 30.7667 45.3984 35.1517 45.3984 41.125H46.3984ZM45.0656 27.6478C44.7136 26.4527 44.1935 25.5043 43.4746 24.8523C42.7454 24.1911 41.847 23.8672 40.8125 23.8672V24.8672C41.6218 24.8672 42.2741 25.1136 42.8028 25.593C43.3416 26.0817 43.7864 26.8441 44.1063 27.9303L45.0656 27.6478ZM40.8125 23.8672C39.1145 23.8672 37.8058 24.7458 36.906 26.3755L37.7815 26.8588C38.538 25.4886 39.5417 24.8672 40.8125 24.8672V23.8672ZM36.9071 26.3736C36.4457 27.2007 36.1256 28.4436 35.9163 30.0507C35.7054 31.6699 35.6016 33.707 35.6016 36.1562H36.6016C36.6016 33.7305 36.7047 31.7403 36.9079 30.1798C37.1127 28.6071 37.4137 27.518 37.7804 26.8608L36.9071 26.3736Z" fill="#777777"/>
</g>
</g>
<defs>
<filter id="filter0_d" x="0.5" y="0.5" width="85" height="85" filterUnits="userSpaceOnUse" color-interpolation-filters="sRGB">
<feFlood flood-opacity="0" result="BackgroundImageFix"/>
<feColorMatrix in="SourceAlpha" type="matrix" values="0 0 0 0 0 0 0 0 0 0 0 0 0 0 0 0 0 0 127 0"/>
<feOffset dx="4" dy="4"/>
<feGaussianBlur stdDeviation="1"/>
<feColorMatrix type="matrix" values="0 0 0 0 0 0 0 0 0 0 0 0 0 0 0 0 0 0 0.5 0"/>
<feBlend mode="normal" in2="BackgroundImageFix" result="effect1_dropShadow"/>
<feBlend mode="normal" in="SourceGraphic" in2="effect1_dropShadow" result="shape"/>
</filter>
<filter id="filter1_d" x="29.7891" y="21.3359" width="26.4219" height="40.7969" filterUnits="userSpaceOnUse" color-interpolation-filters="sRGB">
<feFlood flood-opacity="0" result="BackgroundImageFix"/>
<feColorMatrix in="SourceAlpha" type="matrix" values="0 0 0 0 0 0 0 0 0 0 0 0 0 0 0 0 0 0 127 0"/>
<feOffset dx="2" dy="4"/>
<feGaussianBlur stdDeviation="1"/>
<feColorMatrix type="matrix" values="0 0 0 0 0 0 0 0 0 0 0 0 0 0 0 0 0 0 1 0"/>
<feBlend mode="normal" in2="BackgroundImageFix" result="effect1_dropShadow"/>
<feBlend mode="normal" in="SourceGraphic" in2="effect1_dropShadow" result="shape"/>
</filter>
</defs>
</svg>
