<svg width="86" height="86" viewBox="0 0 86 86" fill="none" xmlns="http://www.w3.org/2000/svg">
<g filter="url(#filter0_d)">
<rect x="1" y="1" width="78" height="78" rx="39" fill="#467DF4" stroke="#9E1212"/>
<g filter="url(#filter1_d)">
<path d="M30.8594 55.1641L30.625 54.8828V53.4766L30.8594 53.1953C33.8594 52.9297 35.5469 52.7188 35.9219 52.5625C36.2188 52.4375 36.4297 52.2422 36.5547 51.9766C36.7578 51.5391 36.8984 50 36.9766 47.3594C37.1016 42.8438 37.1641 38.8438 37.1641 35.3594C37.1641 30.7812 37.1172 28.2344 37.0234 27.7188C36.9609 27.4375 36.8125 27.2969 36.5781 27.2969C36.4375 27.2969 36.2188 27.3594 35.9219 27.4844L29.4766 30.4375L29.1719 30.25C29.0469 29.1094 28.8828 28.1562 28.6797 27.3906L28.8672 27.0391C34.7422 25.3516 39.6172 23.7188 43.4922 22.1406L44.1016 22.4922C43.8984 24.6641 43.7422 27.625 43.6328 31.375C43.5391 35.125 43.4922 39.6641 43.4922 44.9922C43.4922 48.6328 43.5938 50.8984 43.7969 51.7891C43.8906 52.1953 44.0703 52.4688 44.3359 52.6094C44.7266 52.8281 46.3125 53.0234 49.0938 53.1953L49.375 53.4766V54.8828L49.0938 55.1641L46.1875 55.0938C43.25 55.0312 41.2656 55 40.2344 55C37.3594 55 34.2344 55.0547 30.8594 55.1641Z" fill="#9E1212"/>
<path d="M30.8594 55.1641L30.4753 55.4842L30.6316 55.6717L30.8756 55.6638L30.8594 55.1641ZM30.625 54.8828H30.125V55.0638L30.2409 55.2029L30.625 54.8828ZM30.625 53.4766L30.2409 53.1565L30.125 53.2955V53.4766H30.625ZM30.8594 53.1953L30.8153 52.6973L30.6083 52.7156L30.4753 52.8752L30.8594 53.1953ZM35.9219 52.5625L36.1142 53.024L36.1159 53.0233L35.9219 52.5625ZM36.5547 51.9766L37.0071 52.1895L37.0082 52.1871L36.5547 51.9766ZM36.9766 47.3594L37.4763 47.3742L37.4764 47.3732L36.9766 47.3594ZM37.0234 27.7188L37.5154 27.6293L37.5136 27.6198L37.5115 27.6103L37.0234 27.7188ZM35.9219 27.4844L35.7278 27.0236L35.7207 27.0266L35.7136 27.0298L35.9219 27.4844ZM29.4766 30.4375L29.2145 30.8633L29.442 31.0033L29.6848 30.8921L29.4766 30.4375ZM29.1719 30.25L28.6749 30.3045L28.7015 30.5476L28.9098 30.6758L29.1719 30.25ZM28.6797 27.3906L28.2385 27.1553L28.146 27.3288L28.1964 27.5188L28.6797 27.3906ZM28.8672 27.0391L28.7292 26.5585L28.5256 26.6169L28.426 26.8038L28.8672 27.0391ZM43.4922 22.1406L43.742 21.7075L43.5302 21.5853L43.3036 21.6776L43.4922 22.1406ZM44.1016 22.4922L44.5994 22.5387L44.6293 22.2194L44.3514 22.0591L44.1016 22.4922ZM43.6328 31.375L43.133 31.3604L43.133 31.3625L43.6328 31.375ZM43.7969 51.7891L43.3094 51.9002L43.3097 51.9015L43.7969 51.7891ZM44.3359 52.6094L44.5803 52.173L44.5699 52.1675L44.3359 52.6094ZM49.0938 53.1953L49.4473 52.8418L49.3135 52.7079L49.1246 52.6963L49.0938 53.1953ZM49.375 53.4766H49.875V53.2695L49.7286 53.123L49.375 53.4766ZM49.375 54.8828L49.7286 55.2364L49.875 55.0899V54.8828H49.375ZM49.0938 55.1641L49.0817 55.6639L49.2958 55.6691L49.4473 55.5176L49.0938 55.1641ZM46.1875 55.0938L46.1996 54.5939L46.1981 54.5939L46.1875 55.0938ZM31.2435 54.844L31.0091 54.5627L30.2409 55.2029L30.4753 55.4842L31.2435 54.844ZM31.125 54.8828V53.4766H30.125V54.8828H31.125ZM31.0091 53.7967L31.2435 53.5154L30.4753 52.8752L30.2409 53.1565L31.0091 53.7967ZM30.9035 53.6934C32.4057 53.5604 33.5845 53.4406 34.437 53.334C34.8629 53.2808 35.2123 53.2302 35.4822 53.1822C35.7369 53.1368 35.9634 53.0868 36.1142 53.024L35.7296 52.101C35.6928 52.1163 35.5678 52.1512 35.3069 52.1977C35.0612 52.2414 34.7308 52.2895 34.313 52.3418C33.478 52.4461 32.3131 52.5646 30.8153 52.6973L30.9035 53.6934ZM36.1159 53.0233C36.5146 52.8554 36.8242 52.578 37.0071 52.1895L36.1023 51.7637C36.0351 51.9064 35.9229 52.0196 35.7278 52.1017L36.1159 53.0233ZM37.0082 52.1871C37.0882 52.0148 37.1437 51.7818 37.1879 51.5276C37.2341 51.2621 37.2746 50.9315 37.3104 50.5396C37.3821 49.7552 37.4372 48.6987 37.4763 47.3742L36.4768 47.3446C36.4378 48.6607 36.3835 49.694 36.3146 50.4486C36.2801 50.8263 36.2425 51.1275 36.2027 51.3562C36.161 51.5961 36.1227 51.7196 36.1012 51.766L37.0082 52.1871ZM37.4764 47.3732C37.6015 42.8542 37.6641 38.8495 37.6641 35.3594H36.6641C36.6641 38.838 36.6017 42.8333 36.4768 47.3455L37.4764 47.3732ZM37.6641 35.3594C37.6641 33.0692 37.6523 31.2844 37.6288 30.0064C37.6058 28.7534 37.5713 27.9371 37.5154 27.6293L36.5315 27.8082C36.5693 28.016 36.6052 28.731 36.629 30.0248C36.6523 31.2937 36.6641 33.0714 36.6641 35.3594H37.6641ZM37.5115 27.6103C37.4672 27.4106 37.3797 27.201 37.2091 27.0394C37.0284 26.8681 36.8031 26.7969 36.5781 26.7969V27.7969C36.5866 27.7969 36.5803 27.7981 36.5654 27.7926C36.5581 27.7899 36.55 27.7861 36.5419 27.781C36.5337 27.776 36.5268 27.7705 36.5214 27.7653C36.5102 27.7548 36.509 27.7493 36.5132 27.7578C36.5178 27.7669 36.5267 27.7884 36.5353 27.8272L37.5115 27.6103ZM36.5781 26.7969C36.3277 26.7969 36.027 26.8976 35.7278 27.0236L36.1159 27.9452C36.2528 27.8876 36.3619 27.8485 36.446 27.8245C36.4876 27.8126 36.5198 27.8053 36.5437 27.8012C36.5681 27.7969 36.5787 27.7969 36.5781 27.7969V26.7969ZM35.7136 27.0298L29.2683 29.9829L29.6848 30.8921L36.1301 27.9389L35.7136 27.0298ZM29.7386 30.0117L29.4339 29.8242L28.9098 30.6758L29.2145 30.8633L29.7386 30.0117ZM29.6689 30.1955C29.5423 29.04 29.3747 28.0603 29.163 27.2624L28.1964 27.5188C28.391 28.2522 28.5515 29.1787 28.6749 30.3045L29.6689 30.1955ZM29.1209 27.6259L29.3084 27.2744L28.426 26.8038L28.2385 27.1553L29.1209 27.6259ZM29.0052 27.5196C34.8903 25.8292 39.7836 24.1908 43.6808 22.6037L43.3036 21.6776C39.4507 23.2467 34.594 24.8739 28.7292 26.5585L29.0052 27.5196ZM43.2423 22.5737L43.8517 22.9253L44.3514 22.0591L43.742 21.7075L43.2423 22.5737ZM43.6037 22.4456C43.3992 24.633 43.2425 27.6061 43.133 31.3604L44.1326 31.3896C44.2418 27.6439 44.3977 24.6951 44.5994 22.5387L43.6037 22.4456ZM43.133 31.3625C43.0391 35.118 42.9922 39.6615 42.9922 44.9922H43.9922C43.9922 39.6667 44.039 35.132 44.1327 31.3875L43.133 31.3625ZM42.9922 44.9922C42.9922 46.8161 43.0176 48.3009 43.0689 49.4443C43.1196 50.5759 43.1967 51.4061 43.3094 51.9002L44.2844 51.6779C44.1939 51.2814 44.1187 50.5334 44.0679 49.3995C44.0175 48.2772 43.9922 46.8089 43.9922 44.9922H42.9922ZM43.3097 51.9015C43.4229 52.3921 43.6642 52.8195 44.102 53.0513L44.5699 52.1675C44.4765 52.118 44.3584 51.9986 44.2841 51.6766L43.3097 51.9015ZM44.0916 53.0456C44.2616 53.1408 44.5002 53.206 44.7505 53.2584C45.0168 53.3142 45.3539 53.3665 45.7572 53.4162C46.565 53.5156 47.6684 53.6082 49.0629 53.6944L49.1246 52.6963C47.7378 52.6106 46.6577 52.5195 45.8795 52.4237C45.4899 52.3757 45.1834 52.3274 44.9555 52.2797C44.8417 52.2558 44.7528 52.2332 44.686 52.2126C44.6528 52.2023 44.6275 52.1933 44.6087 52.1858C44.5995 52.1821 44.5926 52.1791 44.5876 52.1768C44.5852 52.1756 44.5833 52.1747 44.5821 52.1741C44.5808 52.1734 44.5802 52.1731 44.5802 52.1731L44.0916 53.0456ZM48.7402 53.5489L49.0214 53.8301L49.7286 53.123L49.4473 52.8418L48.7402 53.5489ZM48.875 53.4766V54.8828H49.875V53.4766H48.875ZM49.0214 54.5293L48.7402 54.8105L49.4473 55.5176L49.7286 55.2364L49.0214 54.5293ZM49.1058 54.6642L46.1996 54.5939L46.1754 55.5936L49.0817 55.6639L49.1058 54.6642ZM46.1981 54.5939C43.2613 54.5314 41.2718 54.5 40.2344 54.5V55.5C41.2595 55.5 43.2387 55.5311 46.1769 55.5936L46.1981 54.5939ZM40.2344 54.5C37.3531 54.5 34.2227 54.5548 30.8432 54.6643L30.8756 55.6638C34.2461 55.5546 37.3656 55.5 40.2344 55.5V54.5Z" fill="black"/>
</g>
</g>
<defs>
<filter id="filter0_d" x="0.5" y="0.5" width="85" height="85" filterUnits="userSpaceOnUse" color-interpolation-filters="sRGB">
<feFlood flood-opacity="0" result="BackgroundImageFix"/>
<feColorMatrix in="SourceAlpha" type="matrix" values="0 0 0 0 0 0 0 0 0 0 0 0 0 0 0 0 0 0 127 0"/>
<feOffset dx="4" dy="4"/>
<feGaussianBlur stdDeviation="1"/>
<feColorMatrix type="matrix" values="0 0 0 0 0 0 0 0 0 0 0 0 0 0 0 0 0 0 0.5 0"/>
<feBlend mode="normal" in2="BackgroundImageFix" result="effect1_dropShadow"/>
<feBlend mode="normal" in="SourceGraphic" in2="effect1_dropShadow" result="shape"/>
</filter>
<filter id="filter1_d" x="28.146" y="21.5853" width="25.729" height="40.0864" filterUnits="userSpaceOnUse" color-interpolation-filters="sRGB">
<feFlood flood-opacity="0" result="BackgroundImageFix"/>
<feColorMatrix in="SourceAlpha" type="matrix" values="0 0 0 0 0 0 0 0 0 0 0 0 0 0 0 0 0 0 127 0"/>
<feOffset dx="2" dy="4"/>
<feGaussianBlur stdDeviation="1"/>
<feColorMatrix type="matrix" values="0 0 0 0 0 0 0 0 0 0 0 0 0 0 0 0 0 0 0.25 0"/>
<feBlend mode="normal" in2="BackgroundImageFix" result="effect1_dropShadow"/>
<feBlend mode="normal" in="SourceGraphic" in2="effect1_dropShadow" result="shape"/>
</filter>
</defs>
</svg>
