<svg width="86" height="86" viewBox="0 0 86 86" fill="none" xmlns="http://www.w3.org/2000/svg">
<g filter="url(#filter0_d)">
<rect x="1" y="1" width="78" height="78" rx="39" fill="#467DF4" stroke="#9E1212"/>
<g filter="url(#filter1_d)">
<path d="M26.8672 55.2344V52.6094L31.6953 47.8984C35.6641 44.0234 38.2266 41.0703 39.3828 39.0391C40.5391 36.9922 41.1172 35.0156 41.1172 33.1094C41.1172 31.2031 40.6484 29.7422 39.7109 28.7266C38.7734 27.7109 37.4922 27.2031 35.8672 27.2031C34.6641 27.2031 33.6016 27.4688 32.6797 28C31.7734 28.5312 31.2109 29.0547 30.9922 29.5703C30.8984 29.8047 30.5625 31.1328 29.9844 33.5547H28.0156C28.5312 30.4141 28.8516 27.6562 28.9766 25.2812C30.1953 24.0781 31.4922 23.2031 32.8672 22.6562C34.2578 22.1094 35.8281 21.8359 37.5781 21.8359C40.6719 21.8359 43.1172 22.6797 44.9141 24.3672C46.7109 26.0391 47.6094 28.2031 47.6094 30.8594C47.6094 33 46.9062 35.1484 45.5 37.3047C44.0938 39.4609 40.1953 43.4219 33.8047 49.1875L33.9453 49.4922H39.4531C43.5156 49.4922 46.6562 49.3906 48.875 49.1875L49.1328 49.4922C48.9766 50.8359 48.8984 51.8438 48.8984 52.5156C48.8984 53.2031 48.9766 54.0312 49.1328 55L48.875 55.2344C45.8281 55.0781 42.3438 55 38.4219 55C35.5156 55 31.6641 55.0781 26.8672 55.2344Z" fill="#9E1212"/>
<path d="M26.8672 55.2344H26.3672V55.7509L26.8835 55.7341L26.8672 55.2344ZM26.8672 52.6094L26.518 52.2515L26.3672 52.3987V52.6094H26.8672ZM31.6953 47.8984L32.0445 48.2563L32.0446 48.2562L31.6953 47.8984ZM39.3828 39.0391L39.8173 39.2864L39.8182 39.285L39.3828 39.0391ZM32.6797 28L32.43 27.5668L32.4268 27.5687L32.6797 28ZM30.9922 29.5703L30.5318 29.375L30.5279 29.3846L30.9922 29.5703ZM29.9844 33.5547V34.0547H30.3791L30.4707 33.6708L29.9844 33.5547ZM28.0156 33.5547L27.5222 33.4737L27.4268 34.0547H28.0156V33.5547ZM28.9766 25.2812L28.6253 24.9254L28.4874 25.0615L28.4773 25.255L28.9766 25.2812ZM32.8672 22.6562L32.6842 22.1909L32.6824 22.1916L32.8672 22.6562ZM44.9141 24.3672L44.5718 24.7317L44.5735 24.7332L44.9141 24.3672ZM33.8047 49.1875L33.4698 48.8163L33.1965 49.0628L33.3507 49.397L33.8047 49.1875ZM33.9453 49.4922L33.4913 49.7017L33.6254 49.9922H33.9453V49.4922ZM48.875 49.1875L49.2567 48.8645L49.0886 48.6659L48.8294 48.6896L48.875 49.1875ZM49.1328 49.4922L49.6295 49.5499L49.6545 49.3347L49.5145 49.1692L49.1328 49.4922ZM49.1328 55L49.4691 55.37L49.6696 55.1878L49.6264 54.9204L49.1328 55ZM48.875 55.2344L48.8494 55.7337L49.0573 55.7444L49.2113 55.6043L48.875 55.2344ZM27.3672 55.2344V52.6094H26.3672V55.2344H27.3672ZM27.2164 52.9672L32.0445 48.2563L31.3461 47.5406L26.518 52.2515L27.2164 52.9672ZM32.0446 48.2562C36.0136 44.381 38.6228 41.3849 39.8173 39.2864L38.9483 38.7917C37.8303 40.7557 35.3145 43.6659 31.346 47.5407L32.0446 48.2562ZM39.8182 39.285C41.007 37.1804 41.6172 35.1197 41.6172 33.1094H40.6172C40.6172 34.9115 40.0711 36.804 38.9475 38.7931L39.8182 39.285ZM41.6172 33.1094C41.6172 31.1255 41.1289 29.5255 40.0783 28.3874L39.3435 29.0657C40.168 29.9589 40.6172 31.2808 40.6172 33.1094H41.6172ZM40.0783 28.3874C39.0294 27.2511 37.605 26.7031 35.8672 26.7031V27.7031C37.3794 27.7031 38.5174 28.1708 39.3435 29.0657L40.0783 28.3874ZM35.8672 26.7031C34.5881 26.7031 33.4374 26.9863 32.43 27.5668L32.9293 28.4332C33.7658 27.9512 34.74 27.7031 35.8672 27.7031V26.7031ZM32.4268 27.5687C31.4978 28.1132 30.8159 28.7055 30.5319 29.375L31.4525 29.7656C31.6059 29.4039 32.049 28.9493 32.9325 28.4313L32.4268 27.5687ZM30.5279 29.3846C30.4654 29.541 30.3485 29.9739 30.1852 30.6196C30.0164 31.2869 29.7873 32.2269 29.498 33.4386L30.4707 33.6708C30.7596 32.4606 30.9875 31.5256 31.1547 30.8648C31.3273 30.1824 31.4252 29.834 31.4564 29.756L30.5279 29.3846ZM29.9844 33.0547H28.0156V34.0547H29.9844V33.0547ZM28.509 33.6357C29.0267 30.4826 29.3496 27.7058 29.4759 25.3075L28.4773 25.255C28.3535 27.6067 28.0358 30.3455 27.5222 33.4737L28.509 33.6357ZM29.3278 25.6371C30.5064 24.4737 31.7482 23.6394 33.052 23.1209L32.6824 22.1916C31.2362 22.7669 29.8843 23.6826 28.6253 24.9254L29.3278 25.6371ZM33.0502 23.1216C34.3735 22.6012 35.8802 22.3359 37.5781 22.3359V21.3359C35.776 21.3359 34.1422 21.6176 32.6842 22.1909L33.0502 23.1216ZM37.5781 22.3359C40.5786 22.3359 42.8897 23.1519 44.5718 24.7317L45.2563 24.0027C43.3447 22.2074 40.7652 21.3359 37.5781 21.3359V22.3359ZM44.5735 24.7332C46.2597 26.3022 47.1094 28.3292 47.1094 30.8594H48.1094C48.1094 28.077 47.1622 25.7759 45.2547 24.0011L44.5735 24.7332ZM47.1094 30.8594C47.1094 32.8849 46.4453 34.9399 45.0812 37.0316L45.9188 37.5778C47.3672 35.357 48.1094 33.1151 48.1094 30.8594H47.1094ZM45.0812 37.0316C44.4072 38.065 43.1114 39.5644 41.1651 41.5418C39.2255 43.5126 36.6612 45.9369 33.4698 48.8163L34.1396 49.5587C37.3388 46.6725 39.919 44.2335 41.8778 42.2433C43.83 40.2599 45.1865 38.7006 45.9188 37.5778L45.0812 37.0316ZM33.3507 49.397L33.4913 49.7017L34.3993 49.2827L34.2587 48.978L33.3507 49.397ZM33.9453 49.9922H39.4531V48.9922H33.9453V49.9922ZM39.4531 49.9922C43.5207 49.9922 46.6791 49.8906 48.9206 49.6854L48.8294 48.6896C46.6334 48.8906 43.5106 48.9922 39.4531 48.9922V49.9922ZM48.4933 49.5105L48.7511 49.8152L49.5145 49.1692L49.2567 48.8645L48.4933 49.5105ZM48.6362 49.4344C48.4794 50.7823 48.3984 51.8136 48.3984 52.5156H49.3984C49.3984 51.8739 49.4737 50.8896 49.6295 49.5499L48.6362 49.4344ZM48.3984 52.5156C48.3984 53.2384 48.4803 54.0947 48.6392 55.0796L49.6264 54.9204C49.4728 53.9678 49.3984 53.1679 49.3984 52.5156H48.3984ZM48.7965 54.63L48.5387 54.8644L49.2113 55.6043L49.4691 55.37L48.7965 54.63ZM48.9006 54.735C45.8432 54.5782 42.35 54.5 38.4219 54.5V55.5C42.3375 55.5 45.813 55.578 48.8494 55.7337L48.9006 54.735ZM38.4219 54.5C35.5079 54.5 31.6502 54.5783 26.8509 54.7346L26.8835 55.7341C31.6779 55.5779 35.5234 55.5 38.4219 55.5V54.5Z" fill="black"/>
</g>
</g>
<defs>
<filter id="filter0_d" x="0.5" y="0.5" width="85" height="85" filterUnits="userSpaceOnUse" color-interpolation-filters="sRGB">
<feFlood flood-opacity="0" result="BackgroundImageFix"/>
<feColorMatrix in="SourceAlpha" type="matrix" values="0 0 0 0 0 0 0 0 0 0 0 0 0 0 0 0 0 0 127 0"/>
<feOffset dx="4" dy="4"/>
<feGaussianBlur stdDeviation="1"/>
<feColorMatrix type="matrix" values="0 0 0 0 0 0 0 0 0 0 0 0 0 0 0 0 0 0 0.5 0"/>
<feBlend mode="normal" in2="BackgroundImageFix" result="effect1_dropShadow"/>
<feBlend mode="normal" in="SourceGraphic" in2="effect1_dropShadow" result="shape"/>
</filter>
<filter id="filter1_d" x="26.3672" y="21.3359" width="27.3024" height="40.415" filterUnits="userSpaceOnUse" color-interpolation-filters="sRGB">
<feFlood flood-opacity="0" result="BackgroundImageFix"/>
<feColorMatrix in="SourceAlpha" type="matrix" values="0 0 0 0 0 0 0 0 0 0 0 0 0 0 0 0 0 0 127 0"/>
<feOffset dx="2" dy="4"/>
<feGaussianBlur stdDeviation="1"/>
<feColorMatrix type="matrix" values="0 0 0 0 0 0 0 0 0 0 0 0 0 0 0 0 0 0 0.25 0"/>
<feBlend mode="normal" in2="BackgroundImageFix" result="effect1_dropShadow"/>
<feBlend mode="normal" in="SourceGraphic" in2="effect1_dropShadow" result="shape"/>
</filter>
</defs>
</svg>
