<svg width="86" height="86" viewBox="0 0 86 86" fill="none" xmlns="http://www.w3.org/2000/svg">
<g filter="url(#filter0_d)">
<rect x="1" y="1" width="78" height="78" rx="39" fill="#467DF4" stroke="#9E1212"/>
<g filter="url(#filter1_d)">
<path d="M28.125 46.8438L29.7891 46.4219C30.6641 48.7656 31.7344 50.4297 33 51.4141C34.2656 52.3984 35.7422 52.8906 37.4297 52.8906C39.1953 52.8906 40.6406 52.2969 41.7656 51.1094C42.8906 49.9062 43.4531 48.3359 43.4531 46.3984C43.4531 44.4609 42.875 42.9141 41.7188 41.7578C40.5625 40.6016 38.9766 40.0234 36.9609 40.0234C36.2109 40.0234 35.2969 40.1484 34.2188 40.3984L33.8906 40.0703C34.2031 39.1484 34.5312 37.9219 34.875 36.3906C35.5156 36.4531 35.9922 36.4844 36.3047 36.4844C38.0391 36.4844 39.4375 36 40.5 35.0312C41.5781 34.0469 42.1172 32.8125 42.1172 31.3281C42.1172 30.0156 41.6797 28.9453 40.8047 28.1172C39.9453 27.2891 38.7812 26.875 37.3125 26.875C36.3125 26.875 35.3828 27.0547 34.5234 27.4141C33.6641 27.7734 33.0938 28.1328 32.8125 28.4922C32.5312 28.8516 32.0781 29.9453 31.4531 31.7734L29.6016 31.6562C30.3516 28.9844 30.8594 26.5 31.125 24.2031C32.3594 23.3594 33.5938 22.7578 34.8281 22.3984C36.0625 22.0234 37.4219 21.8359 38.9062 21.8359C41.6875 21.8359 43.8359 22.4844 45.3516 23.7812C46.8672 25.0781 47.625 26.7656 47.625 28.8438C47.625 30.375 47.2266 31.7109 46.4297 32.8516C45.6484 33.9766 44.2422 35.0625 42.2109 36.1094C44.0859 36.3281 45.4844 36.7266 46.4062 37.3047C47.3438 37.8828 48.0938 38.7266 48.6562 39.8359C49.2188 40.9297 49.5 42.1797 49.5 43.5859C49.5 47.1641 47.8516 50.1641 44.5547 52.5859C41.7891 54.6172 38.6797 55.6328 35.2266 55.6328C34.1953 55.6328 33.1797 55.5156 32.1797 55.2812C31.1953 55.0469 30.2266 54.7031 29.2734 54.25C28.9766 51.9219 28.5938 49.4531 28.125 46.8438Z" fill="#9E1212"/>
<path d="M28.125 46.8438L28.0021 46.3591L27.5505 46.4736L27.6329 46.9322L28.125 46.8438ZM29.7891 46.4219L30.2575 46.247L30.1007 45.827L29.6662 45.9372L29.7891 46.4219ZM41.7656 51.1094L42.1286 51.4533L42.1308 51.4509L41.7656 51.1094ZM34.2188 40.3984L33.8652 40.752L34.0614 40.9482L34.3317 40.8855L34.2188 40.3984ZM33.8906 40.0703L33.4171 39.9098L33.3173 40.2041L33.5371 40.4239L33.8906 40.0703ZM34.875 36.3906L34.9236 35.893L34.4839 35.8501L34.3871 36.2811L34.875 36.3906ZM40.5 35.0312L40.8369 35.4007L40.8371 35.4005L40.5 35.0312ZM40.8047 28.1172L40.4577 28.4772L40.461 28.4803L40.8047 28.1172ZM31.4531 31.7734L31.4215 32.2724L31.8027 32.2966L31.9262 31.9352L31.4531 31.7734ZM29.6016 31.6562L29.1202 31.5211L28.9531 32.1162L29.57 32.1553L29.6016 31.6562ZM31.125 24.2031L30.8428 23.7903L30.6545 23.9191L30.6283 24.1457L31.125 24.2031ZM34.8281 22.3984L34.9679 22.8785L34.9735 22.8768L34.8281 22.3984ZM46.4297 32.8516L46.0198 32.5652L46.019 32.5664L46.4297 32.8516ZM42.2109 36.1094L41.9819 35.6649L40.5245 36.416L42.153 36.606L42.2109 36.1094ZM46.4062 37.3047L46.1406 37.7283L46.1438 37.7303L46.4062 37.3047ZM48.6562 39.8359L48.2103 40.0621L48.2116 40.0646L48.6562 39.8359ZM44.5547 52.5859L44.8507 52.9889L44.8507 52.9889L44.5547 52.5859ZM32.1797 55.2812L32.0639 55.7677L32.0656 55.7681L32.1797 55.2812ZM29.2734 54.25L28.7775 54.3132L28.812 54.5843L29.0588 54.7016L29.2734 54.25ZM28.2479 47.3284L29.9119 46.9065L29.6662 45.9372L28.0021 46.3591L28.2479 47.3284ZM29.3206 46.5968C30.2114 48.9827 31.3241 50.744 32.693 51.8087L33.307 51.0194C32.1447 50.1154 31.1167 48.5485 30.2575 46.247L29.3206 46.5968ZM32.693 51.8087C34.0512 52.8651 35.6373 53.3906 37.4297 53.3906V52.3906C35.8471 52.3906 34.48 51.9318 33.307 51.0194L32.693 51.8087ZM37.4297 53.3906C39.3205 53.3906 40.9011 52.7489 42.1286 51.4532L41.4026 50.7655C40.3801 51.8448 39.0702 52.3906 37.4297 52.3906V53.3906ZM42.1308 51.4509C43.3575 50.1391 43.9531 48.4389 43.9531 46.3984H42.9531C42.9531 48.233 42.4238 49.6734 41.4004 50.7679L42.1308 51.4509ZM43.9531 46.3984C43.9531 44.3547 43.3394 42.6714 42.0723 41.4043L41.3652 42.1114C42.4106 43.1567 42.9531 44.5672 42.9531 46.3984H43.9531ZM42.0723 41.4043C40.8014 40.1334 39.0764 39.5234 36.9609 39.5234V40.5234C38.8767 40.5234 40.3236 41.0697 41.3652 42.1114L42.0723 41.4043ZM36.9609 39.5234C36.1596 39.5234 35.2052 39.6564 34.1058 39.9114L34.3317 40.8855C35.3885 40.6404 36.2623 40.5234 36.9609 40.5234V39.5234ZM34.5723 40.0449L34.2442 39.7168L33.5371 40.4239L33.8652 40.752L34.5723 40.0449ZM34.3642 40.2308C34.6847 39.2853 35.0173 38.0396 35.3629 36.5001L34.3871 36.2811C34.0452 37.8042 33.7216 39.0116 33.4171 39.9098L34.3642 40.2308ZM34.8264 36.8883C35.4701 36.9511 35.9667 36.9844 36.3047 36.9844V35.9844C36.0177 35.9844 35.5612 35.9552 34.9236 35.893L34.8264 36.8883ZM36.3047 36.9844C38.1366 36.9844 39.664 36.4701 40.8369 35.4007L40.1631 34.6618C39.211 35.5299 37.9415 35.9844 36.3047 35.9844V36.9844ZM40.8371 35.4005C42.021 34.3196 42.6172 32.9503 42.6172 31.3281H41.6172C41.6172 32.6747 41.1353 33.7742 40.1629 34.662L40.8371 35.4005ZM42.6172 31.3281C42.6172 29.8919 42.1327 28.6856 41.1484 27.754L40.461 28.4803C41.2267 29.205 41.6172 30.1394 41.6172 31.3281H42.6172ZM41.1516 27.7571C40.1786 26.8195 38.8791 26.375 37.3125 26.375V27.375C38.6834 27.375 39.712 27.7586 40.4577 28.4772L41.1516 27.7571ZM37.3125 26.375C36.2512 26.375 35.2554 26.566 34.3305 26.9528L34.7163 27.8754C35.5102 27.5434 36.3738 27.375 37.3125 27.375V26.375ZM34.3305 26.9528C33.4585 27.3175 32.7841 27.7172 32.4187 28.184L33.2063 28.8003C33.4034 28.5484 33.8697 28.2294 34.7163 27.8754L34.3305 26.9528ZM32.4187 28.184C32.2307 28.4243 32.0247 28.8478 31.7998 29.3907C31.5675 29.9514 31.2941 30.693 30.98 31.6117L31.9262 31.9352C32.2372 31.0257 32.5028 30.3064 32.7236 29.7734C32.9519 29.2225 33.113 28.9194 33.2063 28.8003L32.4187 28.184ZM31.4847 31.2744L29.6331 31.1572L29.57 32.1553L31.4215 32.2724L31.4847 31.2744ZM30.083 31.7914C30.8387 29.0989 31.3525 26.5883 31.6217 24.2606L30.6283 24.1457C30.3663 26.4117 29.8644 28.8698 29.1202 31.5211L30.083 31.7914ZM31.4072 24.6159C32.6049 23.7972 33.7917 23.2209 34.9679 22.8785L34.6884 21.9184C33.3958 22.2947 32.1139 22.9215 30.8428 23.7903L31.4072 24.6159ZM34.9735 22.8768C36.1542 22.5181 37.4639 22.3359 38.9062 22.3359V21.3359C37.3799 21.3359 35.9708 21.5287 34.6828 21.92L34.9735 22.8768ZM38.9062 22.3359C41.615 22.3359 43.6315 22.9675 45.0265 24.1612L45.6766 23.4013C44.0403 22.0012 41.76 21.3359 38.9062 21.3359V22.3359ZM45.0265 24.1612C46.4259 25.3586 47.125 26.9047 47.125 28.8438H48.125C48.125 26.6265 47.3085 24.7977 45.6766 23.4013L45.0265 24.1612ZM47.125 28.8438C47.125 30.2833 46.7521 31.517 46.0198 32.5652L46.8396 33.1379C47.701 31.9049 48.125 30.4667 48.125 28.8438H47.125ZM46.019 32.5664C45.3057 33.5935 43.9832 34.6335 41.9819 35.6649L42.44 36.5538C44.5011 35.4915 45.9912 34.3596 46.8404 33.1368L46.019 32.5664ZM42.153 36.606C44.0008 36.8216 45.312 37.2087 46.1406 37.7283L46.6719 36.8811C45.6567 36.2445 44.1711 35.8347 42.2689 35.6127L42.153 36.606ZM46.1438 37.7303C46.9932 38.254 47.6839 39.0239 48.2103 40.0621L49.1022 39.6098C48.5036 38.4292 47.6943 37.5116 46.6687 36.8791L46.1438 37.7303ZM48.2116 40.0646C48.7328 41.0781 49 42.2478 49 43.5859H50C50 42.1116 49.7047 40.7813 49.1009 39.6073L48.2116 40.0646ZM49 43.5859C49 46.9805 47.4484 49.8398 44.2587 52.183L44.8507 52.9889C48.2548 50.4883 50 47.3476 50 43.5859H49ZM44.2587 52.183C41.5795 54.1507 38.5739 55.1328 35.2266 55.1328V56.1328C38.7854 56.1328 41.9986 55.0836 44.8507 52.9889L44.2587 52.183ZM35.2266 55.1328C34.2336 55.1328 33.2562 55.02 32.2938 54.7944L32.0656 55.7681C33.1031 56.0112 34.1571 56.1328 35.2266 56.1328V55.1328ZM32.2955 54.7948C31.3466 54.5689 30.411 54.2372 29.4881 53.7984L29.0588 54.7016C30.0422 55.1691 31.044 55.5248 32.0639 55.7677L32.2955 54.7948ZM29.7694 54.1868C29.4713 51.8492 29.0872 49.372 28.6171 46.7553L27.6329 46.9322C28.1003 49.5342 28.4818 51.9945 28.7775 54.3132L29.7694 54.1868Z" fill="black"/>
</g>
</g>
<defs>
<filter id="filter0_d" x="0.5" y="0.5" width="85" height="85" filterUnits="userSpaceOnUse" color-interpolation-filters="sRGB">
<feFlood flood-opacity="0" result="BackgroundImageFix"/>
<feColorMatrix in="SourceAlpha" type="matrix" values="0 0 0 0 0 0 0 0 0 0 0 0 0 0 0 0 0 0 127 0"/>
<feOffset dx="4" dy="4"/>
<feGaussianBlur stdDeviation="1"/>
<feColorMatrix type="matrix" values="0 0 0 0 0 0 0 0 0 0 0 0 0 0 0 0 0 0 0.5 0"/>
<feBlend mode="normal" in2="BackgroundImageFix" result="effect1_dropShadow"/>
<feBlend mode="normal" in="SourceGraphic" in2="effect1_dropShadow" result="shape"/>
</filter>
<filter id="filter1_d" x="27.5505" y="21.3359" width="26.4495" height="40.7969" filterUnits="userSpaceOnUse" color-interpolation-filters="sRGB">
<feFlood flood-opacity="0" result="BackgroundImageFix"/>
<feColorMatrix in="SourceAlpha" type="matrix" values="0 0 0 0 0 0 0 0 0 0 0 0 0 0 0 0 0 0 127 0"/>
<feOffset dx="2" dy="4"/>
<feGaussianBlur stdDeviation="1"/>
<feColorMatrix type="matrix" values="0 0 0 0 0 0 0 0 0 0 0 0 0 0 0 0 0 0 0.25 0"/>
<feBlend mode="normal" in2="BackgroundImageFix" result="effect1_dropShadow"/>
<feBlend mode="normal" in="SourceGraphic" in2="effect1_dropShadow" result="shape"/>
</filter>
</defs>
</svg>
