<svg width="86" height="86" viewBox="0 0 86 86" fill="none" xmlns="http://www.w3.org/2000/svg">
<g filter="url(#filter0_d)">
<rect x="1" y="1" width="78" height="78" rx="39" fill="#467DF4" stroke="#9E1212"/>
<g filter="url(#filter1_d)">
<path d="M43.2109 46.75C38.6797 46.75 34.7188 46.7891 31.3281 46.8672L31.2344 46.2344L31 44.8281C32.4219 41.5156 34.2891 37.8281 36.6016 33.7656C38.9297 29.6875 41.1641 26.2031 43.3047 23.3125C44.8984 23.0469 46.8984 22.6562 49.3047 22.1406L49.8203 22.6094C49.6797 24.8125 49.5703 27.1016 49.4922 29.4766L49.1406 42.8359C50.875 42.8359 52.3203 42.8125 53.4766 42.7656L53.6172 43.1172L53.5938 43.8672L53.5469 45.2734L53.5703 46.75L53.4766 46.9375C52.0859 46.8125 50.6406 46.75 49.1406 46.75L49.1172 47.8281C49.1172 50.5625 49.2344 52.0859 49.4688 52.3984C49.7969 52.8047 51.1328 53.0859 53.4766 53.2422L53.7109 53.3828V55.0703L53.4766 55.2344C50.4766 55.0781 47.9062 55 45.7656 55C44.5625 55 43.5312 55.0156 42.6719 55.0469L37.4922 55.2344L37.2812 55.0234V53.2422L37.4922 53.0547C40.1641 52.8984 41.6484 52.7734 41.9453 52.6797C42.3828 52.5391 42.6641 52.2734 42.7891 51.8828C42.9453 51.3984 43.0859 49.6875 43.2109 46.75ZM43.2109 42.8359L43.5625 26.8047C42.5625 28.1016 41.0938 30.4375 39.1562 33.8125C37.2344 37.1875 35.6953 40.1953 34.5391 42.8359C36.1797 42.8828 37.5391 42.9062 38.6172 42.9062L43.2109 42.8359Z" fill="#9E1212"/>
<path d="M43.2109 46.75L43.7105 46.7713L43.7327 46.25H43.2109V46.75ZM31.3281 46.8672L30.8335 46.9405L30.8982 47.3772L31.3396 47.3671L31.3281 46.8672ZM31.2344 46.2344L31.7291 46.1611L31.7276 46.1522L31.2344 46.2344ZM31 44.8281L30.5405 44.6309L30.4827 44.7657L30.5068 44.9103L31 44.8281ZM36.6016 33.7656L36.1673 33.5177L36.167 33.5183L36.6016 33.7656ZM43.3047 23.3125L43.2225 22.8193L43.0231 22.8525L42.9029 23.0149L43.3047 23.3125ZM49.3047 22.1406L49.641 21.7707L49.451 21.5979L49.1999 21.6517L49.3047 22.1406ZM49.8203 22.6094L50.3193 22.6412L50.3346 22.4012L50.1566 22.2394L49.8203 22.6094ZM49.4922 29.4766L48.9924 29.4601L48.9924 29.4634L49.4922 29.4766ZM49.1406 42.8359L48.6408 42.8228L48.6273 43.3359H49.1406V42.8359ZM53.4766 42.7656L53.9408 42.5799L53.8095 42.2517L53.4563 42.266L53.4766 42.7656ZM53.6172 43.1172L54.1169 43.1328L54.1202 43.0284L54.0814 42.9315L53.6172 43.1172ZM53.5938 43.8672L54.0935 43.8838L54.0935 43.8828L53.5938 43.8672ZM53.5469 45.2734L53.0472 45.2568L53.0467 45.2691L53.0469 45.2814L53.5469 45.2734ZM53.5703 46.75L54.0175 46.9736L54.0722 46.8643L54.0702 46.7421L53.5703 46.75ZM53.4766 46.9375L53.4318 47.4355L53.7713 47.466L53.9238 47.1611L53.4766 46.9375ZM49.1406 46.75V46.25H48.6514L48.6407 46.7391L49.1406 46.75ZM49.1172 47.8281L48.6172 47.8173V47.8281H49.1172ZM49.4688 52.3984L49.0688 52.6984L49.0741 52.7056L49.0798 52.7126L49.4688 52.3984ZM53.4766 53.2422L53.7338 52.8134L53.6303 52.7513L53.5098 52.7433L53.4766 53.2422ZM53.7109 53.3828H54.2109V53.0997L53.9682 52.9541L53.7109 53.3828ZM53.7109 55.0703L53.9977 55.4799L54.2109 55.3306V55.0703H53.7109ZM53.4766 55.2344L53.4506 55.7337L53.6224 55.7426L53.7633 55.644L53.4766 55.2344ZM42.6719 55.0469L42.69 55.5465L42.69 55.5465L42.6719 55.0469ZM37.4922 55.2344L37.1386 55.5879L37.2926 55.7419L37.5103 55.734L37.4922 55.2344ZM37.2812 55.0234H36.7812V55.2305L36.9277 55.377L37.2812 55.0234ZM37.2812 53.2422L36.9491 52.8685L36.7812 53.0177V53.2422H37.2812ZM37.4922 53.0547L37.463 52.5555L37.2897 52.5657L37.16 52.681L37.4922 53.0547ZM41.9453 52.6797L42.0959 53.1565L42.0983 53.1557L41.9453 52.6797ZM42.7891 51.8828L42.3132 51.7293L42.3128 51.7304L42.7891 51.8828ZM43.2109 42.8359L43.2186 43.3359L43.7003 43.3285L43.7108 42.8469L43.2109 42.8359ZM43.5625 26.8047L44.0624 26.8156L44.0957 25.2943L43.1665 26.4994L43.5625 26.8047ZM39.1562 33.8125L38.7226 33.5636L38.7218 33.5651L39.1562 33.8125ZM34.5391 42.8359L34.081 42.6354L33.7837 43.3146L34.5248 43.3357L34.5391 42.8359ZM38.6172 42.9062V43.4063L38.6248 43.4062L38.6172 42.9062ZM43.2109 46.25C38.677 46.25 34.7121 46.2891 31.3166 46.3673L31.3396 47.3671C34.7254 47.289 38.6823 47.25 43.2109 47.25V46.25ZM31.8227 46.7939L31.729 46.1611L30.7398 46.3076L30.8335 46.9405L31.8227 46.7939ZM31.7276 46.1522L31.4932 44.7459L30.5068 44.9103L30.7412 46.3166L31.7276 46.1522ZM31.4595 45.0253C32.8722 41.7342 34.7303 38.0637 37.0361 34.013L36.167 33.5183C33.8478 37.5925 31.9716 41.2971 30.5405 44.6309L31.4595 45.0253ZM37.0358 34.0135C39.3569 29.9477 41.5806 26.4808 43.7065 23.6101L42.9029 23.0149C40.7475 25.9254 38.5025 29.4273 36.1673 33.5177L37.0358 34.0135ZM43.3869 23.8057C44.991 23.5383 46.9991 23.146 49.4095 22.6295L49.1999 21.6517C46.7977 22.1665 44.8059 22.5554 43.2225 22.8193L43.3869 23.8057ZM48.9684 22.5106L49.484 22.9793L50.1566 22.2394L49.641 21.7707L48.9684 22.5106ZM49.3213 22.5775C49.1804 24.7862 49.0707 27.0804 48.9925 29.4601L49.9919 29.493C50.0699 27.1228 50.179 24.8388 50.3193 22.6412L49.3213 22.5775ZM48.9924 29.4634L48.6408 42.8228L49.6405 42.8491L49.992 29.4897L48.9924 29.4634ZM49.1406 43.3359C50.8788 43.3359 52.3314 43.3125 53.4968 43.2652L53.4563 42.266C52.3092 42.3125 50.8712 42.3359 49.1406 42.3359V43.3359ZM53.0123 42.9513L53.1529 43.3029L54.0814 42.9315L53.9408 42.5799L53.0123 42.9513ZM53.1174 43.1016L53.094 43.8516L54.0935 43.8828L54.1169 43.1328L53.1174 43.1016ZM53.094 43.8505L53.0472 45.2568L54.0466 45.2901L54.0935 43.8838L53.094 43.8505ZM53.0469 45.2814L53.0704 46.7579L54.0702 46.7421L54.0468 45.2655L53.0469 45.2814ZM53.1231 46.5264L53.0293 46.7139L53.9238 47.1611L54.0175 46.9736L53.1231 46.5264ZM53.5213 46.4395C52.1148 46.3131 50.6545 46.25 49.1406 46.25V47.25C50.6268 47.25 52.0571 47.3119 53.4318 47.4355L53.5213 46.4395ZM48.6407 46.7391L48.6173 47.8173L49.6171 47.839L49.6405 46.7609L48.6407 46.7391ZM48.6172 47.8281C48.6172 49.1998 48.6465 50.2791 48.7066 51.0598C48.7365 51.4493 48.7749 51.7753 48.8239 52.031C48.8675 52.2587 48.9337 52.5184 49.0688 52.6984L49.8687 52.0984C49.8866 52.1223 49.8503 52.0743 49.806 51.843C49.7671 51.6397 49.7322 51.3554 49.7036 50.9831C49.6465 50.2404 49.6172 49.1908 49.6172 47.8281H48.6172ZM49.0798 52.7126C49.2398 52.9107 49.4762 53.044 49.7129 53.1418C49.9598 53.2438 50.2634 53.3296 50.6138 53.4033C51.3154 53.551 52.2621 53.6623 53.4433 53.7411L53.5098 52.7433C52.3473 52.6658 51.4542 52.5583 50.8198 52.4248C50.5022 52.3579 50.2638 52.2874 50.0947 52.2176C50.0109 52.1829 49.9512 52.1513 49.9105 52.125C49.869 52.0982 49.8566 52.0829 49.8577 52.0843L49.0798 52.7126ZM53.2193 53.6709L53.4537 53.8116L53.9682 52.9541L53.7338 52.8134L53.2193 53.6709ZM53.2109 53.3828V55.0703H54.2109V53.3828H53.2109ZM53.4242 54.6607L53.1898 54.8248L53.7633 55.644L53.9977 55.4799L53.4242 54.6607ZM53.5026 54.7351C50.4971 54.5785 47.9176 54.5 45.7656 54.5V55.5C47.8949 55.5 50.4561 55.5777 53.4506 55.7337L53.5026 54.7351ZM45.7656 54.5C44.5586 54.5 43.521 54.5157 42.6537 54.5472L42.69 55.5465C43.5415 55.5156 44.5664 55.5 45.7656 55.5V54.5ZM42.6538 54.5472L37.4741 54.7347L37.5103 55.734L42.69 55.5465L42.6538 54.5472ZM37.8457 54.8808L37.6348 54.6699L36.9277 55.377L37.1386 55.5879L37.8457 54.8808ZM37.7812 55.0234V53.2422H36.7812V55.0234H37.7812ZM37.6134 53.6159L37.8244 53.4284L37.16 52.681L36.9491 52.8685L37.6134 53.6159ZM37.5214 53.5538C38.8588 53.4756 39.9028 53.405 40.6513 53.342C41.0252 53.3105 41.3292 53.2806 41.5609 53.2521C41.7772 53.2256 41.9709 53.196 42.0959 53.1565L41.7947 52.2029C41.7954 52.2027 41.7879 52.205 41.7686 52.2092C41.7503 52.2133 41.7258 52.218 41.694 52.2235C41.6303 52.2344 41.5459 52.2465 41.4391 52.2596C41.2255 52.2858 40.9357 52.3145 40.5674 52.3455C39.8316 52.4075 38.7974 52.4775 37.463 52.5555L37.5214 53.5538ZM42.0983 53.1557C42.668 52.9726 43.0846 52.5998 43.2653 52.0352L42.3128 51.7304C42.2435 51.9471 42.0976 52.1055 41.7923 52.2037L42.0983 53.1557ZM43.2649 52.0363C43.3642 51.7285 43.441 51.1178 43.51 50.2773C43.5811 49.4123 43.6479 48.2427 43.7105 46.7713L42.7114 46.7287C42.649 48.1948 42.5829 49.3495 42.5134 50.1954C42.4419 51.0658 42.3702 51.5528 42.3132 51.7293L43.2649 52.0363ZM43.7108 42.8469L44.0624 26.8156L43.0626 26.7937L42.7111 42.825L43.7108 42.8469ZM43.1665 26.4994C42.1437 27.8258 40.6603 30.1883 38.7226 33.5636L39.5899 34.0614C41.5272 30.6867 42.9813 28.3773 43.9585 27.11L43.1665 26.4994ZM38.7218 33.5651C36.794 36.9504 35.2462 39.9743 34.081 42.6354L34.9971 43.0365C36.1444 40.4163 37.6748 37.4246 39.5907 34.0599L38.7218 33.5651ZM34.5248 43.3357C36.168 43.3827 37.5325 43.4062 38.6172 43.4062V42.4062C37.5456 42.4062 36.1914 42.3829 34.5533 42.3361L34.5248 43.3357ZM38.6248 43.4062L43.2186 43.3359L43.2033 42.336L38.6095 42.4063L38.6248 43.4062Z" fill="black"/>
</g>
</g>
<defs>
<filter id="filter0_d" x="0.5" y="0.5" width="85" height="85" filterUnits="userSpaceOnUse" color-interpolation-filters="sRGB">
<feFlood flood-opacity="0" result="BackgroundImageFix"/>
<feColorMatrix in="SourceAlpha" type="matrix" values="0 0 0 0 0 0 0 0 0 0 0 0 0 0 0 0 0 0 127 0"/>
<feOffset dx="4" dy="4"/>
<feGaussianBlur stdDeviation="1"/>
<feColorMatrix type="matrix" values="0 0 0 0 0 0 0 0 0 0 0 0 0 0 0 0 0 0 0.5 0"/>
<feBlend mode="normal" in2="BackgroundImageFix" result="effect1_dropShadow"/>
<feBlend mode="normal" in="SourceGraphic" in2="effect1_dropShadow" result="shape"/>
</filter>
<filter id="filter1_d" x="30.4827" y="21.5979" width="27.7282" height="40.1447" filterUnits="userSpaceOnUse" color-interpolation-filters="sRGB">
<feFlood flood-opacity="0" result="BackgroundImageFix"/>
<feColorMatrix in="SourceAlpha" type="matrix" values="0 0 0 0 0 0 0 0 0 0 0 0 0 0 0 0 0 0 127 0"/>
<feOffset dx="2" dy="4"/>
<feGaussianBlur stdDeviation="1"/>
<feColorMatrix type="matrix" values="0 0 0 0 0 0 0 0 0 0 0 0 0 0 0 0 0 0 0.25 0"/>
<feBlend mode="normal" in2="BackgroundImageFix" result="effect1_dropShadow"/>
<feBlend mode="normal" in="SourceGraphic" in2="effect1_dropShadow" result="shape"/>
</filter>
</defs>
</svg>
