<svg width="86" height="86" viewBox="0 0 86 86" fill="none" xmlns="http://www.w3.org/2000/svg">
<g filter="url(#filter0_d)">
<rect x="1" y="1" width="78" height="78" rx="39" fill="#041179" stroke="#777777"/>
<g filter="url(#filter1_d)">
<path d="M29.7266 47.7578V47.5703L31.25 47.0781C32.5156 49.375 33.7422 50.9219 34.9297 51.7188C36.1172 52.5 37.4922 52.8906 39.0547 52.8906C40.8828 52.8906 42.3594 52.2656 43.4844 51.0156C44.6094 49.7656 45.1719 48.0703 45.1719 45.9297C45.1719 43.7578 44.5859 42.0547 43.4141 40.8203C42.2422 39.5859 40.6562 38.9688 38.6562 38.9688C37.7031 38.9688 36.8203 39.1172 36.0078 39.4141C35.1953 39.6953 34.25 40.2266 33.1719 41.0078L32.2109 40.4688C32.5078 36.5469 32.6562 33.3359 32.6562 30.8359C32.6562 27.6953 32.5234 24.8984 32.2578 22.4453L32.5859 22.1641C36.0547 22.3516 39.25 22.4453 42.1719 22.4453C44.9688 22.4453 47.4766 22.3594 49.6953 22.1875L49.9531 22.6797C49.7812 23.7109 49.6953 24.5938 49.6953 25.3281C49.6953 25.75 49.7266 26.5312 49.7891 27.6719L49.4375 28C46.5625 27.8906 43.7109 27.8359 40.8828 27.8359C38.9922 27.8359 37.1094 27.8672 35.2344 27.9297L34.9766 35.6875C36.1016 35.0156 37.1172 34.5547 38.0234 34.3047C38.9453 34.0547 39.9922 33.9297 41.1641 33.9297C44.3047 33.9297 46.7266 34.7422 48.4297 36.3672C50.1328 37.9766 50.9844 40.1875 50.9844 43C50.9844 46.4219 49.6484 49.3828 46.9766 51.8828C44.3047 54.3828 40.9766 55.6328 36.9922 55.6328C35.9609 55.6328 34.9609 55.5312 33.9922 55.3281C33.0391 55.1406 32.125 54.8516 31.25 54.4609C30.9062 52.3828 30.3984 50.1484 29.7266 47.7578Z" fill="white" fill-opacity="0.9"/>
<path d="M29.7266 47.7578H29.2266V47.8267L29.2452 47.8931L29.7266 47.7578ZM29.7266 47.5703L29.5728 47.0945L29.2266 47.2064V47.5703H29.7266ZM31.25 47.0781L31.6879 46.8368L31.4888 46.4755L31.0963 46.6023L31.25 47.0781ZM34.9297 51.7188L34.6511 52.1339L34.6549 52.1365L34.9297 51.7188ZM36.0078 39.4141L36.1714 39.8866L36.1794 39.8837L36.0078 39.4141ZM33.1719 41.0078L32.9272 41.4439L33.2062 41.6004L33.4653 41.4127L33.1719 41.0078ZM32.2109 40.4688L31.7124 40.431L31.6883 40.7489L31.9663 40.9048L32.2109 40.4688ZM32.2578 22.4453L31.9324 22.0657L31.7324 22.2372L31.7607 22.4991L32.2578 22.4453ZM32.5859 22.1641L32.6129 21.6648L32.4127 21.654L32.2605 21.7844L32.5859 22.1641ZM49.6953 22.1875L50.1382 21.9555L49.9853 21.6635L49.6567 21.689L49.6953 22.1875ZM49.9531 22.6797L50.4463 22.7619L50.4739 22.5963L50.396 22.4477L49.9531 22.6797ZM49.7891 27.6719L50.1302 28.0374L50.3011 27.8779L50.2883 27.6445L49.7891 27.6719ZM49.4375 28L49.4185 28.4996L49.6265 28.5076L49.7787 28.3655L49.4375 28ZM35.2344 27.9297L35.2177 27.43L34.7502 27.4455L34.7347 27.9131L35.2344 27.9297ZM34.9766 35.6875L34.4768 35.6709L34.4464 36.5865L35.2329 36.1168L34.9766 35.6875ZM38.0234 34.3047L37.8926 33.8221L37.8905 33.8227L38.0234 34.3047ZM48.4297 36.3672L48.0845 36.7289L48.0863 36.7306L48.4297 36.3672ZM33.9922 55.3281L34.0948 54.8387L34.0887 54.8375L33.9922 55.3281ZM31.25 54.4609L30.7567 54.5425L30.8006 54.8079L31.0462 54.9175L31.25 54.4609ZM30.2266 47.7578V47.5703H29.2266V47.7578H30.2266ZM29.8803 48.0461L31.4037 47.5539L31.0963 46.6023L29.5728 47.0945L29.8803 48.0461ZM30.8121 47.3194C32.0891 49.6371 33.3628 51.2694 34.6511 52.1339L35.2083 51.3036C34.1216 50.5743 32.9421 49.1129 31.6879 46.8368L30.8121 47.3194ZM34.6549 52.1365C35.932 52.9767 37.4046 53.3906 39.0547 53.3906V52.3906C37.5798 52.3906 36.3024 52.0233 35.2045 51.301L34.6549 52.1365ZM39.0547 53.3906C41.0107 53.3906 42.6273 52.7153 43.856 51.3501L43.1127 50.6811C42.0914 51.8159 40.7549 52.3906 39.0547 52.3906V53.3906ZM43.856 51.3501C45.0843 49.9853 45.6719 48.159 45.6719 45.9297H44.6719C44.6719 47.9816 44.1344 49.5459 43.1127 50.6811L43.856 51.3501ZM45.6719 45.9297C45.6719 43.6665 45.0592 41.827 43.7767 40.4761L43.0514 41.1646C44.1127 42.2824 44.6719 43.8491 44.6719 45.9297H45.6719ZM43.7767 40.4761C42.4938 39.1248 40.7673 38.4688 38.6562 38.4688V39.4688C40.5452 39.4688 41.9905 40.0471 43.0514 41.1646L43.7767 40.4761ZM38.6562 38.4688C37.6505 38.4688 36.709 38.6255 35.8362 38.9444L36.1794 39.8837C36.9316 39.6089 37.7557 39.4688 38.6562 39.4688V38.4688ZM35.8443 38.9416C34.9673 39.2451 33.9771 39.8068 32.8785 40.6029L33.4653 41.4127C34.5229 40.6463 35.4233 40.1455 36.1714 39.8866L35.8443 38.9416ZM33.4165 40.5717L32.4556 40.0327L31.9663 40.9048L32.9272 41.4439L33.4165 40.5717ZM32.7095 40.5065C33.0069 36.5783 33.1562 33.3535 33.1562 30.8359H32.1562C32.1562 33.3184 32.0088 36.5155 31.7124 40.431L32.7095 40.5065ZM33.1562 30.8359C33.1562 27.6819 33.0229 24.8665 32.7549 22.3915L31.7607 22.4991C32.024 24.9303 32.1562 27.7087 32.1562 30.8359H33.1562ZM32.5832 22.8249L32.9113 22.5437L32.2605 21.7844L31.9324 22.0657L32.5832 22.8249ZM32.5589 22.6633C36.0351 22.8512 39.2395 22.9453 42.1719 22.9453V21.9453C39.2605 21.9453 36.0743 21.8519 32.6129 21.6648L32.5589 22.6633ZM42.1719 22.9453C44.9785 22.9453 47.4996 22.8591 49.7339 22.686L49.6567 21.689C47.4536 21.8597 44.959 21.9453 42.1719 21.9453V22.9453ZM49.2524 22.4195L49.5102 22.9117L50.396 22.4477L50.1382 21.9555L49.2524 22.4195ZM49.4599 22.5975C49.2853 23.6455 49.1953 24.5574 49.1953 25.3281H50.1953C50.1953 24.6301 50.2772 23.7764 50.4463 22.7619L49.4599 22.5975ZM49.1953 25.3281C49.1953 25.7656 49.2274 26.5598 49.2898 27.6992L50.2883 27.6445C50.2257 26.5027 50.1953 25.7344 50.1953 25.3281H49.1953ZM49.4479 27.3063L49.0963 27.6345L49.7787 28.3655L50.1302 28.0374L49.4479 27.3063ZM49.4565 27.5004C46.5753 27.3907 43.7174 27.3359 40.8828 27.3359V28.3359C43.7045 28.3359 46.5497 28.3905 49.4185 28.4996L49.4565 27.5004ZM40.8828 27.3359C38.9867 27.3359 37.0983 27.3673 35.2177 27.43L35.251 28.4294C37.1204 28.3671 38.9977 28.3359 40.8828 28.3359V27.3359ZM34.7347 27.9131L34.4768 35.6709L35.4763 35.7041L35.7341 27.9463L34.7347 27.9131ZM35.2329 36.1168C36.3333 35.4596 37.3067 35.0211 38.1564 34.7867L37.8905 33.8227C36.9276 34.0883 35.8698 34.5716 34.7202 35.2582L35.2329 36.1168ZM38.1543 34.7873C39.0252 34.5511 40.0268 34.4297 41.1641 34.4297V33.4297C39.9576 33.4297 38.8655 33.5583 37.8926 33.8221L38.1543 34.7873ZM41.1641 34.4297C44.2202 34.4297 46.502 35.219 48.0845 36.7289L48.7748 36.0054C46.9511 34.2653 44.3892 33.4297 41.1641 33.4297V34.4297ZM48.0863 36.7306C49.6697 38.2269 50.4844 40.2953 50.4844 43H51.4844C51.4844 40.0797 50.5959 37.7262 48.7731 36.0038L48.0863 36.7306ZM50.4844 43C50.4844 46.2731 49.2136 49.1049 46.6349 51.5177L47.3182 52.2479C50.0833 49.6607 51.4844 46.5706 51.4844 43H50.4844ZM46.6349 51.5177C44.0643 53.923 40.862 55.1328 36.9922 55.1328V56.1328C41.0911 56.1328 44.5451 54.8426 47.3182 52.2479L46.6349 51.5177ZM36.9922 55.1328C35.994 55.1328 35.0284 55.0345 34.0948 54.8388L33.8896 55.8175C34.8935 56.028 35.9279 56.1328 36.9922 56.1328V55.1328ZM34.0887 54.8375C33.172 54.6572 32.294 54.3794 31.4538 54.0044L31.0462 54.9175C31.956 55.3237 32.9061 55.6241 33.8957 55.8187L34.0887 54.8375ZM31.7433 54.3793C31.3961 52.2803 30.8839 50.0278 30.2079 47.6225L29.2452 47.8931C29.913 50.2691 30.4164 52.4854 30.7567 54.5425L31.7433 54.3793Z" fill="#777777"/>
</g>
</g>
<defs>
<filter id="filter0_d" x="0.5" y="0.5" width="85" height="85" filterUnits="userSpaceOnUse" color-interpolation-filters="sRGB">
<feFlood flood-opacity="0" result="BackgroundImageFix"/>
<feColorMatrix in="SourceAlpha" type="matrix" values="0 0 0 0 0 0 0 0 0 0 0 0 0 0 0 0 0 0 127 0"/>
<feOffset dx="4" dy="4"/>
<feGaussianBlur stdDeviation="1"/>
<feColorMatrix type="matrix" values="0 0 0 0 0 0 0 0 0 0 0 0 0 0 0 0 0 0 0.5 0"/>
<feBlend mode="normal" in2="BackgroundImageFix" result="effect1_dropShadow"/>
<feBlend mode="normal" in="SourceGraphic" in2="effect1_dropShadow" result="shape"/>
</filter>
<filter id="filter1_d" x="29.2266" y="21.654" width="26.2578" height="40.4788" filterUnits="userSpaceOnUse" color-interpolation-filters="sRGB">
<feFlood flood-opacity="0" result="BackgroundImageFix"/>
<feColorMatrix in="SourceAlpha" type="matrix" values="0 0 0 0 0 0 0 0 0 0 0 0 0 0 0 0 0 0 127 0"/>
<feOffset dx="2" dy="4"/>
<feGaussianBlur stdDeviation="1"/>
<feColorMatrix type="matrix" values="0 0 0 0 0 0 0 0 0 0 0 0 0 0 0 0 0 0 1 0"/>
<feBlend mode="normal" in2="BackgroundImageFix" result="effect1_dropShadow"/>
<feBlend mode="normal" in="SourceGraphic" in2="effect1_dropShadow" result="shape"/>
</filter>
</defs>
</svg>
