<svg width="86" height="86" viewBox="0 0 86 86" fill="none" xmlns="http://www.w3.org/2000/svg">
<g filter="url(#filter0_d)">
<rect x="1" y="1" width="78" height="78" rx="39" fill="#041179" stroke="#777777"/>
<g filter="url(#filter1_d)">
<path d="M37.7812 38.4531C39.5781 36.6094 40.8203 35.5234 41.5078 35.1953C42.4453 34.7266 43.6172 34.4922 45.0234 34.4922C47.2734 34.4922 49.1016 35.3047 50.5078 36.9297C51.9141 38.5391 52.6172 40.7891 52.6172 43.6797C52.6172 47.2266 51.5625 50.1562 49.4531 52.4688C47.5312 54.5781 45.0391 55.6328 41.9766 55.6328C39.8984 55.6328 38.0547 55.1172 36.4453 54.0859C34.8359 53.0391 33.5859 51.5469 32.6953 49.6094C31.8203 47.6719 31.3828 45.1016 31.3828 41.8984C31.3828 37.6641 32.125 34.1328 33.6094 31.3047C35.0938 28.4766 37.2266 26.2031 40.0078 24.4844C42.8047 22.75 45.8125 21.8672 49.0312 21.8359L51.0469 23.5938L50.2734 24.4141C49.3516 24.2578 48.6562 24.1797 48.1875 24.1797C46.6562 24.1797 45.0781 24.7266 43.4531 25.8203C41.8438 26.9141 40.5703 28.4219 39.6328 30.3438C38.6953 32.2656 38.0781 34.9688 37.7812 38.4531ZM42.0234 38.7344C40.6172 38.7344 39.5312 39.1719 38.7656 40.0469C38.0156 40.9062 37.6406 42.2812 37.6406 44.1719C37.6406 47.4062 38.0859 49.7031 38.9766 51.0625C39.8828 52.4062 41.0625 53.0781 42.5156 53.0781C43.7812 53.0781 44.8125 52.5391 45.6094 51.4609C46.4062 50.3828 46.8047 48.7031 46.8047 46.4219C46.8047 43.7031 46.3359 41.6875 45.3984 40.375C44.6016 39.2812 43.4766 38.7344 42.0234 38.7344Z" fill="white" fill-opacity="0.9"/>
<path d="M37.7812 38.4531L37.2831 38.4107L37.1645 39.8024L38.1393 38.8021L37.7812 38.4531ZM41.5078 35.1953L41.7232 35.6466L41.7314 35.6425L41.5078 35.1953ZM50.5078 36.9297L50.1297 37.2569L50.1313 37.2587L50.5078 36.9297ZM49.4531 52.4688L49.0837 52.1318L49.0835 52.132L49.4531 52.4688ZM36.4453 54.0859L36.1727 54.5051L36.1756 54.5069L36.4453 54.0859ZM32.6953 49.6094L32.2396 49.8152L32.241 49.8182L32.6953 49.6094ZM40.0078 24.4844L40.2707 24.9097L40.2713 24.9093L40.0078 24.4844ZM49.0312 21.8359L49.3599 21.4591L49.2166 21.3341L49.0264 21.336L49.0312 21.8359ZM51.0469 23.5938L51.4107 23.9368L51.7673 23.5586L51.3755 23.2169L51.0469 23.5938ZM50.2734 24.4141L50.1899 24.907L50.4537 24.9517L50.6372 24.7571L50.2734 24.4141ZM43.4531 25.8203L43.1739 25.4055L43.1721 25.4068L43.4531 25.8203ZM38.7656 40.0469L38.3893 39.7176L38.3889 39.7181L38.7656 40.0469ZM38.9766 51.0625L38.5583 51.3365L38.562 51.3421L38.9766 51.0625ZM45.3984 40.375L45.8053 40.0844L45.8026 40.0806L45.3984 40.375ZM38.1393 38.8021C39.033 37.8851 39.7825 37.1631 40.3896 36.6323C41.0067 36.0928 41.4456 35.779 41.7232 35.6466L41.2924 34.7441C40.8825 34.9397 40.3566 35.333 39.7315 35.8794C39.0964 36.4346 38.3264 37.1774 37.4232 38.1042L38.1393 38.8021ZM41.7314 35.6425C42.5799 35.2183 43.6695 34.9922 45.0234 34.9922V33.9922C43.5649 33.9922 42.3107 34.2349 41.2842 34.7481L41.7314 35.6425ZM45.0234 34.9922C47.1361 34.9922 48.8234 35.7474 50.1297 37.2569L50.8859 36.6025C49.3797 34.862 47.4108 33.9922 45.0234 33.9922V34.9922ZM50.1313 37.2587C51.4336 38.7491 52.1172 40.8671 52.1172 43.6797H53.1172C53.1172 40.7111 52.3945 38.329 50.8843 36.6007L50.1313 37.2587ZM52.1172 43.6797C52.1172 47.1197 51.0978 49.9238 49.0837 52.1318L49.8225 52.8057C52.0272 50.3887 53.1172 47.3334 53.1172 43.6797H52.1172ZM49.0835 52.132C47.2639 54.1291 44.9099 55.1328 41.9766 55.1328V56.1328C45.1682 56.1328 47.7986 55.0271 49.8227 52.8055L49.0835 52.132ZM41.9766 55.1328C39.9854 55.1328 38.2369 54.6401 36.7151 53.665L36.1756 54.5069C37.8725 55.5943 39.8115 56.1328 41.9766 56.1328V55.1328ZM36.7179 53.6668C35.1964 52.677 34.0053 51.262 33.1496 49.4005L32.241 49.8182C33.1666 51.8317 34.4755 53.4011 36.1727 54.5051L36.7179 53.6668ZM33.151 49.4036C32.3162 47.5551 31.8828 45.0632 31.8828 41.8984H30.8828C30.8828 45.1399 31.3244 47.7887 32.2396 49.8152L33.151 49.4036ZM31.8828 41.8984C31.8828 37.7197 32.6156 34.274 34.0521 31.5371L33.1667 31.0723C31.6344 33.9916 30.8828 37.6085 30.8828 41.8984H31.8828ZM34.0521 31.5371C35.4939 28.7901 37.5637 26.5826 40.2707 24.9097L39.745 24.059C36.8895 25.8237 34.6936 28.163 33.1667 31.0723L34.0521 31.5371ZM40.2713 24.9093C42.9923 23.222 45.9109 22.3663 49.0361 22.3359L49.0264 21.336C45.7141 21.3681 42.6171 22.278 39.7443 24.0594L40.2713 24.9093ZM48.7026 22.2128L50.7182 23.9706L51.3755 23.2169L49.3599 21.4591L48.7026 22.2128ZM50.6831 23.2507L49.9096 24.0711L50.6372 24.7571L51.4107 23.9368L50.6831 23.2507ZM50.357 23.9211C49.429 23.7638 48.6998 23.6797 48.1875 23.6797V24.6797C48.6127 24.6797 49.2741 24.7518 50.1899 24.907L50.357 23.9211ZM48.1875 23.6797C46.5323 23.6797 44.8585 24.2717 43.1739 25.4055L43.7323 26.2351C45.2977 25.1815 46.7802 24.6797 48.1875 24.6797V23.6797ZM43.1721 25.4068C41.4836 26.5543 40.1553 28.1323 39.1834 30.1245L40.0822 30.563C40.9854 28.7115 42.2039 27.2739 43.7342 26.2339L43.1721 25.4068ZM39.1834 30.1245C38.2072 32.1259 37.5823 34.8989 37.2831 38.4107L38.2794 38.4956C38.574 35.0386 39.1835 32.4053 40.0822 30.563L39.1834 30.1245ZM42.0234 38.2344C40.506 38.2344 39.2696 38.7116 38.3893 39.7176L39.1419 40.3761C39.7929 39.6322 40.7284 39.2344 42.0234 39.2344V38.2344ZM38.3889 39.7181C37.5215 40.712 37.1406 42.2343 37.1406 44.1719H38.1406C38.1406 42.3282 38.5097 41.1005 39.1423 40.3756L38.3889 39.7181ZM37.1406 44.1719C37.1406 47.4239 37.5831 49.8479 38.5583 51.3365L39.3948 50.7885C38.5888 49.5583 38.1406 47.3886 38.1406 44.1719H37.1406ZM38.562 51.3421C39.5486 52.805 40.875 53.5781 42.5156 53.5781V52.5781C41.25 52.5781 40.217 52.0075 39.3911 50.7829L38.562 51.3421ZM42.5156 53.5781C43.9505 53.5781 45.1268 52.955 46.0115 51.7581L45.2073 51.1637C44.4982 52.1232 43.612 52.5781 42.5156 52.5781V53.5781ZM46.0115 51.7581C46.9029 50.5521 47.3047 48.7425 47.3047 46.4219H46.3047C46.3047 48.6637 45.9096 50.2135 45.2073 51.1637L46.0115 51.7581ZM47.3047 46.4219C47.3047 43.6633 46.8323 41.5222 45.8053 40.0844L44.9916 40.6656C45.8395 41.8528 46.3047 43.743 46.3047 46.4219H47.3047ZM45.8026 40.0806C44.9037 38.8469 43.6226 38.2344 42.0234 38.2344V39.2344C43.3305 39.2344 44.2994 39.7156 44.9943 40.6694L45.8026 40.0806Z" fill="#777777"/>
</g>
</g>
<defs>
<filter id="filter0_d" x="0.5" y="0.5" width="85" height="85" filterUnits="userSpaceOnUse" color-interpolation-filters="sRGB">
<feFlood flood-opacity="0" result="BackgroundImageFix"/>
<feColorMatrix in="SourceAlpha" type="matrix" values="0 0 0 0 0 0 0 0 0 0 0 0 0 0 0 0 0 0 127 0"/>
<feOffset dx="4" dy="4"/>
<feGaussianBlur stdDeviation="1"/>
<feColorMatrix type="matrix" values="0 0 0 0 0 0 0 0 0 0 0 0 0 0 0 0 0 0 0.5 0"/>
<feBlend mode="normal" in2="BackgroundImageFix" result="effect1_dropShadow"/>
<feBlend mode="normal" in="SourceGraphic" in2="effect1_dropShadow" result="shape"/>
</filter>
<filter id="filter1_d" x="30.8828" y="21.3341" width="26.2344" height="40.7987" filterUnits="userSpaceOnUse" color-interpolation-filters="sRGB">
<feFlood flood-opacity="0" result="BackgroundImageFix"/>
<feColorMatrix in="SourceAlpha" type="matrix" values="0 0 0 0 0 0 0 0 0 0 0 0 0 0 0 0 0 0 127 0"/>
<feOffset dx="2" dy="4"/>
<feGaussianBlur stdDeviation="1"/>
<feColorMatrix type="matrix" values="0 0 0 0 0 0 0 0 0 0 0 0 0 0 0 0 0 0 1 0"/>
<feBlend mode="normal" in2="BackgroundImageFix" result="effect1_dropShadow"/>
<feBlend mode="normal" in="SourceGraphic" in2="effect1_dropShadow" result="shape"/>
</filter>
</defs>
</svg>
