<svg width="86" height="86" viewBox="0 0 86 86" fill="none" xmlns="http://www.w3.org/2000/svg">
<g filter="url(#filter0_d)">
<rect x="1" y="1" width="78" height="78" rx="39" fill="#041179" stroke="#777777"/>
<g filter="url(#filter1_d)">
<path d="M55.2109 22.3281V24.5781C51.9922 30.0938 49 35.8125 46.2344 41.7344C43.4688 47.6406 41.5703 52.125 40.5391 55.1875C39.2734 55.0625 38.3281 55 37.7031 55C37 55 36.0938 55.0625 34.9844 55.1875L34.75 54.4844C36.3594 51.9219 37.8594 49.4688 39.25 47.125C40.6562 44.7812 42.7812 41.1406 45.625 36.2031L49.8438 28.7266L49.6094 28.3516L44.8516 28.3281L40.6562 28.3047C38.25 28.3047 36.7969 28.3984 36.2969 28.5859C36.0156 28.6953 35.7969 28.9219 35.6406 29.2656C35.375 29.875 35.125 31.4297 34.8906 33.9297L34.7031 34.1406L32.7812 33.9766C32.8906 32.2109 32.9453 30.1328 32.9453 27.7422C32.9453 26.2109 32.8906 24.4531 32.7812 22.4688L33.1562 22.0703C37.7188 22.3359 42.4141 22.4688 47.2422 22.4688C49.4453 22.4688 52.1016 22.4219 55.2109 22.3281Z" fill="white" fill-opacity="0.9"/>
<path d="M55.2109 22.3281H55.7109V21.8128L55.1959 21.8284L55.2109 22.3281ZM55.2109 24.5781L55.6428 24.8301L55.7109 24.7133V24.5781H55.2109ZM46.2344 41.7344L46.6872 41.9464L46.6874 41.9459L46.2344 41.7344ZM40.5391 55.1875L40.4899 55.6851L40.8859 55.7242L41.0129 55.3471L40.5391 55.1875ZM34.9844 55.1875L34.51 55.3456L34.6381 55.7297L35.0404 55.6844L34.9844 55.1875ZM34.75 54.4844L34.3266 54.2184L34.201 54.4184L34.2757 54.6425L34.75 54.4844ZM39.25 47.125L38.8212 46.8677L38.82 46.8699L39.25 47.125ZM45.625 36.2031L46.0583 36.4527L46.0605 36.4488L45.625 36.2031ZM49.8438 28.7266L50.2792 28.9723L50.4252 28.7135L50.2677 28.4616L49.8438 28.7266ZM49.6094 28.3516L50.0334 28.0866L49.8874 27.8529L49.6118 27.8516L49.6094 28.3516ZM44.8516 28.3281L44.8488 28.8281L44.8491 28.8281L44.8516 28.3281ZM40.6562 28.3047L40.659 27.8047H40.6562V28.3047ZM36.2969 28.5859L36.1213 28.1177L36.1157 28.1199L36.2969 28.5859ZM35.6406 29.2656L35.1854 29.0587L35.1823 29.0658L35.6406 29.2656ZM34.8906 33.9297L35.2643 34.2619L35.3732 34.1394L35.3884 33.9764L34.8906 33.9297ZM34.7031 34.1406L34.6606 34.6388L34.9103 34.6601L35.0768 34.4728L34.7031 34.1406ZM32.7812 33.9766L32.2822 33.9456L32.252 34.4332L32.7387 34.4748L32.7812 33.9766ZM32.7812 22.4688L32.4172 22.1261L32.2702 22.2822L32.282 22.4963L32.7812 22.4688ZM33.1562 22.0703L33.1853 21.5712L32.9522 21.5576L32.7922 21.7276L33.1562 22.0703ZM54.7109 22.3281V24.5781H55.7109V22.3281H54.7109ZM54.7791 24.3261C51.5525 29.8552 48.5533 35.5875 45.7813 41.5228L46.6874 41.9459C49.4467 36.0375 52.4319 30.3323 55.6428 24.8301L54.7791 24.3261ZM45.7816 41.5223C43.0143 47.4322 41.1059 51.9375 40.0652 55.0279L41.0129 55.3471C42.0348 52.3125 43.9232 47.8491 46.6872 41.9464L45.7816 41.5223ZM40.5882 54.6899C39.3193 54.5646 38.3538 54.5 37.7031 54.5V55.5C38.3024 55.5 39.2276 55.5604 40.4899 55.6851L40.5882 54.6899ZM37.7031 54.5C36.9737 54.5 36.0469 54.5646 34.9284 54.6906L35.0404 55.6844C36.1406 55.5604 37.0263 55.5 37.7031 55.5V54.5ZM35.4587 55.0294L35.2243 54.3263L34.2757 54.6425L34.51 55.3456L35.4587 55.0294ZM35.1734 54.7503C36.7848 52.1846 38.287 49.7279 39.68 47.3801L38.82 46.8699C37.4317 49.2096 35.934 51.6591 34.3266 54.2184L35.1734 54.7503ZM39.6787 47.3822C41.0874 45.0345 43.2143 41.3906 46.0583 36.4527L45.1917 35.9536C42.3482 40.8906 40.2251 44.528 38.8213 46.8678L39.6787 47.3822ZM46.0605 36.4488L50.2792 28.9723L49.4083 28.4808L45.1895 35.9574L46.0605 36.4488ZM50.2677 28.4616L50.0334 28.0866L49.1854 28.6166L49.4198 28.9916L50.2677 28.4616ZM49.6118 27.8516L44.854 27.8281L44.8491 28.8281L49.6069 28.8516L49.6118 27.8516ZM44.8544 27.8281L40.659 27.8047L40.6535 28.8047L44.8488 28.8281L44.8544 27.8281ZM40.6562 27.8047C39.4483 27.8047 38.4714 27.8282 37.7295 27.876C37.0107 27.9224 36.4506 27.9943 36.1213 28.1178L36.4724 29.0541C36.6432 28.9901 37.0596 28.9213 37.7939 28.874C38.5051 28.8281 39.4579 28.8047 40.6562 28.8047V27.8047ZM36.1157 28.1199C35.684 28.2878 35.3814 28.6276 35.1854 29.0587L36.0958 29.4725C36.2123 29.2162 36.3472 29.1028 36.4781 29.0519L36.1157 28.1199ZM35.1823 29.0658C35.0217 29.4342 34.8853 30.0315 34.7602 30.8093C34.6328 31.6019 34.5105 32.6277 34.3928 33.883L35.3884 33.9764C35.5051 32.7317 35.625 31.7301 35.7476 30.9681C35.8725 30.1912 35.9939 29.7064 36.099 29.4654L35.1823 29.0658ZM34.5169 33.5975L34.3294 33.8084L35.0768 34.4728L35.2643 34.2619L34.5169 33.5975ZM34.7457 33.6424L32.8238 33.4784L32.7387 34.4748L34.6606 34.6388L34.7457 33.6424ZM33.2803 34.0075C33.3905 32.2287 33.4453 30.1398 33.4453 27.7422H32.4453C32.4453 30.1258 32.3908 32.1932 32.2822 33.9456L33.2803 34.0075ZM33.4453 27.7422C33.4453 26.1995 33.3902 24.4322 33.2805 22.4412L32.282 22.4963C32.391 24.474 32.4453 26.2223 32.4453 27.7422H33.4453ZM33.1453 22.8114L33.5203 22.413L32.7922 21.7276L32.4172 22.1261L33.1453 22.8114ZM33.1272 22.5695C37.6999 22.8357 42.4049 22.9688 47.2422 22.9688V21.9688C42.4232 21.9688 37.7376 21.8362 33.1853 21.5712L33.1272 22.5695ZM47.2422 22.9688C49.4519 22.9688 52.1135 22.9217 55.226 22.8279L55.1959 21.8284C52.0897 21.922 49.4387 21.9688 47.2422 21.9688V22.9688Z" fill="#777777"/>
</g>
</g>
<defs>
<filter id="filter0_d" x="0.5" y="0.5" width="85" height="85" filterUnits="userSpaceOnUse" color-interpolation-filters="sRGB">
<feFlood flood-opacity="0" result="BackgroundImageFix"/>
<feColorMatrix in="SourceAlpha" type="matrix" values="0 0 0 0 0 0 0 0 0 0 0 0 0 0 0 0 0 0 127 0"/>
<feOffset dx="4" dy="4"/>
<feGaussianBlur stdDeviation="1"/>
<feColorMatrix type="matrix" values="0 0 0 0 0 0 0 0 0 0 0 0 0 0 0 0 0 0 0.5 0"/>
<feBlend mode="normal" in2="BackgroundImageFix" result="effect1_dropShadow"/>
<feBlend mode="normal" in="SourceGraphic" in2="effect1_dropShadow" result="shape"/>
</filter>
<filter id="filter1_d" x="32.252" y="21.5576" width="27.4589" height="40.1721" filterUnits="userSpaceOnUse" color-interpolation-filters="sRGB">
<feFlood flood-opacity="0" result="BackgroundImageFix"/>
<feColorMatrix in="SourceAlpha" type="matrix" values="0 0 0 0 0 0 0 0 0 0 0 0 0 0 0 0 0 0 127 0"/>
<feOffset dx="2" dy="4"/>
<feGaussianBlur stdDeviation="1"/>
<feColorMatrix type="matrix" values="0 0 0 0 0 0 0 0 0 0 0 0 0 0 0 0 0 0 1 0"/>
<feBlend mode="normal" in2="BackgroundImageFix" result="effect1_dropShadow"/>
<feBlend mode="normal" in="SourceGraphic" in2="effect1_dropShadow" result="shape"/>
</filter>
</defs>
</svg>
