<svg width="86" height="86" viewBox="0 0 86 86" fill="none" xmlns="http://www.w3.org/2000/svg">
<g filter="url(#filter0_d)">
<rect x="1" y="1" width="78" height="78" rx="39" fill="#041179" stroke="#777777"/>
<g filter="url(#filter1_d)">
<path d="M35.8203 38.8047C34.0859 37.8984 32.8359 36.8281 32.0703 35.5938C31.3047 34.3594 30.9219 32.8906 30.9219 31.1875C30.9219 28.5 31.8828 26.2734 33.8047 24.5078C35.7266 22.7266 38.2656 21.8359 41.4219 21.8359C44.1719 21.8359 46.2656 22.4922 47.7031 23.8047C49.1562 25.1172 49.8828 26.8984 49.8828 29.1484C49.8828 30.5234 49.5469 31.75 48.875 32.8281C48.2031 33.8906 46.9766 34.9844 45.1953 36.1094C47.2109 36.9062 48.6562 37.8438 49.5312 38.9219C50.7188 40.375 51.3125 42.25 51.3125 44.5469C51.3125 47.7031 50.2344 50.3438 48.0781 52.4688C45.9219 54.5781 43.1562 55.6328 39.7812 55.6328C36.8594 55.6328 34.5078 54.8047 32.7266 53.1484C30.9453 51.4922 30.0547 49.3828 30.0547 46.8203C30.0547 44.9609 30.4688 43.4141 31.2969 42.1797C32.1406 40.9453 33.6484 39.8203 35.8203 38.8047ZM42.875 35.1719C43.8594 34.4062 44.5938 33.5625 45.0781 32.6406C45.5625 31.7188 45.8047 30.7188 45.8047 29.6406C45.8047 28 45.3438 26.7109 44.4219 25.7734C43.5 24.8359 42.2422 24.3672 40.6484 24.3672C39.1641 24.3672 37.9844 24.7891 37.1094 25.6328C36.25 26.4609 35.8203 27.5312 35.8203 28.8438C35.8203 30.0781 36.25 31.1484 37.1094 32.0547C37.9844 32.9453 39.9062 33.9844 42.875 35.1719ZM37.8828 39.7656C36.6953 40.7656 35.8438 41.8047 35.3281 42.8828C34.8125 43.9453 34.5547 45.1172 34.5547 46.3984C34.5547 48.3359 35.1406 49.9375 36.3125 51.2031C37.4844 52.4531 38.9219 53.0781 40.625 53.0781C42.1406 53.0781 43.4062 52.5391 44.4219 51.4609C45.4375 50.3672 45.9453 48.9922 45.9453 47.3359C45.9453 46.3359 45.7266 45.4297 45.2891 44.6172C44.8672 43.7891 44.2344 43.0781 43.3906 42.4844C42.5469 41.8906 40.7109 40.9844 37.8828 39.7656Z" fill="white" fill-opacity="0.9"/>
<path d="M35.8203 38.8047L36.0321 39.2576L36.9475 38.8295L36.0519 38.3615L35.8203 38.8047ZM33.8047 24.5078L34.143 24.876L34.1446 24.8745L33.8047 24.5078ZM47.7031 23.8047L47.366 24.1739L47.368 24.1757L47.7031 23.8047ZM48.875 32.8281L49.2976 33.0954L49.2993 33.0926L48.875 32.8281ZM45.1953 36.1094L44.9283 35.6866L44.0959 36.2124L45.0115 36.5744L45.1953 36.1094ZM49.5312 38.9219L49.143 39.237L49.1441 39.2383L49.5312 38.9219ZM48.0781 52.4688L48.4278 52.8262L48.4291 52.8249L48.0781 52.4688ZM31.2969 42.1797L30.8841 41.8975L30.8817 41.9011L31.2969 42.1797ZM42.875 35.1719L42.6893 35.6361L42.9556 35.7426L43.182 35.5666L42.875 35.1719ZM37.1094 25.6328L37.4563 25.9929L37.4564 25.9927L37.1094 25.6328ZM37.1094 32.0547L36.7465 32.3988L36.7527 32.4051L37.1094 32.0547ZM37.8828 39.7656L38.0807 39.3064L37.797 39.1842L37.5607 39.3832L37.8828 39.7656ZM35.3281 42.8828L35.778 43.1011L35.7792 43.0985L35.3281 42.8828ZM36.3125 51.2031L35.9456 51.5428L35.9477 51.5451L36.3125 51.2031ZM44.4219 51.4609L44.7858 51.8038L44.7883 51.8012L44.4219 51.4609ZM45.2891 44.6172L44.8434 44.8442L44.8488 44.8542L45.2891 44.6172ZM36.0519 38.3615C34.3703 37.4829 33.2 36.4665 32.4952 35.3302L31.6454 35.8573C32.4719 37.1898 33.8016 38.314 35.5888 39.2478L36.0519 38.3615ZM32.4952 35.3302C31.7866 34.1878 31.4219 32.8138 31.4219 31.1875H30.4219C30.4219 32.9674 30.8228 34.531 31.6454 35.8573L32.4952 35.3302ZM31.4219 31.1875C31.4219 28.6352 32.3276 26.5438 34.143 24.876L33.4664 24.1396C31.438 26.0031 30.4219 28.3648 30.4219 31.1875H31.4219ZM34.1446 24.8745C35.9558 23.1958 38.3644 22.3359 41.4219 22.3359V21.3359C38.1668 21.3359 35.4973 22.2573 33.4648 24.1411L34.1446 24.8745ZM41.4219 22.3359C44.0985 22.3359 46.0526 22.9747 47.366 24.1739L48.0403 23.4354C46.4787 22.0096 44.2452 21.3359 41.4219 21.3359V22.3359ZM47.368 24.1757C48.7001 25.3789 49.3828 27.0166 49.3828 29.1484H50.3828C50.3828 26.7803 49.6124 24.8555 48.0383 23.4336L47.368 24.1757ZM49.3828 29.1484C49.3828 30.438 49.069 31.5714 48.4507 32.5637L49.2993 33.0926C50.0247 31.9286 50.3828 30.6089 50.3828 29.1484H49.3828ZM48.4524 32.5609C47.8384 33.5319 46.6838 34.5779 44.9283 35.6866L45.4623 36.5321C47.2693 35.3908 48.5679 34.2493 49.2976 33.0954L48.4524 32.5609ZM45.0115 36.5744C46.988 37.3558 48.3443 38.2528 49.143 39.237L49.9195 38.6068C48.9682 37.4347 47.4339 36.4567 45.3791 35.6444L45.0115 36.5744ZM49.1441 39.2383C50.2433 40.5834 50.8125 42.3386 50.8125 44.5469H51.8125C51.8125 42.1614 51.1942 40.1666 49.9184 38.6055L49.1441 39.2383ZM50.8125 44.5469C50.8125 47.5756 49.7836 50.086 47.7272 52.1126L48.4291 52.8249C50.6851 50.6015 51.8125 47.8306 51.8125 44.5469H50.8125ZM47.7285 52.1113C45.6771 54.1181 43.0425 55.1328 39.7812 55.1328V56.1328C43.27 56.1328 46.1666 55.0381 48.4278 52.8262L47.7285 52.1113ZM39.7812 55.1328C36.9588 55.1328 34.7378 54.3358 33.067 52.7823L32.3861 53.5146C34.2778 55.2736 36.76 56.1328 39.7812 56.1328V55.1328ZM33.067 52.7823C31.3935 51.2262 30.5547 49.2523 30.5547 46.8203H29.5547C29.5547 49.5134 30.4971 51.7582 32.3861 53.5146L33.067 52.7823ZM30.5547 46.8203C30.5547 45.0352 30.9517 43.5917 31.7121 42.4583L30.8817 41.9011C29.9858 43.2364 29.5547 44.8867 29.5547 46.8203H30.5547ZM31.7097 42.4618C32.4811 41.3333 33.8971 40.256 36.0321 39.2576L35.6085 38.3518C33.3998 39.3846 31.8002 40.5574 30.8841 41.8975L31.7097 42.4618ZM43.182 35.5666C44.2117 34.7657 44.9973 33.8694 45.5207 32.8732L44.6355 32.4081C44.1902 33.2556 43.5071 34.0468 42.568 34.7772L43.182 35.5666ZM45.5207 32.8732C46.0442 31.877 46.3047 30.7968 46.3047 29.6406H45.3047C45.3047 30.6407 45.0808 31.5605 44.6355 32.4081L45.5207 32.8732ZM46.3047 29.6406C46.3047 27.9031 45.8137 26.4758 44.7784 25.4229L44.0654 26.124C44.8738 26.9461 45.3047 28.0969 45.3047 29.6406H46.3047ZM44.7784 25.4229C43.7431 24.3701 42.3458 23.8672 40.6484 23.8672V24.8672C42.1385 24.8672 43.2569 25.3018 44.0654 26.124L44.7784 25.4229ZM40.6484 23.8672C39.0649 23.8672 37.7502 24.3202 36.7623 25.2729L37.4564 25.9927C38.2185 25.2579 39.2632 24.8672 40.6484 24.8672V23.8672ZM36.7624 25.2728C35.795 26.2051 35.3203 27.4104 35.3203 28.8438H36.3203C36.3203 27.6521 36.705 26.7168 37.4563 25.9929L36.7624 25.2728ZM35.3203 28.8438C35.3203 30.2078 35.8003 31.4008 36.7466 32.3987L37.4722 31.7106C36.6997 30.8961 36.3203 29.9484 36.3203 28.8438H35.3203ZM36.7527 32.4051C37.2419 32.903 37.9921 33.4135 38.9692 33.9418C39.9528 34.4736 41.1945 35.0382 42.6893 35.6361L43.0607 34.7076C41.5868 34.1181 40.3831 33.5694 39.4448 33.0621C38.5001 32.5514 37.8519 32.097 37.466 31.7043L36.7527 32.4051ZM37.5607 39.3832C36.3345 40.4158 35.4311 41.5087 34.8771 42.6671L35.7792 43.0985C36.2564 42.1007 37.0562 41.1154 38.2049 40.1481L37.5607 39.3832ZM34.8783 42.6645C34.3269 43.8007 34.0547 45.0481 34.0547 46.3984H35.0547C35.0547 45.1863 35.2981 44.0899 35.778 43.1011L34.8783 42.6645ZM34.0547 46.3984C34.0547 48.4451 34.6774 50.1732 35.9456 51.5428L36.6794 50.8634C35.6038 49.7018 35.0547 48.2267 35.0547 46.3984H34.0547ZM35.9477 51.5451C37.2135 52.8952 38.7827 53.5781 40.625 53.5781V52.5781C39.061 52.5781 37.7553 52.011 36.6773 50.8612L35.9477 51.5451ZM40.625 53.5781C42.2748 53.5781 43.6733 52.9848 44.7858 51.8038L44.0579 51.1181C43.1392 52.0933 42.0065 52.5781 40.625 52.5781V53.5781ZM44.7883 51.8012C45.8995 50.6045 46.4453 49.1034 46.4453 47.3359H45.4453C45.4453 48.881 44.9755 50.1299 44.0555 51.1207L44.7883 51.8012ZM46.4453 47.3359C46.4453 46.2603 46.2093 45.2715 45.7293 44.3801L44.8488 44.8542C45.2439 45.5879 45.4453 46.4116 45.4453 47.3359H46.4453ZM45.7346 44.3902C45.2718 43.4818 44.5813 42.7109 43.6784 42.0755L43.1029 42.8933C43.8875 43.4454 44.4626 44.0963 44.8435 44.8442L45.7346 44.3902ZM43.6784 42.0755C42.7853 41.447 40.9008 40.5218 38.0807 39.3064L37.6849 40.2248C40.521 41.447 42.3085 42.3343 43.1029 42.8933L43.6784 42.0755Z" fill="#777777"/>
</g>
</g>
<defs>
<filter id="filter0_d" x="0.5" y="0.5" width="85" height="85" filterUnits="userSpaceOnUse" color-interpolation-filters="sRGB">
<feFlood flood-opacity="0" result="BackgroundImageFix"/>
<feColorMatrix in="SourceAlpha" type="matrix" values="0 0 0 0 0 0 0 0 0 0 0 0 0 0 0 0 0 0 127 0"/>
<feOffset dx="4" dy="4"/>
<feGaussianBlur stdDeviation="1"/>
<feColorMatrix type="matrix" values="0 0 0 0 0 0 0 0 0 0 0 0 0 0 0 0 0 0 0.5 0"/>
<feBlend mode="normal" in2="BackgroundImageFix" result="effect1_dropShadow"/>
<feBlend mode="normal" in="SourceGraphic" in2="effect1_dropShadow" result="shape"/>
</filter>
<filter id="filter1_d" x="29.5547" y="21.3359" width="26.2578" height="40.7969" filterUnits="userSpaceOnUse" color-interpolation-filters="sRGB">
<feFlood flood-opacity="0" result="BackgroundImageFix"/>
<feColorMatrix in="SourceAlpha" type="matrix" values="0 0 0 0 0 0 0 0 0 0 0 0 0 0 0 0 0 0 127 0"/>
<feOffset dx="2" dy="4"/>
<feGaussianBlur stdDeviation="1"/>
<feColorMatrix type="matrix" values="0 0 0 0 0 0 0 0 0 0 0 0 0 0 0 0 0 0 1 0"/>
<feBlend mode="normal" in2="BackgroundImageFix" result="effect1_dropShadow"/>
<feBlend mode="normal" in="SourceGraphic" in2="effect1_dropShadow" result="shape"/>
</filter>
</defs>
</svg>
