<svg width="86" height="86" viewBox="0 0 86 86" fill="none" xmlns="http://www.w3.org/2000/svg">
<g filter="url(#filter0_d)">
<rect x="1" y="1" width="78" height="78" rx="39" fill="#467DF4" stroke="#9E1212"/>
<g filter="url(#filter1_d)">
<path d="M46.1484 38.7578C44.3984 40.5859 43.1641 41.6719 42.4453 42.0156C41.4922 42.4844 40.3125 42.7188 38.9062 42.7188C36.6719 42.7188 34.8516 41.9141 33.4453 40.3047C32.0391 38.6797 31.3359 36.4219 31.3359 33.5312C31.3359 30.0625 32.3438 27.25 34.3594 25.0938C36.375 22.9219 38.9219 21.8359 42 21.8359C44.1094 21.8359 45.9688 22.3516 47.5781 23.3828C49.1875 24.4141 50.4219 25.875 51.2812 27.7656C52.1562 29.6562 52.5938 32.2188 52.5938 35.4531C52.5938 39.8594 51.8828 43.4844 50.4609 46.3281C49.0391 49.1719 46.9766 51.4844 44.2734 53.2656C41.5703 55.0312 38.4531 56.0078 34.9219 56.1953L32.9297 54.625L33.4922 53.7344C34.4453 53.8438 35.1094 53.8984 35.4844 53.8984C37.2344 53.8984 38.9219 53.3516 40.5469 52.2578C42.1719 51.1641 43.4375 49.625 44.3438 47.6406C45.2656 45.6406 45.8672 42.6797 46.1484 38.7578ZM42.0703 38.4766C43.3828 38.4766 44.4141 38.0391 45.1641 37.1641C45.9297 36.2891 46.3125 34.8906 46.3125 32.9688C46.3125 29.875 45.8594 27.6719 44.9531 26.3594C44.0625 25.0312 42.8906 24.3672 41.4375 24.3672C40.1406 24.3672 39.1016 24.8906 38.3203 25.9375C37.5391 26.9844 37.1484 28.6172 37.1484 30.8359C37.1484 33.5547 37.625 35.5625 38.5781 36.8594C39.3594 37.9375 40.5234 38.4766 42.0703 38.4766Z" fill="#9E1212"/>
<path d="M46.1484 38.7578L46.6472 38.7936L46.7464 37.4101L45.7873 38.4121L46.1484 38.7578ZM42.4453 42.0156L42.2296 41.5645L42.2247 41.5669L42.4453 42.0156ZM33.4453 40.3047L33.0672 40.6319L33.0688 40.6337L33.4453 40.3047ZM34.3594 25.0938L34.7246 25.4352L34.7259 25.4339L34.3594 25.0938ZM51.2812 27.7656L50.8261 27.9725L50.8275 27.9756L51.2812 27.7656ZM44.2734 53.2656L44.5469 53.6842L44.5486 53.6831L44.2734 53.2656ZM34.9219 56.1953L34.6124 56.588L34.7603 56.7046L34.9484 56.6946L34.9219 56.1953ZM32.9297 54.625L32.5069 54.358L32.2664 54.7388L32.6202 55.0177L32.9297 54.625ZM33.4922 53.7344L33.5492 53.2376L33.2372 53.2018L33.0694 53.4674L33.4922 53.7344ZM44.3438 47.6406L43.8897 47.4313L43.8889 47.4329L44.3438 47.6406ZM45.1641 37.1641L44.7878 36.8348L44.7844 36.8387L45.1641 37.1641ZM44.9531 26.3594L44.5378 26.6379L44.5417 26.6435L44.9531 26.3594ZM38.5781 36.8594L38.983 36.566L38.981 36.5633L38.5781 36.8594ZM45.7873 38.4121C44.9175 39.3207 44.1823 40.038 43.5799 40.568C42.9687 41.1056 42.5234 41.4241 42.2296 41.5646L42.661 42.4667C43.086 42.2634 43.6172 41.867 44.2404 41.3188C44.8724 40.7628 45.6294 40.0231 46.5096 39.1036L45.7873 38.4121ZM42.2247 41.5669C41.3587 41.9928 40.2597 42.2188 38.9062 42.2188V43.2188C40.3653 43.2188 41.6257 42.9759 42.666 42.4643L42.2247 41.5669ZM38.9062 42.2188C36.8087 42.2188 35.1283 41.4709 33.8218 39.9757L33.0688 40.6337C34.5748 42.3572 36.535 43.2188 38.9062 43.2188V42.2188ZM33.8234 39.9775C32.5194 38.4707 31.8359 36.3435 31.8359 33.5312H30.8359C30.8359 36.5002 31.5587 38.8887 33.0672 40.6319L33.8234 39.9775ZM31.8359 33.5312C31.8359 30.1656 32.8105 27.4829 34.7246 25.4352L33.9941 24.7523C31.877 27.0171 30.8359 29.9594 30.8359 33.5312H31.8359ZM34.7259 25.4339C36.6428 23.3683 39.0549 22.3359 42 22.3359V21.3359C38.7889 21.3359 36.1072 22.4754 33.9929 24.7536L34.7259 25.4339ZM42 22.3359C44.024 22.3359 45.7877 22.8294 47.3084 23.8038L47.8479 22.9618C46.1498 21.8737 44.1947 21.3359 42 21.3359V22.3359ZM47.3084 23.8038C48.8296 24.7786 50.003 26.1617 50.8261 27.9725L51.7364 27.5587C50.8408 25.5883 49.5454 24.0496 47.8479 22.9618L47.3084 23.8038ZM50.8275 27.9756C51.6599 29.7741 52.0938 32.2553 52.0938 35.4531H53.0938C53.0938 32.1822 52.6526 29.5384 51.735 27.5556L50.8275 27.9756ZM52.0938 35.4531C52.0938 39.81 51.3901 43.3517 50.0137 46.1045L50.9082 46.5517C52.3755 43.6171 53.0938 39.9088 53.0938 35.4531H52.0938ZM50.0137 46.1045C48.6319 48.8681 46.6294 51.1143 43.9983 52.8481L44.5486 53.6831C47.3237 51.8544 49.4462 49.4756 50.9082 46.5517L50.0137 46.1045ZM44 52.847C41.3776 54.5599 38.3473 55.5127 34.8954 55.696L34.9484 56.6946C38.559 56.5029 41.7631 55.5026 44.5469 53.6842L44 52.847ZM35.2314 55.8026L33.2392 54.2323L32.6202 55.0177L34.6124 56.588L35.2314 55.8026ZM33.3524 54.892L33.9149 54.0014L33.0694 53.4674L32.5069 54.358L33.3524 54.892ZM33.4352 54.2311C34.387 54.3403 35.0773 54.3984 35.4844 54.3984V53.3984C35.1415 53.3984 34.5036 53.3472 33.5492 53.2376L33.4352 54.2311ZM35.4844 54.3984C37.3455 54.3984 39.1288 53.815 40.8261 52.6726L40.2677 51.843C38.715 52.8881 37.1233 53.3984 35.4844 53.3984V54.3984ZM40.8261 52.6726C42.5361 51.5216 43.8585 49.9068 44.7986 47.8483L43.8889 47.4329C43.0165 49.3432 41.8077 50.8065 40.2677 51.843L40.8261 52.6726ZM44.7978 47.8499C45.7574 45.7681 46.3644 42.736 46.6472 38.7936L45.6497 38.722C45.3699 42.6234 44.7738 45.5131 43.8897 47.4313L44.7978 47.8499ZM42.0703 38.9766C43.5062 38.9766 44.6849 38.4914 45.5437 37.4895L44.7844 36.8387C44.1432 37.5868 43.2595 37.9766 42.0703 37.9766V38.9766ZM45.5404 37.4933C46.4236 36.4839 46.8125 34.9381 46.8125 32.9688H45.8125C45.8125 34.8431 45.4358 36.0942 44.7878 36.8348L45.5404 37.4933ZM46.8125 32.9688C46.8125 29.8538 46.3616 27.5192 45.3646 26.0753L44.5417 26.6435C45.3572 27.8246 45.8125 29.8962 45.8125 32.9688H46.8125ZM45.3684 26.0809C44.3959 24.6307 43.0761 23.8672 41.4375 23.8672V24.8672C42.7051 24.8672 43.7291 25.4318 44.5379 26.6379L45.3684 26.0809ZM41.4375 23.8672C39.9815 23.8672 38.7944 24.4662 37.9196 25.6385L38.721 26.2365C39.4087 25.3151 40.2998 24.8672 41.4375 24.8672V23.8672ZM37.9196 25.6385C37.0426 26.8137 36.6484 28.5773 36.6484 30.8359H37.6484C37.6484 28.657 38.0356 27.1551 38.721 26.2365L37.9196 25.6385ZM36.6484 30.8359C36.6484 33.5949 37.1287 35.7315 38.1752 37.1555L38.981 36.5633C38.1213 35.3935 37.6484 33.5144 37.6484 30.8359H36.6484ZM38.1733 37.1528C39.0647 38.3829 40.3928 38.9766 42.0703 38.9766V37.9766C40.6541 37.9766 39.6541 37.4921 38.983 36.566L38.1733 37.1528Z" fill="black"/>
</g>
</g>
<defs>
<filter id="filter0_d" x="0.5" y="0.5" width="85" height="85" filterUnits="userSpaceOnUse" color-interpolation-filters="sRGB">
<feFlood flood-opacity="0" result="BackgroundImageFix"/>
<feColorMatrix in="SourceAlpha" type="matrix" values="0 0 0 0 0 0 0 0 0 0 0 0 0 0 0 0 0 0 127 0"/>
<feOffset dx="4" dy="4"/>
<feGaussianBlur stdDeviation="1"/>
<feColorMatrix type="matrix" values="0 0 0 0 0 0 0 0 0 0 0 0 0 0 0 0 0 0 0.5 0"/>
<feBlend mode="normal" in2="BackgroundImageFix" result="effect1_dropShadow"/>
<feBlend mode="normal" in="SourceGraphic" in2="effect1_dropShadow" result="shape"/>
</filter>
<filter id="filter1_d" x="30.8359" y="21.3359" width="26.2578" height="41.3687" filterUnits="userSpaceOnUse" color-interpolation-filters="sRGB">
<feFlood flood-opacity="0" result="BackgroundImageFix"/>
<feColorMatrix in="SourceAlpha" type="matrix" values="0 0 0 0 0 0 0 0 0 0 0 0 0 0 0 0 0 0 127 0"/>
<feOffset dx="2" dy="4"/>
<feGaussianBlur stdDeviation="1"/>
<feColorMatrix type="matrix" values="0 0 0 0 0 0 0 0 0 0 0 0 0 0 0 0 0 0 0.25 0"/>
<feBlend mode="normal" in2="BackgroundImageFix" result="effect1_dropShadow"/>
<feBlend mode="normal" in="SourceGraphic" in2="effect1_dropShadow" result="shape"/>
</filter>
</defs>
</svg>
