<svg width="86" height="86" viewBox="0 0 86 86" fill="none" xmlns="http://www.w3.org/2000/svg">
<g filter="url(#filter0_d)">
<rect x="1" y="1" width="78" height="78" rx="22" fill="#000056" stroke="#777777"/>
<g filter="url(#filter1_d)">
<path d="M54.6016 50.0781L55.1875 50.6172C54.7812 51.3984 54.4219 52.1953 54.1094 53.0078C52.2969 53.9609 50.5469 54.6328 48.8594 55.0234C47.1875 55.4297 45.2578 55.6328 43.0703 55.6328C38.9766 55.6328 35.5156 54.9141 32.6875 53.4766C29.8594 52.0391 27.6797 50.0156 26.1484 47.4062C24.6328 44.7969 23.875 41.8047 23.875 38.4297C23.875 33.5703 25.5938 29.5938 29.0312 26.5C32.4844 23.3906 37.2422 21.8359 43.3047 21.8359C45.3203 21.8359 47.3125 22.0156 49.2812 22.375C51.2656 22.7344 53.2344 23.2812 55.1875 24.0156L55.3516 24.3672C55.0703 25.2109 54.875 26.0234 54.7656 26.8047C54.5625 28.1641 54.4062 29.8516 54.2969 31.8672H52.3281C52.2344 29.3984 52.1406 28.0469 52.0469 27.8125C51.9531 27.5625 51.5234 27.1484 50.7578 26.5703C49.9922 25.9766 48.9531 25.5 47.6406 25.1406C46.3438 24.7656 44.9062 24.5781 43.3281 24.5781C39.5781 24.5781 36.5938 25.7344 34.375 28.0469C32.1719 30.3594 31.0703 33.5781 31.0703 37.7031C31.0703 42.1719 32.3984 45.7891 35.0547 48.5547C37.5078 51.1172 40.875 52.3984 45.1562 52.3984C46.8125 52.3984 48.3594 52.2266 49.7969 51.8828C51.25 51.5391 52.8516 50.9375 54.6016 50.0781Z" fill="white"/>
<path d="M54.6016 50.0781L54.9401 49.7102L54.6883 49.4785L54.3812 49.6293L54.6016 50.0781ZM55.1875 50.6172L55.6311 50.8479L55.8077 50.5083L55.526 50.2492L55.1875 50.6172ZM54.1094 53.0078L54.3421 53.4504L54.5085 53.3628L54.576 53.1873L54.1094 53.0078ZM48.8594 55.0234L48.7466 54.5363L48.7413 54.5376L48.8594 55.0234ZM26.1484 47.4062L25.7161 47.6574L25.7172 47.6593L26.1484 47.4062ZM29.0312 26.5L29.3657 26.8716L29.3658 26.8716L29.0312 26.5ZM49.2812 22.375L49.1915 22.8669L49.1921 22.867L49.2812 22.375ZM55.1875 24.0156L55.6406 23.8042L55.5544 23.6194L55.3635 23.5476L55.1875 24.0156ZM55.3516 24.3672L55.8259 24.5253L55.8889 24.3363L55.8047 24.1557L55.3516 24.3672ZM54.7656 26.8047L55.2602 26.8786L55.2608 26.874L54.7656 26.8047ZM54.2969 31.8672V32.3672H54.7705L54.7961 31.8943L54.2969 31.8672ZM52.3281 31.8672L51.8285 31.8862L51.8468 32.3672H52.3281V31.8672ZM52.0469 27.8125L51.5786 27.9881L51.5826 27.9982L52.0469 27.8125ZM50.7578 26.5703L50.4514 26.9655L50.4565 26.9693L50.7578 26.5703ZM47.6406 25.1406L47.5017 25.621L47.5086 25.6229L47.6406 25.1406ZM34.375 28.0469L34.0142 27.7007L34.013 27.702L34.375 28.0469ZM35.0547 48.5547L35.4159 48.2089L35.4153 48.2083L35.0547 48.5547ZM49.7969 51.8828L49.6818 51.3962L49.6806 51.3965L49.7969 51.8828ZM54.263 50.4461L54.849 50.9852L55.526 50.2492L54.9401 49.7102L54.263 50.4461ZM54.7439 50.3865C54.3291 51.1842 53.962 51.9981 53.6427 52.8283L54.576 53.1873C54.8817 52.3925 55.2334 51.6127 55.6311 50.8479L54.7439 50.3865ZM53.8767 52.5653C52.0954 53.502 50.3856 54.1569 48.7466 54.5363L48.9721 55.5106C50.7081 55.1087 52.4984 54.4199 54.3421 53.4504L53.8767 52.5653ZM48.7413 54.5376C47.1169 54.9323 45.2282 55.1328 43.0703 55.1328V56.1328C45.2874 56.1328 47.2581 55.9271 48.9774 55.5093L48.7413 54.5376ZM43.0703 55.1328C39.0332 55.1328 35.6546 54.4238 32.9141 53.0308L32.4609 53.9223C35.3766 55.4043 38.92 56.1328 43.0703 56.1328V55.1328ZM32.9141 53.0308C30.1668 51.6345 28.0601 49.676 26.5797 47.1532L25.7172 47.6593C27.2993 50.3553 29.5519 52.4437 32.4609 53.9223L32.9141 53.0308ZM26.5808 47.1551C25.1146 44.6308 24.375 41.7272 24.375 38.4297H23.375C23.375 41.8822 24.1511 44.963 25.7161 47.6574L26.5808 47.1551ZM24.375 38.4297C24.375 33.7039 26.0395 29.8653 29.3657 26.8716L28.6968 26.1284C25.148 29.3222 23.375 33.4367 23.375 38.4297H24.375ZM29.3658 26.8716C32.702 23.8675 37.3272 22.3359 43.3047 22.3359V21.3359C37.1572 21.3359 32.2667 22.9138 28.6967 26.1284L29.3658 26.8716ZM43.3047 22.3359C45.2904 22.3359 47.2526 22.5129 49.1915 22.8669L49.371 21.8831C47.3724 21.5183 45.3502 21.3359 43.3047 21.3359V22.3359ZM49.1921 22.867C51.1459 23.2208 53.0856 23.7595 55.0115 24.4836L55.3635 23.5476C53.3831 22.803 51.3854 22.2479 49.3704 21.883L49.1921 22.867ZM54.7344 24.2271L54.8985 24.5786L55.8047 24.1557L55.6406 23.8042L54.7344 24.2271ZM54.8772 24.2091C54.5875 25.0781 54.3845 25.9204 54.2705 26.7354L55.2608 26.874C55.3655 26.1265 55.5531 25.3437 55.8259 24.5253L54.8772 24.2091ZM54.2711 26.7308C54.0649 28.111 53.9075 29.8153 53.7976 31.8401L54.7961 31.8943C54.905 29.8878 55.0601 28.2171 55.2601 26.8786L54.2711 26.7308ZM54.2969 31.3672H52.3281V32.3672H54.2969V31.3672ZM52.8278 31.8482C52.7808 30.6121 52.7337 29.6509 52.6863 28.9674C52.6626 28.6261 52.6385 28.3489 52.6137 28.139C52.592 27.9549 52.5635 27.7578 52.5111 27.6268L51.5826 27.9982C51.5771 27.9844 51.5955 28.0441 51.6206 28.2565C51.6427 28.4431 51.6655 28.702 51.6887 29.0366C51.735 29.7045 51.7817 30.6535 51.8285 31.8862L52.8278 31.8482ZM52.515 27.6369C52.4253 27.3976 52.2193 27.1645 52.0012 26.9544C51.766 26.7277 51.4496 26.4661 51.0591 26.1713L50.4565 26.9693C50.8317 27.2526 51.1129 27.4871 51.3074 27.6745C51.4045 27.7681 51.474 27.8442 51.5209 27.9038C51.5707 27.967 51.5808 27.9935 51.5787 27.9881L52.515 27.6369ZM51.0642 26.1752C50.2303 25.5285 49.1247 25.0286 47.7727 24.6584L47.5086 25.6229C48.7816 25.9714 49.7541 26.4246 50.4514 26.9654L51.0642 26.1752ZM47.7795 24.6603C46.4306 24.2703 44.9455 24.0781 43.3281 24.0781V25.0781C44.867 25.0781 46.2569 25.261 47.5017 25.6209L47.7795 24.6603ZM43.3281 24.0781C39.4671 24.0781 36.3434 25.2731 34.0142 27.7007L34.7358 28.393C36.8441 26.1956 39.6892 25.0781 43.3281 25.0781V24.0781ZM34.013 27.702C31.6977 30.1322 30.5703 33.4885 30.5703 37.7031H31.5703C31.5703 33.6677 32.646 30.5865 34.737 28.3918L34.013 27.702ZM30.5703 37.7031C30.5703 42.2781 31.9337 46.027 34.6941 48.901L35.4153 48.2083C32.8632 45.5511 31.5703 42.0657 31.5703 37.7031H30.5703ZM34.6935 48.9004C37.2601 51.5814 40.769 52.8984 45.1562 52.8984V51.8984C40.981 51.8984 37.7556 50.6529 35.4159 48.2089L34.6935 48.9004ZM45.1562 52.8984C46.847 52.8984 48.4333 52.723 49.9132 52.3691L49.6806 51.3965C48.2854 51.7301 46.778 51.8984 45.1562 51.8984V52.8984ZM49.912 52.3694C51.4106 52.0149 53.048 51.3981 54.822 50.5269L54.3812 49.6293C52.6552 50.4769 51.0894 51.0633 49.6818 51.3962L49.912 52.3694Z" fill="#777777"/>
</g>
</g>
<defs>
<filter id="filter0_d" x="0.5" y="0.5" width="85" height="85" filterUnits="userSpaceOnUse" color-interpolation-filters="sRGB">
<feFlood flood-opacity="0" result="BackgroundImageFix"/>
<feColorMatrix in="SourceAlpha" type="matrix" values="0 0 0 0 0 0 0 0 0 0 0 0 0 0 0 0 0 0 127 0"/>
<feOffset dx="4" dy="4"/>
<feGaussianBlur stdDeviation="1"/>
<feColorMatrix type="matrix" values="0 0 0 0 0 0 0 0 0 0 0 0 0 0 0 0 0 0 0.5 0"/>
<feBlend mode="normal" in2="BackgroundImageFix" result="effect1_dropShadow"/>
<feBlend mode="normal" in="SourceGraphic" in2="effect1_dropShadow" result="shape"/>
</filter>
<filter id="filter1_d" x="23.375" y="21.3359" width="36.5139" height="40.7969" filterUnits="userSpaceOnUse" color-interpolation-filters="sRGB">
<feFlood flood-opacity="0" result="BackgroundImageFix"/>
<feColorMatrix in="SourceAlpha" type="matrix" values="0 0 0 0 0 0 0 0 0 0 0 0 0 0 0 0 0 0 127 0"/>
<feOffset dx="2" dy="4"/>
<feGaussianBlur stdDeviation="1"/>
<feColorMatrix type="matrix" values="0 0 0 0 0 0 0 0 0 0 0 0 0 0 0 0 0 0 1 0"/>
<feBlend mode="normal" in2="BackgroundImageFix" result="effect1_dropShadow"/>
<feBlend mode="normal" in="SourceGraphic" in2="effect1_dropShadow" result="shape"/>
</filter>
</defs>
</svg>
