<svg width="86" height="86" viewBox="0 0 86 86" fill="none" xmlns="http://www.w3.org/2000/svg">
<g filter="url(#filter0_d)">
<rect x="1" y="1" width="78" height="78" rx="22" fill="#000056" stroke="#777777"/>
<g filter="url(#filter1_d)">
<path d="M27.9297 63.8438C28.6797 62.3906 29.6016 60.3047 30.6953 57.5859L43.8672 25.1719C44.5234 23.5312 44.9141 22.5156 45.0391 22.125C45.2266 21.5625 45.4297 20.7969 45.6484 19.8281C47.6797 19.9531 48.875 20.0156 49.2344 20.0156L51.2266 19.9922C50.3984 21.6172 49.4766 23.6719 48.4609 26.1562L35.3125 58.6875L34.0938 61.8047C33.9219 62.3047 33.7266 63 33.5078 63.8906L30.3906 63.7969L27.9297 63.8438Z" fill="white" fill-opacity="0.9"/>
<path d="M27.9297 63.8438L27.4854 63.6144L27.1008 64.3596L27.9392 64.3437L27.9297 63.8438ZM30.6953 57.5859L30.2321 57.3977L30.2314 57.3993L30.6953 57.5859ZM43.8672 25.1719L44.3304 25.3601L44.3314 25.3576L43.8672 25.1719ZM45.0391 22.125L44.5647 21.9669L44.5628 21.9726L45.0391 22.125ZM45.6484 19.8281L45.6791 19.3291L45.2544 19.3029L45.1607 19.718L45.6484 19.8281ZM49.2344 20.0156V20.5157L49.2403 20.5156L49.2344 20.0156ZM51.2266 19.9922L51.6721 20.2192L52.0475 19.4825L51.2207 19.4922L51.2266 19.9922ZM48.4609 26.1562L47.9981 25.967L47.9974 25.9689L48.4609 26.1562ZM35.3125 58.6875L34.8489 58.5001L34.8468 58.5054L35.3125 58.6875ZM34.0938 61.8047L33.6281 61.6226L33.6243 61.6323L33.6209 61.6421L34.0938 61.8047ZM33.5078 63.8906L33.4928 64.3904L33.8969 64.4026L33.9934 64.0099L33.5078 63.8906ZM30.3906 63.7969L30.4057 63.2971L30.3934 63.2967L30.3811 63.297L30.3906 63.7969ZM28.374 64.0731C29.1347 62.5992 30.0634 60.4964 31.1592 57.7726L30.2314 57.3993C29.1397 60.113 28.2247 62.182 27.4854 63.6144L28.374 64.0731ZM31.1585 57.7742L44.3304 25.3601L43.404 24.9836L30.2321 57.3977L31.1585 57.7742ZM44.3314 25.3576C44.9849 23.7239 45.3836 22.6889 45.5153 22.2774L44.5628 21.9726C44.4445 22.3423 44.062 23.3386 43.4029 24.9862L44.3314 25.3576ZM45.5134 22.2831C45.7085 21.6979 45.9158 20.914 46.1362 19.9383L45.1607 19.718C44.9435 20.6798 44.7446 21.4271 44.5647 21.9669L45.5134 22.2831ZM45.6177 20.3272C47.6399 20.4516 48.8554 20.5156 49.2344 20.5156V19.5156C48.8946 19.5156 47.7195 19.4546 45.6791 19.3291L45.6177 20.3272ZM49.2403 20.5156L51.2324 20.4922L51.2207 19.4922L49.2285 19.5157L49.2403 20.5156ZM50.7811 19.7652C49.9445 21.4068 49.0168 23.4752 47.9981 25.967L48.9238 26.3455C49.9363 23.8685 50.8524 21.8276 51.6721 20.2192L50.7811 19.7652ZM47.9974 25.9689L34.8489 58.5001L35.7761 58.8749L48.9245 26.3436L47.9974 25.9689ZM34.8468 58.5054L33.6281 61.6226L34.5594 61.9868L35.7782 58.8696L34.8468 58.5054ZM33.6209 61.6421C33.4419 62.163 33.2424 62.875 33.0222 63.7714L33.9934 64.0099C34.2107 63.125 34.4019 62.4464 34.5666 61.9672L33.6209 61.6421ZM33.5228 63.3909L30.4057 63.2971L30.3756 64.2966L33.4928 64.3904L33.5228 63.3909ZM30.3811 63.297L27.9202 63.3438L27.9392 64.3437L30.4001 64.2968L30.3811 63.297Z" fill="#777777"/>
</g>
</g>
<defs>
<filter id="filter0_d" x="0.5" y="0.5" width="85" height="85" filterUnits="userSpaceOnUse" color-interpolation-filters="sRGB">
<feFlood flood-opacity="0" result="BackgroundImageFix"/>
<feColorMatrix in="SourceAlpha" type="matrix" values="0 0 0 0 0 0 0 0 0 0 0 0 0 0 0 0 0 0 127 0"/>
<feOffset dx="4" dy="4"/>
<feGaussianBlur stdDeviation="1"/>
<feColorMatrix type="matrix" values="0 0 0 0 0 0 0 0 0 0 0 0 0 0 0 0 0 0 0.5 0"/>
<feBlend mode="normal" in2="BackgroundImageFix" result="effect1_dropShadow"/>
<feBlend mode="normal" in="SourceGraphic" in2="effect1_dropShadow" result="shape"/>
</filter>
<filter id="filter1_d" x="27.1007" y="19.3029" width="28.9467" height="51.0996" filterUnits="userSpaceOnUse" color-interpolation-filters="sRGB">
<feFlood flood-opacity="0" result="BackgroundImageFix"/>
<feColorMatrix in="SourceAlpha" type="matrix" values="0 0 0 0 0 0 0 0 0 0 0 0 0 0 0 0 0 0 127 0"/>
<feOffset dx="2" dy="4"/>
<feGaussianBlur stdDeviation="1"/>
<feColorMatrix type="matrix" values="0 0 0 0 0 0 0 0 0 0 0 0 0 0 0 0 0 0 1 0"/>
<feBlend mode="normal" in2="BackgroundImageFix" result="effect1_dropShadow"/>
<feBlend mode="normal" in="SourceGraphic" in2="effect1_dropShadow" result="shape"/>
</filter>
</defs>
</svg>
