<svg width="86" height="86" viewBox="0 0 86 86" fill="none" xmlns="http://www.w3.org/2000/svg">
<g filter="url(#filter0_d)">
<rect x="1" y="1" width="78" height="78" rx="39" fill="#467DF4" stroke="#9E1212"/>
<g filter="url(#filter1_d)">
<path d="M23.6406 32.2422C23.6406 28.5078 24.2812 25.8438 25.5625 24.25C26.8594 22.6406 28.6875 21.8359 31.0469 21.8359C33.3125 21.8359 34.9844 22.5312 36.0625 23.9219C37.1562 25.2969 37.7031 27.8047 37.7031 31.4453C37.7031 35.2422 37.0625 37.9688 35.7812 39.625C34.5156 41.2656 32.7422 42.0859 30.4609 42.0859C28.9922 42.0859 27.7266 41.75 26.6641 41.0781C25.6172 40.4062 24.8516 39.4453 24.3672 38.1953C23.8828 36.9297 23.6406 34.9453 23.6406 32.2422ZM27.7188 30.4375C27.7188 34.5156 28.0625 37.3125 28.75 38.8281C29.1719 39.7812 29.8516 40.2578 30.7891 40.2578C31.6953 40.2578 32.3906 39.8125 32.875 38.9219C33.375 38.0312 33.625 36.1641 33.625 33.3203C33.625 29.2891 33.2891 26.5391 32.6172 25.0703C32.1953 24.1328 31.5078 23.6641 30.5547 23.6641C29.6484 23.6641 28.9453 24.0938 28.4453 24.9531C27.9609 25.8125 27.7188 27.6406 27.7188 30.4375ZM32.8984 56.5703C33.6328 55.3828 34.5469 53.6875 35.6406 51.4844L48.8125 25.1875C49.7031 23.4062 50.3125 21.9531 50.6406 20.8281C51.5312 20.9375 52.2031 20.9922 52.6562 20.9922L53.7812 20.9688C52.9688 22.25 52.0469 23.9219 51.0156 25.9844L37.8672 52.3984L36.6484 54.9062C36.4766 55.3125 36.2734 55.8828 36.0391 56.6172L34.3047 56.5234L32.8984 56.5703ZM48.9766 45.5078C48.9766 41.7734 49.6172 39.1094 50.8984 37.5156C52.1953 35.9062 54.0234 35.1016 56.3828 35.1016C58.6484 35.1016 60.3203 35.7969 61.3984 37.1875C62.4922 38.5625 63.0391 41.0703 63.0391 44.7109C63.0391 48.5078 62.3984 51.2344 61.1172 52.8906C59.8516 54.5312 58.0781 55.3516 55.7969 55.3516C54.3281 55.3516 53.0625 55.0156 52 54.3438C50.9531 53.6719 50.1875 52.7109 49.7031 51.4609C49.2188 50.1953 48.9766 48.2109 48.9766 45.5078ZM53.0547 43.7031C53.0547 47.7812 53.3984 50.5781 54.0859 52.0938C54.5078 53.0469 55.1875 53.5234 56.125 53.5234C57.0312 53.5234 57.7266 53.0781 58.2109 52.1875C58.7109 51.2969 58.9609 49.4297 58.9609 46.5859C58.9609 42.5547 58.625 39.8047 57.9531 38.3359C57.5312 37.3984 56.8438 36.9297 55.8906 36.9297C54.9844 36.9297 54.2812 37.3594 53.7812 38.2188C53.2969 39.0781 53.0547 40.9062 53.0547 43.7031Z" fill="#9E1212"/>
<path d="M25.5625 24.25L25.1732 23.9363L25.1728 23.9367L25.5625 24.25ZM36.0625 23.9219L35.6673 24.2283L35.6712 24.2331L36.0625 23.9219ZM35.7812 39.625L35.3858 39.3191L35.3854 39.3196L35.7812 39.625ZM26.6641 41.0781L26.394 41.4989L26.3968 41.5007L26.6641 41.0781ZM24.3672 38.1953L23.9002 38.374L23.901 38.376L24.3672 38.1953ZM28.75 38.8281L29.2072 38.6257L29.2053 38.6216L28.75 38.8281ZM32.875 38.9219L32.439 38.6771L32.4358 38.683L32.875 38.9219ZM32.6172 25.0703L32.1612 25.2755L32.1625 25.2783L32.6172 25.0703ZM28.4453 24.9531L28.0131 24.7017L28.0097 24.7076L28.4453 24.9531ZM32.8984 56.5703L32.4732 56.3073L31.9823 57.1011L32.9151 57.07L32.8984 56.5703ZM35.6406 51.4844L35.1936 51.2604L35.1928 51.262L35.6406 51.4844ZM48.8125 25.1875L49.2596 25.4114L49.2597 25.4111L48.8125 25.1875ZM50.6406 20.8281L50.7016 20.3319L50.2797 20.28L50.1606 20.6881L50.6406 20.8281ZM52.6562 20.9922V21.4923L52.6667 21.4921L52.6562 20.9922ZM53.7812 20.9688L54.2035 21.2365L54.7026 20.4494L53.7708 20.4689L53.7812 20.9688ZM51.0156 25.9844L50.5684 25.7608L50.568 25.7616L51.0156 25.9844ZM37.8672 52.3984L37.4196 52.1756L37.4175 52.1799L37.8672 52.3984ZM36.6484 54.9062L36.1987 54.6877L36.193 54.6994L36.188 54.7114L36.6484 54.9062ZM36.0391 56.6172L36.0121 57.1165L36.3979 57.1373L36.5154 56.7692L36.0391 56.6172ZM34.3047 56.5234L34.3317 56.0242L34.3099 56.023L34.288 56.0237L34.3047 56.5234ZM50.8984 37.5156L50.5091 37.2019L50.5087 37.2023L50.8984 37.5156ZM61.3984 37.1875L61.0033 37.4939L61.0071 37.4988L61.3984 37.1875ZM61.1172 52.8906L60.7217 52.5847L60.7213 52.5852L61.1172 52.8906ZM52 54.3438L51.7299 54.7646L51.7328 54.7663L52 54.3438ZM49.7031 51.4609L49.2362 51.6397L49.2369 51.6416L49.7031 51.4609ZM54.0859 52.0938L54.5432 51.8914L54.5413 51.8872L54.0859 52.0938ZM58.2109 52.1875L57.7749 51.9427L57.7717 51.9486L58.2109 52.1875ZM57.9531 38.3359L57.4972 38.5411L57.4984 38.5439L57.9531 38.3359ZM53.7812 38.2188L53.349 37.9673L53.3457 37.9732L53.7812 38.2188ZM24.1406 32.2422C24.1406 28.5388 24.7811 26.02 25.9522 24.5633L25.1728 23.9367C23.7814 25.6675 23.1406 28.4768 23.1406 32.2422H24.1406ZM25.9518 24.5637C27.1396 23.0897 28.8146 22.3359 31.0469 22.3359V21.3359C28.5604 21.3359 26.5791 22.1915 25.1732 23.9363L25.9518 24.5637ZM31.0469 22.3359C33.2064 22.3359 34.7101 22.9936 35.6673 24.2282L36.4577 23.6155C35.2586 22.0689 33.4186 21.3359 31.0469 21.3359V22.3359ZM35.6712 24.2331C36.6506 25.4644 37.2031 27.8175 37.2031 31.4453H38.2031C38.2031 27.7919 37.6619 25.1293 36.4538 23.6106L35.6712 24.2331ZM37.2031 31.4453C37.2031 35.2107 36.563 37.7973 35.3858 39.3191L36.1767 39.9309C37.562 38.1402 38.2031 35.2737 38.2031 31.4453H37.2031ZM35.3854 39.3196C34.2249 40.8239 32.6052 41.5859 30.4609 41.5859V42.5859C32.8792 42.5859 34.8064 41.7073 36.1771 39.9304L35.3854 39.3196ZM30.4609 41.5859C29.0706 41.5859 27.9012 41.2688 26.9313 40.6555L26.3968 41.5007C27.552 42.2312 28.9138 42.5859 30.4609 42.5859V41.5859ZM26.9341 40.6573C25.9835 40.0472 25.2826 39.174 24.8334 38.0147L23.901 38.376C24.4205 39.7167 25.2509 40.7653 26.394 41.4989L26.9341 40.6573ZM24.8342 38.0166C24.384 36.8404 24.1406 34.9327 24.1406 32.2422H23.1406C23.1406 34.958 23.3816 37.019 23.9002 38.374L24.8342 38.0166ZM27.2188 30.4375C27.2188 34.5122 27.5576 37.4097 28.2947 39.0347L29.2053 38.6216C28.5674 37.2153 28.2188 34.5191 28.2188 30.4375H27.2188ZM28.2928 39.0305C28.5312 39.5692 28.8579 40.0075 29.2891 40.3098C29.7237 40.6145 30.2314 40.7578 30.7891 40.7578V39.7578C30.4092 39.7578 30.1083 39.6628 29.8632 39.491C29.6147 39.3168 29.3906 39.0402 29.2072 38.6258L28.2928 39.0305ZM30.7891 40.7578C31.9036 40.7578 32.755 40.189 33.3142 39.1608L32.4358 38.683C32.0262 39.436 31.487 39.7578 30.7891 39.7578V40.7578ZM33.311 39.1666C33.608 38.6375 33.8056 37.8723 33.9331 36.9199C34.0621 35.9562 34.125 34.7544 34.125 33.3203H33.125C33.125 34.73 33.0629 35.8836 32.9419 36.7872C32.8194 37.7019 32.642 38.3156 32.439 38.6771L33.311 39.1666ZM34.125 33.3203C34.125 31.2927 34.0406 29.5756 33.8694 28.1737C33.6989 26.7787 33.4391 25.6651 33.0719 24.8623L32.1625 25.2783C32.4671 25.9443 32.7112 26.9401 32.8767 28.295C33.0414 29.6431 33.125 31.3167 33.125 33.3203H34.125ZM33.0731 24.8651C32.8333 24.3321 32.5028 23.8998 32.0668 23.6025C31.6284 23.3036 31.1167 23.1641 30.5547 23.1641V24.1641C30.9458 24.1641 31.2544 24.2589 31.5035 24.4287C31.755 24.6002 31.9792 24.8711 32.1612 25.2755L33.0731 24.8651ZM30.5547 23.1641C29.4504 23.1641 28.5921 23.7065 28.0131 24.7017L28.8775 25.2046C29.2985 24.481 29.8465 24.1641 30.5547 24.1641V23.1641ZM28.0097 24.7076C27.7197 25.2222 27.5282 25.9711 27.4047 26.9031C27.2797 27.847 27.2188 29.0271 27.2188 30.4375H28.2188C28.2188 29.051 28.2789 27.9187 28.3961 27.0344C28.5148 26.1383 28.6865 25.5434 28.8809 25.1986L28.0097 24.7076ZM33.3237 56.8333C34.0701 55.6263 34.9922 53.915 36.0885 51.7067L35.1928 51.262C34.1016 53.46 33.1955 55.1393 32.4732 56.3073L33.3237 56.8333ZM36.0877 51.7083L49.2596 25.4114L48.3654 24.9636L35.1936 51.2604L36.0877 51.7083ZM49.2597 25.4111C50.1559 23.6188 50.7803 22.135 51.1206 20.9681L50.1606 20.6881C49.8447 21.7713 49.2504 23.1937 48.3653 24.9639L49.2597 25.4111ZM50.5797 21.3244C51.475 21.4343 52.1715 21.4922 52.6562 21.4922V20.4922C52.2347 20.4922 51.5875 20.4407 50.7016 20.3319L50.5797 21.3244ZM52.6667 21.4921L53.7917 21.4686L53.7708 20.4689L52.6458 20.4923L52.6667 21.4921ZM53.359 20.701C52.5341 22.0018 51.6038 23.69 50.5684 25.7608L51.4628 26.208C52.49 24.1537 53.4034 22.4982 54.2035 21.2365L53.359 20.701ZM50.568 25.7616L37.4196 52.1756L38.3148 52.6212L51.4632 26.2072L50.568 25.7616ZM37.4175 52.1799L36.1987 54.6877L37.0981 55.1248L38.3169 52.617L37.4175 52.1799ZM36.188 54.7114C36.0074 55.1383 35.7989 55.7253 35.5627 56.4652L36.5154 56.7692C36.748 56.0404 36.9458 55.4867 37.1089 55.1011L36.188 54.7114ZM36.0661 56.1179L34.3317 56.0242L34.2777 57.0227L36.0121 57.1165L36.0661 56.1179ZM34.288 56.0237L32.8818 56.0706L32.9151 57.07L34.3213 57.0232L34.288 56.0237ZM49.4766 45.5078C49.4766 41.8045 50.117 39.2857 51.2881 37.8289L50.5087 37.2023C49.1174 38.9331 48.4766 41.7424 48.4766 45.5078H49.4766ZM51.2878 37.8294C52.4756 36.3554 54.1506 35.6016 56.3828 35.6016V34.6016C53.8963 34.6016 51.9151 35.4571 50.5091 37.2019L51.2878 37.8294ZM56.3828 35.6016C58.5424 35.6016 60.0461 36.2592 61.0033 37.4939L61.7936 36.8811C60.5945 35.3346 58.7545 34.6016 56.3828 34.6016V35.6016ZM61.0071 37.4988C61.9866 38.73 62.5391 41.0831 62.5391 44.7109H63.5391C63.5391 41.0575 62.9978 38.395 61.7897 36.8762L61.0071 37.4988ZM62.5391 44.7109C62.5391 48.4763 61.8989 51.0629 60.7217 52.5847L61.5127 53.1966C62.8979 51.4059 63.5391 48.5393 63.5391 44.7109H62.5391ZM60.7213 52.5852C59.5608 54.0896 57.9411 54.8516 55.7969 54.8516V55.8516C58.2152 55.8516 60.1423 54.9729 61.5131 53.196L60.7213 52.5852ZM55.7969 54.8516C54.4065 54.8516 53.2371 54.5344 52.2672 53.9212L51.7328 54.7663C52.8879 55.4968 54.2497 55.8516 55.7969 55.8516V54.8516ZM52.2701 53.923C51.3194 53.3128 50.6186 52.4396 50.1693 51.2803L49.2369 51.6416C49.7564 52.9823 50.5868 54.0309 51.7299 54.7645L52.2701 53.923ZM50.1701 51.2822C49.7199 50.106 49.4766 48.1983 49.4766 45.5078H48.4766C48.4766 48.2236 48.7176 50.2846 49.2362 51.6397L50.1701 51.2822ZM52.5547 43.7031C52.5547 47.7778 52.8935 50.6754 53.6306 52.3003L54.5413 51.8872C53.9034 50.4809 53.5547 47.7847 53.5547 43.7031H52.5547ZM53.6287 52.2961C53.8672 52.8348 54.1939 53.2731 54.6251 53.5754C55.0597 53.8801 55.5673 54.0234 56.125 54.0234V53.0234C55.7452 53.0234 55.4443 52.9285 55.1992 52.7566C54.9507 52.5824 54.7266 52.3058 54.5432 51.8914L53.6287 52.2961ZM56.125 54.0234C57.2395 54.0234 58.091 53.4546 58.6502 52.4264L57.7717 51.9486C57.3622 52.7016 56.823 53.0234 56.125 53.0234V54.0234ZM58.6469 52.4323C58.944 51.9032 59.1415 51.1379 59.269 50.1855C59.398 49.2219 59.4609 48.02 59.4609 46.5859H58.4609C58.4609 47.9956 58.3988 49.1492 58.2779 50.0528C58.1554 50.9675 57.9779 51.5812 57.7749 51.9427L58.6469 52.4323ZM59.4609 46.5859C59.4609 44.5583 59.3765 42.8413 59.2053 41.4394C59.0349 40.0443 58.775 38.9307 58.4078 38.1279L57.4984 38.5439C57.8031 39.2099 58.0472 40.2057 58.2127 41.5606C58.3774 42.9087 58.4609 44.5823 58.4609 46.5859H59.4609ZM58.4091 38.1308C58.1692 37.5977 57.8388 37.1654 57.4028 36.8681C56.9643 36.5692 56.4526 36.4297 55.8906 36.4297V37.4297C56.2818 37.4297 56.5903 37.5245 56.8394 37.6944C57.0909 37.8658 57.3152 38.1367 57.4972 38.5411L58.4091 38.1308ZM55.8906 36.4297C54.7863 36.4297 53.9281 36.9721 53.3491 37.9673L54.2134 38.4702C54.6344 37.7466 55.1824 37.4297 55.8906 37.4297V36.4297ZM53.3457 37.9732C53.0556 38.4878 52.8641 39.2367 52.7407 40.1687C52.6156 41.1126 52.5547 42.2927 52.5547 43.7031H53.5547C53.5547 42.3167 53.6149 41.1843 53.732 40.3C53.8507 39.4039 54.0225 38.8091 54.2168 38.4643L53.3457 37.9732Z" fill="black"/>
</g>
</g>
<defs>
<filter id="filter0_d" x="0.5" y="0.5" width="85" height="85" filterUnits="userSpaceOnUse" color-interpolation-filters="sRGB">
<feFlood flood-opacity="0" result="BackgroundImageFix"/>
<feColorMatrix in="SourceAlpha" type="matrix" values="0 0 0 0 0 0 0 0 0 0 0 0 0 0 0 0 0 0 127 0"/>
<feOffset dx="4" dy="4"/>
<feGaussianBlur stdDeviation="1"/>
<feColorMatrix type="matrix" values="0 0 0 0 0 0 0 0 0 0 0 0 0 0 0 0 0 0 0.5 0"/>
<feBlend mode="normal" in2="BackgroundImageFix" result="effect1_dropShadow"/>
<feBlend mode="normal" in="SourceGraphic" in2="effect1_dropShadow" result="shape"/>
</filter>
<filter id="filter1_d" x="23.1406" y="20.28" width="44.3984" height="42.8573" filterUnits="userSpaceOnUse" color-interpolation-filters="sRGB">
<feFlood flood-opacity="0" result="BackgroundImageFix"/>
<feColorMatrix in="SourceAlpha" type="matrix" values="0 0 0 0 0 0 0 0 0 0 0 0 0 0 0 0 0 0 127 0"/>
<feOffset dx="2" dy="4"/>
<feGaussianBlur stdDeviation="1"/>
<feColorMatrix type="matrix" values="0 0 0 0 0 0 0 0 0 0 0 0 0 0 0 0 0 0 0.25 0"/>
<feBlend mode="normal" in2="BackgroundImageFix" result="effect1_dropShadow"/>
<feBlend mode="normal" in="SourceGraphic" in2="effect1_dropShadow" result="shape"/>
</filter>
</defs>
</svg>
