<svg width="86" height="86" viewBox="0 0 86 86" fill="none" xmlns="http://www.w3.org/2000/svg">
<g filter="url(#filter0_d)">
<rect x="1" y="1" width="78" height="78" rx="22" fill="#184FBD" stroke="#9E1212"/>
<g filter="url(#filter1_d)">
<path d="M41.9922 49.3203L41.1953 48.9688C41.0547 46.4531 40.8828 44.125 40.6797 41.9844L35.8516 47.0234L35.0078 46.8828C34.4766 45.6484 33.8359 44.4531 33.0859 43.2969L33.2734 42.875C35.8984 42 38.1016 41.1875 39.8828 40.4375L33.2734 37.6016L33.0859 37.2031C34.1016 35.7188 34.8438 34.5078 35.3125 33.5703H36.1094C37.6719 35.4297 39.2656 37.2578 40.8906 39.0547L41.5703 32.2109L41.9922 31.9062C43.4453 32.4062 44.9219 32.7578 46.4219 32.9609L46.6562 33.6641C45.75 34.9297 44.3984 36.9766 42.6016 39.8047L49.4688 38.3047L49.7031 38.5156C49.8281 39.8281 50.0078 41.1875 50.2422 42.5938L49.7031 43.1328C47.0938 42.4453 44.6328 41.8828 42.3203 41.4453L46.1406 47.2812L45.9766 47.6094C44.4141 48.1719 43.0859 48.7422 41.9922 49.3203Z" fill="#9E1212"/>
<path d="M41.9922 49.3203L41.7904 49.7778L42.0118 49.8755L42.2258 49.7624L41.9922 49.3203ZM41.1953 48.9688L40.6961 48.9967L40.7132 49.3025L40.9935 49.4262L41.1953 48.9688ZM40.6797 41.9844L41.1775 41.9371L41.0743 40.8498L40.3187 41.6385L40.6797 41.9844ZM35.8516 47.0234L35.7694 47.5166L36.0299 47.5601L36.2126 47.3694L35.8516 47.0234ZM35.0078 46.8828L34.5485 47.0805L34.6564 47.3311L34.9256 47.376L35.0078 46.8828ZM33.0859 43.2969L32.629 43.0938L32.5189 43.3415L32.6665 43.569L33.0859 43.2969ZM33.2734 42.875L33.1153 42.4007L32.9061 42.4704L32.8165 42.6719L33.2734 42.875ZM39.8828 40.4375L40.0768 40.8983L41.161 40.4418L40.08 39.978L39.8828 40.4375ZM33.2734 37.6016L32.821 37.8145L32.9018 37.9862L33.0763 38.0611L33.2734 37.6016ZM33.0859 37.2031L32.6733 36.9208L32.5116 37.157L32.6335 37.416L33.0859 37.2031ZM35.3125 33.5703V33.0703H35.0035L34.8653 33.3467L35.3125 33.5703ZM36.1094 33.5703L36.4922 33.2486L36.3423 33.0703H36.1094V33.5703ZM40.8906 39.0547L40.5198 39.3901L41.2767 40.227L41.3882 39.1041L40.8906 39.0547ZM41.5703 32.2109L41.2776 31.8056L41.095 31.9374L41.0728 32.1615L41.5703 32.2109ZM41.9922 31.9062L42.1549 31.4335L41.9097 31.3491L41.6994 31.5009L41.9922 31.9062ZM46.4219 32.9609L46.8962 32.8028L46.7977 32.5073L46.489 32.4655L46.4219 32.9609ZM46.6562 33.6641L47.0628 33.9552L47.2112 33.7478L47.1306 33.5059L46.6562 33.6641ZM42.6016 39.8047L42.1795 39.5366L41.5361 40.5492L42.7083 40.2932L42.6016 39.8047ZM49.4688 38.3047L49.8032 37.933L49.6126 37.7615L49.3621 37.8162L49.4688 38.3047ZM49.7031 38.5156L50.2009 38.4682L50.1824 38.2743L50.0376 38.144L49.7031 38.5156ZM50.2422 42.5938L50.5957 42.9473L50.7777 42.7654L50.7354 42.5116L50.2422 42.5938ZM49.7031 43.1328L49.5757 43.6163L49.8535 43.6895L50.0567 43.4864L49.7031 43.1328ZM42.3203 41.4453L42.4133 40.954L41.258 40.7355L41.902 41.7192L42.3203 41.4453ZM46.1406 47.2812L46.5878 47.5049L46.7164 47.2478L46.559 47.0074L46.1406 47.2812ZM45.9766 47.6094L46.1459 48.0798L46.3343 48.012L46.4238 47.833L45.9766 47.6094ZM42.194 48.8629L41.3971 48.5113L40.9935 49.4262L41.7904 49.7778L42.194 48.8629ZM41.6945 48.9408C41.5536 46.4198 41.3813 44.0852 41.1775 41.9371L40.1819 42.0316C40.3843 44.1648 40.5558 46.4864 40.6961 48.9967L41.6945 48.9408ZM40.3187 41.6385L35.4905 46.6775L36.2126 47.3694L41.0407 42.3303L40.3187 41.6385ZM35.9338 46.5302L35.09 46.3896L34.9256 47.376L35.7694 47.5166L35.9338 46.5302ZM35.4671 46.6852C34.9244 45.4242 34.2704 44.2041 33.5054 43.0248L32.6665 43.569C33.4015 44.7022 34.0287 45.8726 34.5485 47.0805L35.4671 46.6852ZM33.5428 43.4999L33.7303 43.0781L32.8165 42.6719L32.629 43.0938L33.5428 43.4999ZM33.4316 43.3493C36.064 42.4719 38.28 41.6549 40.0768 40.8983L39.6888 39.9767C37.9231 40.7201 35.7329 41.5281 33.1153 42.4007L33.4316 43.3493ZM40.08 39.978L33.4706 37.1421L33.0763 38.0611L39.6857 40.897L40.08 39.978ZM33.7258 37.3887L33.5383 36.9902L32.6335 37.416L32.821 37.8145L33.7258 37.3887ZM33.4986 37.4855C34.5194 35.9936 35.2761 34.7611 35.7597 33.7939L34.8653 33.3467C34.4114 34.2545 33.6838 35.4439 32.6733 36.9208L33.4986 37.4855ZM35.3125 34.0703H36.1094V33.0703H35.3125V34.0703ZM35.7266 33.892C37.293 35.756 38.8907 37.5887 40.5198 39.3901L41.2615 38.7193C39.6405 36.9269 38.0508 35.1034 36.4922 33.2486L35.7266 33.892ZM41.3882 39.1041L42.0679 32.2604L41.0728 32.1615L40.3931 39.0053L41.3882 39.1041ZM41.8631 32.6163L42.2849 32.3116L41.6994 31.5009L41.2776 31.8056L41.8631 32.6163ZM41.8295 32.379C43.3132 32.8896 44.8218 33.2488 46.3548 33.4564L46.489 32.4655C45.022 32.2668 43.5774 31.9229 42.1549 31.4335L41.8295 32.379ZM45.9475 33.1191L46.1819 33.8222L47.1306 33.5059L46.8962 32.8028L45.9475 33.1191ZM46.2497 33.373C45.3349 34.6506 43.9771 36.7074 42.1795 39.5366L43.0236 40.0728C44.8198 37.2457 46.1651 35.2088 47.0628 33.9552L46.2497 33.373ZM42.7083 40.2932L49.5754 38.7932L49.3621 37.8162L42.4949 39.3162L42.7083 40.2932ZM49.1343 38.6763L49.3686 38.8873L50.0376 38.144L49.8032 37.933L49.1343 38.6763ZM49.2054 38.563C49.3316 39.8881 49.5128 41.2591 49.749 42.6759L50.7354 42.5116C50.5028 41.1159 50.3247 39.7682 50.2009 38.4682L49.2054 38.563ZM49.8886 42.2402L49.3496 42.7793L50.0567 43.4864L50.5957 42.9473L49.8886 42.2402ZM49.8305 42.6493C47.2114 41.9592 44.7389 41.394 42.4133 40.954L42.2274 41.9366C44.5268 42.3716 46.9761 42.9314 49.5757 43.6163L49.8305 42.6493ZM41.902 41.7192L45.7223 47.5551L46.559 47.0074L42.7386 41.1715L41.902 41.7192ZM45.6934 47.0576L45.5293 47.3858L46.4238 47.833L46.5878 47.5049L45.6934 47.0576ZM45.8072 47.1389C44.2296 47.7069 42.8787 48.2862 41.7585 48.8783L42.2258 49.7624C43.2932 49.1982 44.5985 48.6369 46.1459 48.0798L45.8072 47.1389Z" fill="black"/>
</g>
</g>
<defs>
<filter id="filter0_d" x="0.5" y="0.5" width="85" height="85" filterUnits="userSpaceOnUse" color-interpolation-filters="sRGB">
<feFlood flood-opacity="0" result="BackgroundImageFix"/>
<feColorMatrix in="SourceAlpha" type="matrix" values="0 0 0 0 0 0 0 0 0 0 0 0 0 0 0 0 0 0 127 0"/>
<feOffset dx="4" dy="4"/>
<feGaussianBlur stdDeviation="1"/>
<feColorMatrix type="matrix" values="0 0 0 0 0 0 0 0 0 0 0 0 0 0 0 0 0 0 0.5 0"/>
<feBlend mode="normal" in2="BackgroundImageFix" result="effect1_dropShadow"/>
<feBlend mode="normal" in="SourceGraphic" in2="effect1_dropShadow" result="shape"/>
</filter>
<filter id="filter1_d" x="32.5117" y="31.3491" width="22.266" height="24.5264" filterUnits="userSpaceOnUse" color-interpolation-filters="sRGB">
<feFlood flood-opacity="0" result="BackgroundImageFix"/>
<feColorMatrix in="SourceAlpha" type="matrix" values="0 0 0 0 0 0 0 0 0 0 0 0 0 0 0 0 0 0 127 0"/>
<feOffset dx="2" dy="4"/>
<feGaussianBlur stdDeviation="1"/>
<feColorMatrix type="matrix" values="0 0 0 0 0 0 0 0 0 0 0 0 0 0 0 0 0 0 0.25 0"/>
<feBlend mode="normal" in2="BackgroundImageFix" result="effect1_dropShadow"/>
<feBlend mode="normal" in="SourceGraphic" in2="effect1_dropShadow" result="shape"/>
</filter>
</defs>
</svg>
